<?xml version="1.0" standalone="no"?>
<!DOCTYPE svg PUBLIC "-//W3C//DTD SVG 1.1//EN" "http://www.w3.org/Graphics/SVG/1.1/DTD/svg11.dtd" >
<svg xmlns="http://www.w3.org/2000/svg">
<metadata></metadata>
<defs>
<font id="gosmicksansbold" horiz-adv-x="1363" >
<font-face units-per-em="2048" ascent="1638" descent="-410" />
<missing-glyph horiz-adv-x="569" />
<glyph horiz-adv-x="0" />
<glyph horiz-adv-x="682" />
<glyph horiz-adv-x="645" d="M49 1272q-8 -55 7.5 -104.5t49 -88.5t85.5 -61.5t118 -22.5q57 0 112.5 21.5t97.5 59.5t67.5 87t25.5 105q0 51 -21.5 95t-59 77t-88 51t-107.5 18t-106.5 -18t-87.5 -51t-62.5 -76t-30.5 -92zM242 1249q-4 31 20.5 57.5t61.5 26.5q39 0 59 -20.5t25 -55.5q4 -31 -24 -54 t-65 -23q-35 0 -54 20.5t-23 48.5z" />
<glyph horiz-adv-x="952" />
<glyph horiz-adv-x="952" />
<glyph unicode=" "  horiz-adv-x="569" />
<glyph unicode="&#x09;" horiz-adv-x="569" />
<glyph unicode="&#xa0;" horiz-adv-x="569" />
<glyph unicode="!" horiz-adv-x="382" d="M39 154q6 -72 55 -123t119 -54q59 -2 90 27t43 63.5t12 63.5v31v4q-14 59 -59 101t-111 42t-109.5 -45t-39.5 -110zM55 543q-2 -94 33 -130t107 -20q37 18 61.5 31.5t38.5 35t20.5 57.5t3.5 99q0 27 -1 52.5t-1 52.5q0 154 9.5 308.5t25.5 301.5q8 68 -26.5 116t-96.5 48 q-33 0 -64.5 -11t-56 -31.5t-39 -47.5t-10.5 -57q4 -35 7.5 -78t3.5 -101q0 -55 -1 -128.5t-3.5 -156.5t-5.5 -171t-5 -170z" />
<glyph unicode="&#x22;" horiz-adv-x="788" d="M51 1350q0 -29 7.5 -96.5t22.5 -137t40.5 -122t64.5 -52.5q35 0 62.5 49t48 113.5t32 129t15.5 93.5q4 37 -4 70t-26.5 57.5t-46 39.5t-64.5 15q-70 0 -107 -46t-45 -113zM457 1350q0 -29 7 -96.5t22.5 -137t42 -122t65.5 -52.5q35 0 62.5 49t47 113.5t31 129t15.5 93.5 q8 72 -30 127t-112 55q-68 0 -105.5 -46t-45.5 -113z" />
<glyph unicode="#" horiz-adv-x="1126" d="M59 457q4 -57 44 -73.5t94 -16.5h24q14 0 25 2l-15 -88q-2 -20 -3 -39t-1 -39q0 -84 31 -121t74 -37q37 0 71.5 32t45.5 91q8 41 14 82l12 82q2 6 3 19.5t3 21.5q20 -2 22.5 -1t22.5 1h39q0 -8 -1 -9l-1 -2l-1 -2t-3 -12h-2q-6 -33 -13 -69.5t-7 -75.5q0 -41 15 -75 t52 -52q25 -33 51.5 -28t50 28.5t40 54.5t20.5 51l16 111q4 20 6.5 37.5t6.5 40.5h2h59q29 0 54.5 9t49 29.5t48.5 57.5q2 4 4 7t4 7q4 8 7 14.5t9 24.5l2 4q4 25 -7 40.5t-30.5 23.5t-47 11t-58.5 3h-29q-14 0 -26 -2l8 59v-2q2 4 2 11q0 6 2 12h59q33 0 63.5 7t55.5 24.5 t33 48.5q18 25 23 58.5t-7 60.5q-14 23 -45 28.5t-69 5.5h-68q-2 0 2 9q8 35 13 73.5t5 75.5q0 61 -26.5 107.5t-104.5 62.5q-18 -2 -32.5 -13t-25.5 -25.5t-17.5 -30t-8.5 -25.5q-10 -59 -19 -119.5t-20 -118.5h-49h-30q8 37 16 90.5t8 100.5q0 49 -14.5 81.5t-48.5 41.5 q-25 14 -58.5 13t-60.5 -19q-16 -12 -27.5 -45t-20.5 -74t-15.5 -85t-10.5 -79q0 -4 -1 -11.5t-1 -9.5h-29q-53 0 -93 -13t-65.5 -34.5t-37.5 -46t-12 -49.5q0 -37 25.5 -63.5t76.5 -26.5h37q20 0 37 2h18q-2 -10 -2 -12v-4v-4t-2 -13v2q-4 -12 -5 -24.5t-5 -24.5 q-59 2 -114.5 -11t-88.5 -77q-14 -12 -20.5 -23.5t-6.5 -33.5zM518 598q4 29 8 47.5t9 38.5h86l-19 -86h-84z" />
<glyph unicode="$" horiz-adv-x="1085" d="M59 303q0 -55 31 -101t82 -80t117.5 -55.5t138.5 -27.5q23 -72 84 -78q14 -6 37 -6q25 0 45 22q20 10 25.5 31t7.5 43q78 10 153.5 41t143.5 107q25 16 45 48t34.5 68.5t23.5 74.5t11 67q18 158 -89 257t-308 128q-6 0 -10 2q2 35 2 67v70v23v61q0 35 2 70 q29 -6 49.5 -19.5t20.5 -36.5q31 -63 86 -63q41 0 78.5 39t37.5 100q0 23 -6 48.5t-22 49.5v-2q-35 53 -102.5 78t-133.5 31q0 27 -2 35q-8 51 -37 73.5t-67 18.5q-63 -6 -82 -42t-23 -102q-76 -20 -144.5 -58t-119.5 -90t-78 -116.5t-16 -138.5q16 -119 98 -188.5 t246 -108.5q0 -37 -1 -57.5t-1 -55.5v-262q-49 10 -90 33t-62 70q-4 31 -35.5 50t-54.5 19q-29 0 -50.5 -13t-35.5 -32.5t-21.5 -44t-7.5 -47.5zM324 987q-10 45 19.5 82t82.5 59l-4 -233q-47 16 -69.5 39.5t-28.5 52.5zM512 -39h8q2 0 3 -1t3 -1zM629 285v313 q72 -18 115 -47t53 -86q10 -63 -40 -110.5t-128 -69.5z" />
<glyph unicode="%" horiz-adv-x="1556" d="M72 1057q0 -74 22.5 -139.5t65.5 -114.5t103.5 -77t133.5 -28q72 0 134.5 28t109.5 75t77 112.5t36 139.5q6 80 -14.5 151.5t-63.5 125.5t-105.5 85t-138.5 31q-78 0 -144.5 -31t-114.5 -83t-74.5 -122.5t-26.5 -152.5zM287 1077q0 72 35.5 123t93.5 51q57 0 89 -50 t32 -130q0 -72 -37 -120t-92 -48q-57 0 -89 51.5t-32 122.5zM358 70q4 -29 32 -53.5t63 -24.5q39 0 69.5 17.5t55 46t44 66.5t40.5 79q4 10 7 18t7 17q18 41 37.5 79.5t38.5 79.5q49 109 100 213q94 188 183 356.5t159 290.5q12 20 23 33q14 18 24 32.5t0 37.5 q-4 31 -29.5 53.5t-60.5 22.5q-23 0 -53.5 -13.5t-60 -34t-54.5 -45t-35 -47.5q-18 -41 -47 -99t-51 -105q-14 -33 -35 -72q-45 -90 -89 -180t-92 -189.5t-101.5 -209t-114.5 -238.5q0 -4 -12.5 -23.5t-22.5 -32.5q-10 -18 -19.5 -36.5t-5.5 -38.5zM817 346 q0 -74 23.5 -139.5t65.5 -113.5t101.5 -76.5t133.5 -28.5q72 0 135 27.5t110.5 75.5t77 112.5t35.5 138.5q6 80 -14.5 151.5t-63.5 126t-105.5 85t-137.5 30.5q-78 0 -144.5 -30.5t-115 -83t-75 -123t-26.5 -152.5zM1032 367q0 74 37 124t94 50q55 0 87 -50.5t32 -128.5 q0 -72 -36 -119.5t-93 -47.5t-89 50t-32 122z" />
<glyph unicode="&#x26;" horiz-adv-x="1386" d="M70 391q6 -90 45 -165.5t100 -131t143 -86.5t174 -31q55 0 122 13.5t132.5 40t123 64.5t96.5 87q8 -8 13 -12t10 -9t10 -11.5t18 -16.5q29 -29 59.5 -55.5t61 -49t58.5 -35.5t52 -13q20 0 50 12t55.5 30.5t43 41t11.5 42.5q-4 12 -21.5 32t-44 45.5t-59.5 53t-66 54.5 q-39 33 -68.5 58.5t-45.5 19.5q23 33 35 52t17 34.5t6 33t1 43.5v21q2 41 -21.5 71.5t-64.5 41.5h2q-39 12 -68.5 1.5t-55 -36t-48 -63.5t-45.5 -79q-27 -53 -72 -114q-20 -39 -56 -69t-79 -49t-86 -28.5t-78 -7.5q-74 4 -135 52.5t-76 123.5v-2q-10 72 30 150t157 155 q2 4 15.5 14.5t33.5 24t44 28.5t46.5 29.5t39.5 26t26 17.5q123 86 165 166.5t31 171.5q-10 57 -37.5 98t-67.5 68.5t-87 41t-94 13.5q-68 0 -132.5 -20.5t-117 -53.5t-88 -74t-45.5 -84q-33 -102 108 -309q-16 -16 -24.5 -22.5t-28.5 -26.5h2q-43 -35 -84 -73t-68 -79 q-41 -63 -60.5 -128.5t-12.5 -137.5zM475 1108q2 27 13.5 53.5t43.5 30.5l20 4q19 4 40 4q31 -4 52.5 -20.5t21.5 -40.5v-4q0 -16 -9.5 -35t-26 -38.5t-37 -35.5t-40.5 -29q-14 12 -28.5 28.5t-26 33t-18.5 30t-5 19.5z" />
<glyph unicode="'" horiz-adv-x="358" d="M39 1350q0 -29 7 -96.5t22.5 -137t41 -122t64.5 -52.5q37 0 64.5 49t47 113.5t31 129t15.5 93.5q8 72 -30 127t-112 55q-70 0 -106.5 -46t-44.5 -113z" />
<glyph unicode="(" horiz-adv-x="645" d="M47 715q-4 -141 20.5 -284.5t70.5 -269.5t113.5 -225.5t151.5 -152.5q4 -2 9.5 -3t7.5 -3q25 -8 50.5 -11.5t41.5 1t33.5 16.5t33 29.5t24.5 35t7 33.5l2 -6q0 4 -2 8v2q-4 16 -18 37t-31 43q-16 27 -37.5 58.5t-42 63.5t-38 58.5t-25.5 42.5q-61 117 -92 265.5 t-27 294.5q4 180 63.5 337.5t147.5 280.5q18 41 24.5 49t10.5 15q12 16 16 31.5t0 37.5v-4q-4 33 -32.5 53.5t-59.5 20.5q-57 0 -110.5 -42t-99.5 -111.5t-84 -159t-65.5 -184.5t-44 -188t-18.5 -169z" />
<glyph unicode=")" horiz-adv-x="645" d="M47 -125q-2 -14 7 -31.5t23.5 -33t33 -27.5t36.5 -16q20 -6 40 -2t40 10q6 2 17 2q88 53 157.5 153.5t117.5 228.5t72.5 272.5t20.5 285.5q-2 76 -18 169t-44 187t-66 184.5t-85 159t-100 110.5t-111 42q-29 0 -56.5 -20.5t-35.5 -49.5q-6 -23 -3 -36t20 -36v3q2 -4 2 -3 q0 2 1 0t8 -15t23 -46q88 -123 148.5 -281.5t64.5 -339.5q2 -68 -5 -142.5t-22.5 -147t-39 -141t-53.5 -126.5q-10 -18 -27.5 -45.5t-37 -59.5t-41 -62.5t-38.5 -55.5q-20 -29 -33.5 -52.5t-15.5 -37.5z" />
<glyph unicode="*" horiz-adv-x="776" d="M48 1240q7 -28 54 -66q16 -6 38 -17.5t46 -23.5q-25 -10 -36 -14.5t-17 -7.5t-10 -6t-14 -9q-25 -20 -40.5 -37t-19.5 -33t2 -36.5t23 -47.5q39 -63 86 -63q35 0 76 32q10 6 23 15.5t30 23.5q-6 -55 -6 -88q6 -66 27.5 -85t86.5 -19q70 0 94.5 26.5t14.5 98.5 q-2 10 -4 27.5t-6 39.5q25 -20 44 -31.5t29 -17.5q59 -27 88 -16.5t62 65.5q35 59 21.5 93t-76.5 61l-30 12t-42 17q27 8 37 12t14 6t6 4t15 8q66 27 78 60.5t-23 93.5q-33 55 -61.5 65.5t-88.5 -16.5q-10 -6 -31.5 -20.5t-41.5 -30.5q6 25 8 34t2 11q0 4 -1 7t1 13 q10 72 -14.5 100.5t-94.5 28.5q-66 0 -87 -20.5t-27 -83.5q0 -16 1 -40t5 -52q-14 14 -28.5 24.5t-24.5 18.5q-41 33 -76 33q-47 0 -86 -64q-33 -57 -26 -85z" />
<glyph unicode="+" horiz-adv-x="1062" d="M57 567q12 -49 42 -66.5t73 -17.5h55q29 0 57.5 2t55.5 3t55 1h29v-114v-17q0 -8 -2 -18q-2 -16 -3 -33.5t-1 -40.5q0 -55 17.5 -100t72.5 -55q59 -6 104 27.5t45 94.5q0 37 -1 75t-3 73q-2 29 -2 53v51h164q35 0 61.5 2t49 11.5t41 31t34.5 60.5l3 2q16 28 16 55 q0 18 -8 31.5t-20.5 21t-27 11.5t-26.5 6q-16 2 -35.5 3t-44.5 1q-33 0 -69.5 -1t-71.5 -3q-16 -2 -33 -2h-29q2 16 1 12t-1 12v119q0 4 1 13.5t1 15.5q2 27 1 59.5t-8 61t-25.5 48t-53.5 19.5q-16 6 -43.5 8t-40.5 0q-37 -6 -49 -31.5t-14 -52.5q-2 -16 -3 -35.5t-1 -43.5 q0 -33 1 -70t3 -72q0 -10 1 -30.5t1 -30.5h-115q-8 0 -16 1t-19 1h-61q-31 0 -58.5 -7t-49 -26.5t-33.5 -58.5q-10 -16 -15.5 -27.5t-1.5 -32.5z" />
<glyph unicode="," horiz-adv-x="411" d="M41 -170q6 -47 41 -64.5t88 -13.5q57 10 88 47t45 78q12 35 27.5 76t28 80t19.5 72.5t5 54.5q0 33 -15.5 63.5t-41 54t-57 37t-64.5 13.5q-66 0 -111 -49.5t-43 -118.5q10 -63 49 -109q-6 -25 -12 -45t-14 -45q-14 -41 -25.5 -78t-7.5 -53z" />
<glyph unicode="-" horiz-adv-x="858" d="M53 565q12 -82 113 -82h43t39 2q29 2 61.5 3t79.5 1q23 0 36 -1t21 -1q10 -2 78 -2h72q45 0 79 3.5t58.5 13.5t41 30.5t28.5 57.5q8 16 12 34.5t4 22.5v8q-6 35 -21.5 42.5t-37.5 13.5h2q-4 2 -11.5 3t-11.5 3q-55 0 -82.5 -1t-44.5 -1h-114q-45 0 -65.5 1t-37.5 1h-86 q-10 2 -22 2h-15q-92 0 -138 -16.5t-68 -77.5q-8 -14 -12.5 -30.5t-0.5 -29.5z" />
<glyph unicode="." horiz-adv-x="397" d="M41 139q8 -66 54 -116t118 -50q63 0 110.5 44t47.5 116q0 37 -15.5 68.5t-40 55.5t-56.5 37t-66 13q-66 0 -110 -48t-42 -120z" />
<glyph unicode="/" horiz-adv-x="899" d="M55 104q-4 -23 5.5 -42t24.5 -33.5t32.5 -22.5t32.5 -8q45 0 76.5 21.5t56 57.5t45 84t41.5 103q10 23 18 47.5t19 48.5q41 98 81.5 195.5t81.5 196.5v-2q86 205 155 364.5t122 249.5v-2q4 6 6 13t6 14l2 12q0 18 -11 34.5t-29.5 28t-40 15.5t-42.5 0q-45 -4 -77.5 -25.5 t-58.5 -57.5t-44 -80t-37 -89q-8 -20 -14 -40t-17 -40q-27 -63 -54 -134t-56 -141q-70 -176 -141.5 -353t-143.5 -333v2l-12 -26q-8 -25 -12 -36t-15 -22z" />
<glyph unicode="0" horiz-adv-x="1202" d="M61 707q0 -164 40 -299.5t111 -231.5t169 -149.5t213 -53.5q117 0 218 51.5t177 148.5t120 235.5t46 314.5q2 160 -40 292t-115.5 228t-173 149.5t-214.5 53.5t-214 -54.5t-175 -151.5t-119 -233.5t-43 -299.5zM315 778q4 92 25.5 171t56.5 136.5t84 90t111 32.5 q43 0 89 -15t87 -47t71.5 -81t43.5 -117q6 -12 8 -46t4 -74t2 -83v-69q0 -98 -19.5 -180t-55.5 -140.5t-88 -91.5t-118 -33q-70 0 -127 41t-97 114t-60.5 173t-16.5 219z" />
<glyph unicode="1" horiz-adv-x="614" d="M47 1169q4 -41 37 -68.5t74 -27.5q23 0 33 6t26 10.5t31.5 9.5t32.5 5h2q0 -37 -4.5 -96.5t-10.5 -128.5q-6 -94 -12 -197.5t-6 -194.5l-2 -325l-31 -37q-23 -25 -42 -48.5t-23.5 -40t14 -26.5t72.5 -10h143q10 0 21.5 -1t21.5 -1q31 -2 59.5 -1t51 9t36 26.5t13.5 51.5 q0 29 -9.5 34t-19.5 11h-2l-9 13.5t-9 15.5q-6 57 -11.5 149t-3.5 182q0 59 3 134t8.5 156t11.5 163t12 160q2 18 3 38.5t3 37.5q2 14 2 30v33q0 41 -6 76t-33 63q-10 25 -26.5 37.5t-40.5 16.5q-27 0 -51 -15q-55 -20 -121 -49t-122.5 -62.5t-90 -69.5t-23.5 -73z" />
<glyph unicode="2" horiz-adv-x="1150" d="M61 1036q12 -98 117 -94q35 0 53.5 22.5t40.5 55.5q18 27 42 56.5t53 51.5q43 29 89 42.5t95 7.5q20 -2 46 -12.5t47.5 -27t35.5 -37t14 -42.5q8 -47 -9 -95.5t-57 -104.5t-101.5 -124.5t-143.5 -156.5h2q-31 -33 -68.5 -72t-72.5 -78q-27 -31 -56.5 -72t-55.5 -84 t-41 -81.5t-15 -65.5q4 -43 28.5 -66.5t55.5 -40.5q12 -4 24 -12h2q20 -12 39 -12q12 0 19.5 1t15.5 3h-4q55 4 120.5 7t136.5 4t140 1h138h59q18 0 35.5 -1t38.5 -3q31 0 64.5 14.5t61 37t44 51t10.5 53.5q-4 47 -60.5 74.5t-179.5 25.5q-25 0 -54.5 1t-64.5 3 q-37 2 -76.5 3t-76.5 1q-23 0 -46.5 -1t-39.5 -1l-94 -6q-2 -2 -4 -2q33 57 105.5 128t148.5 140q80 76 140 141.5t99 128t58.5 127t19.5 138.5q0 80 -35 144.5t-91 111.5t-130 72.5t-152 25.5q-84 0 -177 -33.5t-168.5 -88t-123 -123t-41.5 -136.5z" />
<glyph unicode="3" horiz-adv-x="1136" d="M61 283q10 -61 57.5 -117.5t118 -98.5t156.5 -68t174 -26q113 0 209 36t167 97.5t110 144.5t39 177v14q0 61 -22.5 113.5t-60.5 97.5t-90.5 79t-111.5 59h-2q68 47 113 110.5t55 136.5q6 82 -24.5 152t-90 120t-145.5 77.5t-187 27.5q-66 0 -136.5 -19.5t-131.5 -53 t-105 -81t-55 -100.5q-12 -49 18.5 -87t80.5 -38q27 0 49 11.5t33 35.5q63 51 128.5 79t137.5 20q66 -10 110.5 -47t44.5 -99q0 -37 -22.5 -64.5t-59 -46t-81.5 -31.5t-91 -24q-88 -8 -126.5 -56t-32.5 -93q4 -41 32.5 -59.5t75.5 -24.5h19q29 4 52 7t40 3 q63 -2 119.5 -19.5t99.5 -50t68.5 -78.5t25.5 -104q0 -43 -19.5 -78.5t-55 -61.5t-86 -39t-111.5 -9q-94 8 -152.5 53t-109.5 111q-20 35 -40 48t-52 13q-25 0 -50.5 -13t-46 -35t-30 -49.5t-3.5 -55.5z" />
<glyph unicode="4" horiz-adv-x="1282" d="M63 455q-2 -23 6.5 -46.5t27 -45t49 -35t73.5 -13.5h105q72 0 156.5 1t168.5 6q12 0 22.5 1t22.5 1h4q0 -16 6.5 -69.5t19.5 -111t38.5 -101.5t66.5 -44q18 0 44 12.5t50.5 34t40 49t13.5 56.5q-2 14 -4 41.5t-3 56t-2 52.5t-1 32q8 0 13 1t9 1h21h28t31 -2q16 -4 45 10 t56.5 40t46 58.5t16.5 67.5q-6 45 -34 64.5t-66 23.5q-20 0 -42 -1t-40 -3q-20 -4 -45 -6t-43 -2q4 2 8 14l2 36t5 87t5 108.5t4 100.5q6 150 -115 149q-12 0 -35.5 -5t-48 -19.5t-44 -40t-25.5 -66.5q-4 -47 -6 -120.5t-4 -133.5q-2 -37 -2 -69q0 -31 8 -23l-13 -24h3 q-2 0 -3 -3h-2q-94 -4 -165 -4h-121h-4q16 29 28.5 54.5t28.5 56.5l-2 -2q35 61 75 137t74 146q16 33 30.5 63.5t21.5 46.5q12 25 25.5 51.5t23.5 61.5q16 43 24.5 89t8.5 71q-6 35 -38 61.5t-65 26.5q-18 0 -49 -15.5t-62.5 -44t-58 -69.5t-39.5 -95q-6 -14 -11 -29.5 t-9 -27.5q-25 -74 -44.5 -129t-47 -111.5t-70.5 -126t-113 -172.5l-57 -90q-16 -27 -20.5 -42t-0.5 -27z" />
<glyph unicode="5" horiz-adv-x="1112" d="M59 707q6 -37 41 -68t76 -31q18 0 52 16.5t65 39.5q16 10 38.5 23t37.5 22q47 23 93 35t93 12q106 0 173 -67.5t73 -180.5q4 -61 -18.5 -113.5t-65.5 -90.5t-102.5 -58.5t-127.5 -18.5q-66 4 -117 31t-77 70q-33 39 -57.5 56t-53.5 17q-51 0 -79.5 -37.5t-32.5 -87.5 q-4 -61 34.5 -117.5t103 -99.5t146.5 -68.5t162 -25.5q106 0 205.5 45t176.5 124t123 185.5t46 231.5q0 98 -37 180t-101.5 141.5t-149.5 93t-183 33.5q-86 0 -147.5 -17t-124.5 -48q2 10 4 28.5t8 51.5q0 14 2 20q2 8 2 13q0 6 2 12q10 66 20.5 83t47.5 17q29 0 58.5 -1 t63.5 -3q33 -2 66 -3t66 -1q39 0 73.5 2t63.5 6h22q33 4 69 18.5t65.5 36t47 48t15.5 57.5q-4 35 -30.5 59.5t-61.5 24.5h-209q-59 0 -118.5 1t-117.5 1h-90q-16 -2 -28 -2h-21h-27q-8 0 -15 1t-11 1q-43 0 -72 -9.5t-49 -36t-33.5 -71.5t-21.5 -119q-4 -35 -8.5 -69.5 t-10.5 -75.5q-8 -47 -14 -100.5t-14 -110.5q-12 -74 -9 -106z" />
<glyph unicode="6" horiz-adv-x="1161" d="M61 627q0 -145 37 -266t106.5 -209.5t171 -137.5t230.5 -49q104 0 193.5 37t155 101.5t106.5 151.5t51 187q10 106 -17.5 196.5t-86 158t-143.5 108.5t-187 45q-14 2 -31 2h-39q-53 0 -113.5 -10t-121.5 -47q14 61 35.5 102t54.5 72t79 53.5t109 44.5q182 27 267.5 82.5 t85.5 100.5q0 37 -33 61.5t-105 20.5q-16 4 -59 -2.5t-95.5 -17.5t-104.5 -24.5t-87 -23.5q-115 -35 -201 -108.5t-143 -172t-86 -216t-29 -240.5zM352 510q0 100 66.5 156.5t163.5 56.5q121 0 191.5 -73t70.5 -208q0 -102 -61.5 -169.5t-166.5 -67.5q-57 0 -105 23.5 t-84 64.5t-55.5 96t-19.5 121z" />
<glyph unicode="7" horiz-adv-x="1118" d="M59 1223q6 -45 34 -65.5t65 -24.5q29 0 57.5 2t56.5 6q20 2 40 3t38 3h-2q102 6 201.5 9t181.5 3h2q-14 -29 -27.5 -55.5t-27.5 -54.5l2 2q-37 -66 -75 -136.5t-75 -146.5q-29 -61 -63.5 -140t-67 -157t-60.5 -144.5t-42 -103.5q-23 -59 -29 -99t-6 -63q4 -35 37 -60.5 t68 -25.5q16 0 50 19.5t70.5 50.5t67.5 70t41 80q6 16 11 31.5t11 31.5q33 96 71 202.5t84 217t102.5 222.5t128.5 216l57 86l-2 -2q23 29 20.5 49.5t-6.5 32.5q2 23 -5 46.5t-23.5 43t-46 31.5t-72.5 12h-105q-111 0 -222.5 -5t-192.5 -9q-53 -4 -86 -5t-41 1h-27 q-16 0 -29 2q-16 2 -46 -12.5t-57.5 -39t-46 -58.5t-14.5 -66zM1073 1276v2l2 -6q0 2 -2 4z" />
<glyph unicode="8" horiz-adv-x="1138" d="M59 379q6 -96 49.5 -172t112 -130t158.5 -83t192 -29q113 0 209.5 37t166 99.5t108.5 144.5t39 172q0 14 -11.5 66.5t-39 113.5t-75.5 117.5t-124 79.5l4 -2q-4 2 -6 2l-4 2q53 45 94 99t51 151q4 86 -25.5 156.5t-86 122.5t-134.5 81t-166 29q-94 0 -179 -30t-149.5 -83 t-104.5 -126t-44 -159q-2 -98 31 -164.5t111 -136.5q-92 -57 -136.5 -152.5t-40.5 -205.5zM322 440q0 37 17 72t47 62.5t69 45t84 17.5q57 2 109 -9.5t92 -39t63.5 -71.5t23.5 -107q0 -96 -69.5 -154.5t-179.5 -58.5q-53 0 -100.5 17t-82.5 50t-54 78t-19 98zM340 1032 q0 80 51 133.5t144 53.5q78 0 129 -45t51 -123q0 -74 -50.5 -123t-136.5 -54q-86 4 -136 47.5t-52 110.5z" />
<glyph unicode="9" horiz-adv-x="1138" d="M59 936q0 -111 38 -202t104.5 -153.5t160 -93t203.5 -22.5q41 6 100.5 31.5t108.5 58.5q-49 -154 -148.5 -234.5t-234.5 -80.5q-14 -2 -27.5 -3t-23.5 1q-37 4 -65.5 -1.5t-38.5 -43.5q-14 -27 -15 -70q0 -41 15 -68q20 -33 67 -53t105 -20q111 0 204 36.5t169.5 100 t135 149.5t97.5 182.5t59.5 200t20.5 201.5q0 127 -40 233.5t-108.5 184.5t-161 121t-196.5 43q-113 0 -210 -38t-168 -104.5t-111 -158t-40 -197.5zM309 946q-4 111 61.5 183.5t184.5 72.5q33 0 68.5 -9t67.5 -27.5t54.5 -47t28.5 -67.5q12 -16 15.5 -40t5.5 -48v-13 q2 -57 -21.5 -102t-60.5 -76t-82 -46t-86 -15q-104 0 -168 65.5t-68 169.5zM821 592l4 4q6 0 11 2q-6 -2 -15 -6z" />
<glyph unicode=":" horiz-adv-x="401" d="M41 178q2 -35 13.5 -66.5t31.5 -57t51 -41t74 -15.5q39 0 69.5 16.5t51 44t27 63.5t-2.5 75l2 -4q-2 6 -3 17t-3 19q-14 72 -52 97.5t-107 25.5q-78 0 -118 -51t-34 -123zM51 782q2 -76 49 -133t123 -57q39 0 71 16.5t52.5 44t27.5 63.5t-5 75v-3l-4.5 13.5t-4.5 11.5 l2 -2q-14 68 -51 97.5t-108 29.5q-68 0 -110 -45t-42 -111z" />
<glyph unicode=";" horiz-adv-x="413" d="M41 786q2 -76 46 -133t124 -57q39 0 69.5 15.5t50 42t27 60.5t-1.5 70l-4 43q-14 66 -52 90.5t-110 24.5q-68 0 -108.5 -45t-40.5 -111zM43 -170q6 -47 41 -64.5t88 -13.5q57 10 88 47t45 78q12 35 27.5 76t28 80t19.5 72.5t5 54.5q0 33 -15.5 63.5t-41 54t-57 37 t-64.5 13.5q-66 0 -111 -49.5t-43 -118.5q10 -63 49 -109q-6 -25 -12 -45t-14 -45q-14 -41 -25.5 -78t-7.5 -53z" />
<glyph unicode="&#x3c;" horiz-adv-x="1015" d="M48.5 608.5q-5.5 -35.5 14.5 -57.5q16 -41 52.5 -66.5t70.5 -38.5l-2 3q117 -49 235 -95.5t236 -91.5l-2 2q20 -10 41 -19t41 -18h-2q41 -25 84 -37q29 -10 56.5 -6t48 18.5t32 36t9.5 48.5q12 37 -10.5 65.5t-59.5 52t-79 39t-69 25.5h3q-6 4 -12.5 5t-10.5 3h2 q-12 4 -51 18.5t-88 33t-97.5 38t-78.5 31.5q20 8 55 22.5t74 30t80 31.5t77 31q37 16 69 28.5t42 16.5q4 2 9 4t9 4q23 6 51.5 16.5t51 25.5t36 36.5t7.5 50.5q6 27 -6.5 53.5t-36 45t-53 25.5t-58.5 -7l2 2q-33 -14 -64.5 -28.5t-62.5 -29.5q-29 -10 -62.5 -25.5 t-62.5 -25.5q-49 -20 -98 -39.5t-100 -38.5q-45 -16 -92.5 -35.5t-92.5 -37.5l2 2q-41 -16 -68.5 -37t-51.5 -55q-14 -20 -19.5 -55.5z" />
<glyph unicode="=" horiz-adv-x="1071" d="M59 727v4q4 -39 36 -64.5t77 -25.5q20 0 34.5 1t29.5 1q16 2 32 2h45h258q45 0 87 -1t85 -1h82h64t60.5 7t46 24.5t20.5 50.5q14 31 10 64.5t-14 50.5l2 -2q-10 18 -36 28.5t-42 10.5q-41 0 -78 -1.5t-61 -3.5q-14 0 -23.5 -1t-17.5 -1h-90h-93q-43 0 -88 2q-47 0 -91 1 t-89 1h-53q-59 0 -97 -17t-60.5 -40.5t-30 -48.5t-5.5 -41zM67.5 438.5q-4.5 -16.5 0.5 -26.5q14 -82 114 -82h41t41 2q29 2 61.5 3t80.5 1q23 0 61.5 -1t62.5 -1q35 -2 72 -2h74h131q45 0 78 3t57.5 13t40.5 30.5t29 55.5q10 16 13 34.5t3 23.5v8q-4 35 -20.5 43t-38.5 12 h2q-4 2 -10.5 3t-10.5 3q-57 0 -94 -1t-65 -1h-142q-45 0 -88 1t-84 1h-151q-12 2 -23 2h-16q-92 0 -137.5 -15.5t-67.5 -78.5q-10 -14 -14.5 -30.5z" />
<glyph unicode="&#x3e;" horiz-adv-x="1003" d="M59 295q0 -27 11.5 -50.5t31 -39t45 -21.5t52 4.5t49 19.5t39.5 19h-2q20 8 39.5 16.5t40.5 18.5q117 45 232.5 90t236.5 94q33 14 72.5 40t54.5 69q12 27 6.5 57.5t-13.5 46.5q-29 37 -55.5 58.5t-64.5 38.5q-27 10 -56.5 21t-56.5 22q-68 27 -135.5 52.5t-134.5 53.5 q-33 12 -64 25.5t-61 25.5q-31 14 -62 27.5t-59 28.5q-29 12 -55.5 5t-46 -25.5t-32 -44t-12.5 -50.5q-10 -35 9.5 -60.5t54.5 -45t75 -34t68 -22.5q10 -4 15.5 -6t9.5 -4q8 -4 30.5 -12t49.5 -19q29 -12 61.5 -25.5t64 -25.5t60.5 -24.5t49 -20.5q-29 -10 -78 -29.5 t-97 -38t-88 -34t-50 -19.5q-12 -6 -29 -10q-25 -8 -62.5 -23.5t-71.5 -37t-55.5 -50t-15.5 -61.5z" />
<glyph unicode="?" horiz-adv-x="937" d="M55 1190q0 -43 5.5 -82t9.5 -51q6 -35 30.5 -58.5t57.5 -27.5h-2q29 -6 44 -1t22 17t8 30.5t-1 41.5q-2 16 -2 33q0 18 9 30q27 59 86 81t122 16q82 -8 136.5 -61.5t54.5 -125.5q0 -35 -17.5 -64.5t-46 -57t-64.5 -53.5t-73 -50q-47 -33 -89 -64.5t-69 -70.5 q-20 -18 -29 -40t-11.5 -44.5t-1 -45t3.5 -42.5q2 -10 2 -17v-10q0 -41 12 -61.5t29.5 -28.5t37.5 -8h43h21q45 0 68.5 10t33 28.5t9.5 45.5q0 29 -5 63l3 -2v21q6 27 25.5 45t72.5 57l-2 -2q16 12 38.5 27.5t47.5 33.5q209 154 223 340l-78 2q-2 39 -5 85.5t-4 83t2 58 t15 13.5q-59 82 -154 126t-206 44q-18 0 -33.5 -1t-30.5 -1q-55 -8 -100 -18.5t-84 -27.5t-73.5 -45t-67.5 -71q-12 -16 -17.5 -42.5t-5.5 -57.5zM247 170q-7 -35 1 -70q16 -53 62 -84.5t93 -31.5q63 0 104.5 46t39.5 105q0 27 -8 43v-4q-12 53 -53.5 86t-98.5 33 q-37 0 -66.5 -16.5t-48 -44t-25.5 -62.5z" />
<glyph unicode="@" horiz-adv-x="1280" d="M63 637q0 -117 43.5 -218.5t125 -176t199.5 -118.5t267 -44q59 0 131 10t141.5 30.5t132 51.5t103.5 72l4 4q27 35 23 66.5t-26.5 48t-57.5 13.5t-70 -36q-25 -25 -69.5 -43t-96 -31.5t-104.5 -19.5t-96 -6q-121 0 -210 32.5t-147.5 89t-86 132t-27.5 161.5 q0 94 28.5 174t80.5 137.5t126 90.5t162 33q123 0 215 -49.5t139 -145.5l-2 6q18 -49 32.5 -99t14.5 -104q0 -33 -10 -73q-12 -37 -28.5 -58.5t-30.5 -21.5q-20 0 -35.5 10t-15.5 16v-2q-2 6 -3 17q-2 6 -2 10v68v77q0 23 5 45q0 14 2 33t4 53q4 59 -16.5 89t-80.5 26 q-4 -2 -8 -2q-12 0 -27.5 -3t-25.5 -13q-23 -12 -29 -33q-27 10 -53.5 16t-60.5 6q-70 0 -127.5 -23.5t-99.5 -64.5t-64.5 -95t-22.5 -116q0 -61 24.5 -111t65.5 -85t96.5 -54.5t116.5 -15.5q37 4 77 15.5t75 31.5q29 -35 76 -54t106 -19q74 0 146.5 44t107.5 152 q10 33 15.5 70t5.5 76q0 61 -12.5 127.5t-41 134t-79 123t-118 94.5t-147.5 60.5t-166 21.5q-123 0 -230.5 -49.5t-188 -134.5t-128 -200.5t-47.5 -248.5zM485 664q0 68 34 105.5t97 37.5q55 0 82 -34t27 -89q0 -59 -31.5 -96t-97.5 -37q-47 0 -79 31.5t-32 81.5z" />
<glyph unicode="A" horiz-adv-x="1294" d="M25 94q0 -53 33.5 -82.5t72.5 -29.5q47 0 86 37.5t68.5 92t52 115t37.5 105.5q8 8 18 35q2 6 6 10t13.5 8t28 7t51.5 7q23 2 47 3t53 1q35 0 70.5 -1t70.5 -3q41 -2 77 -3t62 -1q12 0 17.5 -16.5t9.5 -36.5q2 -6 6 -20.5t6 -18.5q23 -68 44.5 -126t45 -101t51 -67.5 t60.5 -24.5q14 0 41 14t51.5 34.5t42 42t13.5 38.5l4 -9q-4 20 -21.5 68.5t-40.5 97.5q-10 27 -19 51.5t-16 43.5q-68 215 -136 424.5t-136 420.5q-12 29 -14 52q-8 33 -17.5 65.5t-25 59t-41 43t-64.5 16.5q-29 0 -74 -20.5t-79 -51.5q-29 -25 -62 -83t-67.5 -136 t-71.5 -168t-74 -178q-23 -57 -43 -110.5t-41 -100.5l-24 -51q-27 -66 -49.5 -124t-38.5 -118v2q-14 -33 -24.5 -58.5t-21.5 -47.5l3 2q-16 -33 -25.5 -59.5t-15.5 -49.5zM502 631q12 31 20 52.5t17.5 40.5t19.5 41.5t25 53.5q23 47 45 98.5t45 104.5q16 -51 34.5 -102.5 t34.5 -104.5q16 -47 30.5 -91t31.5 -91q-35 -4 -70 -4h-61q-20 0 -39 1t-37 1h-96z" />
<glyph unicode="B" horiz-adv-x="1259" d="M63 1241q16 -41 39 -57.5t43 -26.5q12 -8 11 -10q-2 -14 -2 -31q0 -16 -2 -29q0 -12 -1 -28.5t-1 -28.5q-6 -100 -10.5 -232t-4.5 -255v-150q0 -72 5 -134t20.5 -111.5t46.5 -83t82 -46.5q76 -18 164 -30q61 -8 125 -8q28 0 55 2q106 6 207.5 37.5t181.5 87t131 133 t55 176.5l-34 -33q6 10 10 38q3 22 3 50v15q-1 36 -11 75t-33 72q-43 59 -112.5 102t-156.5 66h-4q66 49 110 113.5t54 146.5v-2q3 21 3 41q-1 56 -21 106q-28 68 -83.5 120t-135.5 85t-174 39q-31 0 -85.5 -4t-118 -15.5t-129 -28t-117.5 -40.5t-84 -54q-27 -26 -27 -55 q0 -6 1 -12zM408 477q0 47 3 79t9 54q25 0 38 2t39.5 6.5t52 6.5t48.5 2q57 0 116.5 -15.5t107.5 -47.5t78 -80t30 -115q-27 -72 -107 -110t-186 -42q-34 -2 -63 -2q-37 0 -66 3q-53 5 -90 22q-4 49 -7 112.5t-3 124.5zM412 881v28q0 43 3 88t7 86q6 63 6 111 q23 14 62.5 22.5t93.5 8.5q76 0 131 -38t55 -97q0 -10 -2 -29t-9 -41.5t-19.5 -45t-33 -41t-50 -34.5t-63.5 -28.5t-71 -18.5q-22 -4 -43 -4q-14 0 -26 2q-20 0 -39 6q-2 12 -2 25z" />
<glyph unicode="C" horiz-adv-x="1202" d="M61 614q10 -131 58.5 -245.5t125.5 -200.5t178 -135t216 -49q135 0 254 57t203 170q6 12 17 36.5t21.5 53.5t15.5 55.5t1 44.5l2 -4q-4 35 -38 61q-30 23 -63 24q-5 0 -10 -1q-47 -4 -78.5 -41t-60.5 -75q-12 -16 -21.5 -29.5t-17.5 -22.5q-43 -37 -82 -53t-92 -20 q-13 -1 -26 -1q-59 1 -110 23q-62 28 -109.5 82.5t-76 135.5t-36.5 184q-1 17 -1 33q1 80 17 155q20 90 57 159.5t93.5 114.5t128.5 52q25 2 60.5 -1t71.5 -10.5t63.5 -17.5t37.5 -21q25 -23 34 -63.5t13 -65.5l9 -27l6 -16l-4 5q27 -35 77 -35q45 0 76 18.5t49.5 48 t26.5 67.5t8 75q0 84 -61.5 140t-144.5 90t-169 47q-75 11 -121 11h-14q-129 -6 -235.5 -72.5t-183 -175t-121 -254t-44.5 -307.5z" />
<glyph unicode="D" horiz-adv-x="1306" d="M63 1253q10 -45 28 -61t34 -27q16 -8 16 -41l-22 -317q-2 -29 -2 -84q0 -53 -2 -113q0 -57 -1 -110.5t-3 -87.5q0 -27 -1 -50.5t-1 -44.5q0 -86 5 -133t16 -72.5t28.5 -34.5t42.5 -18q10 -4 22.5 -8t26.5 -14q59 -29 144 -43t163 -14q152 0 280 53t221 150.5t145 232.5 t52 299q0 121 -36.5 234.5t-109.5 203.5t-179.5 152.5t-243.5 83.5l4 -3q-66 16 -136.5 21.5t-158.5 5.5q-68 0 -131 -7t-110.5 -25.5t-71.5 -49.5q-20 -25 -20 -60q0 -9 1 -18zM381 541v182q0 166 5 280.5t13 170.5q16 2 35 2h35q66 0 133.5 -9.5t106.5 -38.5 q133 -33 207.5 -137t78.5 -262v-16q-1 -105 -25 -192q-26 -93 -80 -160.5t-132 -104.5t-176 -37q-61 0 -108.5 13.5t-84.5 35.5q-4 59 -6 122t-2 151z" />
<glyph unicode="E" horiz-adv-x="1110" d="M59 1272q4 -18 12.5 -34.5t20.5 -33.5q16 -18 30 -44q13 -23 13 -62v-11q0 -35 -4 -75.5t-8 -85.5q-4 -53 -8 -105.5t-4 -107.5v-39q0 -10 1 -18.5t1 -18.5v-70q0 -137 4 -234t18.5 -163t43 -104.5t77.5 -58t123 -26t176 -6.5q125 0 225.5 13.5t168 40t97.5 67.5 q19 27 19 59q0 18 -6 38l2 -5q-8 37 -32.5 58.5t-70.5 21.5q-14 0 -30 -4l4 2q-104 -25 -201.5 -35t-193.5 -12q-49 0 -83 5t-51 18q-8 41 -13 125t-5 176v30t2 29q29 20 99.5 24.5t193.5 10.5q35 2 68.5 5t64.5 13h35q53 19 87 59q30 36 30 72v9q-4 39 -34 62.5t-89 23.5 q-43 0 -114 -4.5t-148 -12.5q-51 -4 -98.5 -8t-88.5 -8q-6 29 -8 60.5t-2 64.5q0 57 6 111.5t10 82.5q20 10 52 15.5t67 8.5t71 4t66 1h62q10 0 22.5 -1t22.5 -1q17 -1 34 -1q33 0 65 3q48 4 77 27q32 18 50 52q14 26 14 49q0 7 -1 13v-2q-6 68 -74.5 86.5t-197.5 18.5h-37 q-59 0 -119.5 -3t-118 -8.5t-109.5 -12.5t-91 -15l-26 -4q-25 -4 -44 -8l-20 -5q-29 -4 -49.5 -10t-32.5 -17t-18 -31q-5 -16 -5 -39v-15z" />
<glyph unicode="F" horiz-adv-x="946" d="M57 1270q2 -16 7.5 -36t13.5 -42v-2q8 -25 13 -58.5t7 -62.5q-2 -29 -2 -59q0 -29 -2 -60q-6 -160 -6 -334q0 -158 4 -303t17 -237q4 -43 32.5 -74t73.5 -31q4 0 8 -1t8 -1q15 -2 32 -2q13 0 27 1q32 3 48 26q33 20 47 51t14 64q0 20 -5 42.5t-9 45.5l2 -4q-2 10 -3 19 t-3 17v-2q-12 92 -15.5 163t-3.5 134v47q0 23 5 39q25 10 50 13.5t50 3.5h102q23 0 46.5 1t46.5 1h57q33 4 64.5 17t56 33.5t38 48.5t11.5 58q-10 41 -49 62.5t-144 21.5q-39 0 -78.5 -2t-80.5 -6q-18 -2 -37 -2q-18 0 -37 -2q-8 -2 -25 -2q-8 0 -15 -1t-13 -1 q-10 0 -24.5 -1t-23.5 -1q-2 18 -1 25.5t1 35.5q0 61 2.5 130t10.5 122q41 10 92 13.5t102 3.5h68q80 0 144.5 2t95.5 28q35 20 51 54q14 30 14 56v7v2q-10 55 -90 77t-223 22q-98 0 -208 -9.5t-198 -19.5h-26q-2 0 -2 -2h-2q-66 -10 -106 -42q-32 -26 -32 -66q0 -10 2 -21z " />
<glyph unicode="G" horiz-adv-x="1320" d="M66 647q0 -158 46 -282.5t126.5 -211.5t194.5 -133.5t249 -46.5q104 0 202.5 35t176.5 100.5t129 159.5t61 215l-2 -6q20 90 21 148q0 55 -16.5 89t-43 52t-57.5 25.5t-59 7.5q-53 -4 -119 -5t-129 -1h-78q-35 0 -61 4q-49 -2 -76 -20.5t-39 -43t-13 -52.5t3 -48 q2 -20 15 -37.5t32.5 -30t42 -17.5t47.5 -1h-2q37 6 74 6q20 0 38.5 -1t38.5 -1q14 -2 31 -2h33h31q-8 8 9 4l34 -8l-7 -19q-6 -66 -34.5 -121t-75.5 -95t-108.5 -62.5t-135.5 -22.5q-141 14 -228 127t-87 312q0 98 28.5 193t78.5 172t118 127t147 56q41 0 89.5 -3t89.5 -11 t70.5 -23.5t33.5 -39.5q6 -16 5 -18.5t1 -8.5q2 -18 6 -36.5t15.5 -33t33 -24.5t62.5 -13h-2q14 -2 30.5 10.5t33 33t29.5 44t20 46.5q6 28 6 53q0 55 -29 96q-43 62 -122 99.5t-180 54.5q-90 14 -177 14h-21q-154 -10 -271.5 -87t-197.5 -191.5t-120.5 -253t-40.5 -273.5z " />
<glyph unicode="H" horiz-adv-x="1261" d="M63 506q0 -66 1.5 -129.5t3.5 -120.5t5 -106.5t9 -83.5q6 -39 33.5 -64t68.5 -25q16 0 48 15.5t62 43t47 65.5q10 22 10 46q0 17 -5 35l2 -6q-2 16 -2 37q0 20 -2 37q-4 47 -6 95t-2 99q0 12 -1 28.5t-1 35.5v82q86 8 157.5 10t147.5 2q35 0 67.5 -1t67.5 -1h125v-6 q0 -10 -1 -22.5t-1 -22.5q4 -160 9 -268.5t18.5 -174t37 -94t66.5 -28.5q2 0 9 -1t14 -1q23 -4 44 -2t29 18q47 25 60.5 63.5t13.5 85.5q0 23 -2 42.5t-4 35.5q-12 61 -17.5 134t-5.5 159v109q0 236 6.5 371t13.5 202.5t13 83.5t6 19l4 14q1 6 1 12q1 33 -19 53 q-22 24 -51 33q-25 10 -59.5 9t-59.5 -11q-47 -10 -70.5 -30.5t-33 -46t-8.5 -55.5t6 -58q4 -16 5 -20.5t-1 -14.5q0 -100 -5.5 -184t-9.5 -150v-10h-215q-96 0 -186 -2t-172 -8q0 16 1 27t1 20q0 10 1 21t1 28q4 94 9 181t11 153q2 6 1 23.5t-3 34.5t-4 31.5t-2 16.5 q-6 10 -20.5 23.5t-35.5 22.5q-22 10 -52 12h-11q-25 0 -55 -9q-66 -18 -84 -70.5t-18 -115.5q0 -16 1 -30.5t1 -31.5q2 -10 2 -32v-33q-6 -111 -10.5 -219.5t-4.5 -224.5v-156z" />
<glyph unicode="I" horiz-adv-x="557" d="M45 1278q4 -39 18.5 -64.5t28.5 -42.5q8 -10 16.5 -19t12.5 -26l-2 2q2 -10 2 -20q0 -8 2 -18q2 -8 2 -17v-10q-6 -113 -10 -229.5t-4 -229.5q0 -164 4 -256t18 -155q0 -23 -22 -46q-20 -25 -38 -52q-13 -20 -13 -46q0 -9 1 -18q8 -37 59.5 -51.5t106.5 -14.5 q23 0 46.5 1t37.5 3q8 0 13.5 1t9.5 1q31 2 67.5 7.5t67.5 15.5t49 32q12 14 11 35q0 11 -3 23v-2q-4 33 -26 55t-51 45q-18 14 -36 31.5t-18 34.5q-4 27 -5 70.5t-3 99t-2 117.5v124v60q0 98 4 198.5t12 196.5q14 23 27.5 40t28.5 36q27 35 45 66.5t18 52.5 q-6 37 -32.5 59.5t-61.5 33.5t-72 13q-18 1 -34.5 1t-30.5 -1q-133 -11 -191 -37q-54 -25 -53 -91v-9z" />
<glyph unicode="J" horiz-adv-x="960" d="M55 281q8 -74 51.5 -135.5t103.5 -104.5t131 -67.5t134 -24.5q43 0 84 17.5t79 44t69.5 60t54.5 68.5q59 98 80.5 229.5t21.5 295.5v192v80t-4 80q-2 16 -2 28v29q0 90 13.5 132t27.5 65q10 18 17 34q5 10 5 24q0 7 -1 15q-4 25 -27 40.5t-54.5 24.5t-64.5 12t-57 5h-8 q-14 1 -29 1q-30 0 -62 -3q-47 -4 -85.5 -19t-64.5 -40q-24 -23 -24 -56v-5q-8 -41 14.5 -55.5t57.5 -28.5h-2q12 -6 25.5 -12.5t24.5 -16.5t16.5 -26.5t1.5 -41.5q4 -72 7 -149.5t3 -155.5q0 -35 -1 -67.5t-1 -65.5q0 -35 -1 -68.5t-1 -64.5q0 -88 -4 -150.5t-17.5 -104.5 t-37 -65.5t-62.5 -29.5q-2 -2 2 -4q-66 10 -114 58t-64 97q-14 41 -41 64.5t-64 23.5t-51 -13t-24 -36q-6 -10 -13.5 -19.5t-23.5 -23.5q-10 -20 -13.5 -35.5t-5.5 -31.5z" />
<glyph unicode="K" horiz-adv-x="1171" d="M61 575q0 -158 8.5 -296t18.5 -216q4 -35 27.5 -60.5t58.5 -29.5l-4 2q20 -6 51 3.5t60.5 33t51 59t21.5 83.5v18t-2 21q-4 16 -4 26q-10 74 -12 146.5t-4 158.5v25q98 -111 198.5 -214.5t189.5 -185t161.5 -131t117.5 -49.5q25 0 48.5 16.5t42.5 40.5q18 24 28 50 q7 19 7 36q0 7 -1 13q-6 33 -45 65.5t-86 67.5q-20 12 -39.5 26.5t-38.5 30.5q-66 55 -127 113.5t-115.5 112t-97.5 98.5t-69 76q18 23 56 62.5t87 91t106.5 108.5t116.5 117q70 68 107 112.5t37 73.5q0 25 -13.5 48.5t-34 43t-45 31.5t-44.5 12q-41 0 -78 -41 q-51 -55 -117 -125.5t-130.5 -138.5t-122.5 -126t-97 -89q0 39 3 90t6 103.5t7 100.5t8 83q4 20 4 24q0 6 -4 27q2 -2 2 -4q0 12 -3 29.5t-15 33t-37.5 27.5t-71.5 14h-9q-46 1 -74 -19q-30 -22 -47 -51.5t-23 -62.5t-6 -51q-2 -61 -4 -142t-4.5 -170t-3.5 -180.5t-1 -171.5 z" />
<glyph unicode="L" horiz-adv-x="1001" d="M57 362q0 -82 7.5 -145t31 -109.5t67.5 -75t116 -40.5q29 -4 62.5 -7t74.5 -3q16 0 33.5 1t35.5 1q109 4 202 13t157.5 27.5t95.5 51.5q22 23 22 56q0 14 -4 30v-6q-4 39 -31.5 65.5t-68.5 26.5h-2q-10 4 -18.5 5t-20.5 -3h4q-94 -12 -156.5 -14.5t-115.5 -4.5 q-16 0 -34.5 -1t-35.5 -1q-17 -1 -32 -1q-64 0 -103 20q-4 43 -5 89t-1 107v97q0 86 2 177t6 182t9 177t14 162q0 14 4 35q2 10 3 19.5t1 19.5l-2 -4q0 14 -16.5 36.5t-45 41t-66.5 28.5q-19 5 -38 5t-39 -5q-10 -6 -25.5 -15t-30 -23.5t-24.5 -34t-10 -44.5q0 -16 -1 -31.5 t-1 -31.5q-2 -74 -5 -163t-5 -180t-4.5 -175t-2.5 -146q0 -25 -1 -47t-1 -45q0 -33 -1 -61.5t-1 -55.5z" />
<glyph unicode="M" horiz-adv-x="1546" d="M72 84q0 -18 1 -33.5t6 -27t17.5 -21.5t34.5 -18q10 -2 20 -2q17 0 33 5q28 9 53 26.5t45.5 38t30.5 34.5h2q10 16 15.5 60t5.5 98q0 31 -1 68.5t-3 66.5t-2 59q0 33 2 45q2 14 3 33t3 41q2 39 6 84t9 91t9.5 90t10.5 83q10 -18 11 -22t1 -6v-9q0 -6 8 -30v2 q6 -23 11.5 -42.5t11.5 -35.5l55 -166q27 -82 53.5 -164t55.5 -164q2 -6 2 -14t4 -16q10 -31 24.5 -72t36 -77t50 -60.5t69.5 -24.5q45 0 78 22.5t54.5 56.5t35.5 74t24 76q-2 -2 3.5 14.5t9.5 24.5q14 51 27.5 96.5t29.5 94.5q23 74 46.5 150.5t47.5 152.5q12 35 24.5 71.5 t24.5 73.5q0 -12 3 -16q14 -94 26 -171t20.5 -160t11.5 -185.5t3 -245.5q0 -25 7 -51.5t22.5 -49t40 -36.5t57.5 -14q37 0 60.5 24.5t35.5 60t17.5 77.5t9.5 77q2 14 2 25q0 12 2 22v6q-8 176 -19.5 361.5t-46.5 370.5q4 -10 1 3t-5 23q-4 31 -12 78t-17.5 94t-18.5 87 t-17 52q-16 29 -32.5 44.5t-51.5 25.5q-33 9 -62 9q-66 0 -115 -44q-71 -64 -100 -180q-6 -25 -12 -50.5t-12 -49.5q-10 -31 -19.5 -66t-17.5 -67q-33 -115 -70 -241t-84 -241q-8 18 -11 25.5t-4 12.5t-2 12.5t-7 29.5q-8 27 -15.5 50.5t-11.5 33.5v-2q-29 90 -55.5 178 t-55.5 181l-88 278q-10 31 -26.5 58.5t-41 48t-54.5 28.5q-15 4 -32.5 4t-35.5 -4q-23 -4 -52.5 -13t-57 -24.5t-48 -41t-22.5 -64.5q-4 -92 -15.5 -183.5t-23.5 -181.5q-6 -63 -10.5 -136t-6.5 -140q-2 -61 -4 -128t-12 -132q-4 -25 -6 -63t-4 -77.5t-3 -75.5t-1 -59v-14z " />
<glyph unicode="N" horiz-adv-x="1296" d="M63 94q0 -47 33 -79.5t80 -32.5q27 0 57.5 23.5t54.5 56.5q24 34 40 74q12 32 13 60q0 7 -1 15q-6 53 -9 128t-3 181v242v86q0 49 4 90v-2h2q51 -82 107.5 -172t114.5 -180t116.5 -176t112 -159t98.5 -129.5t78 -86.5q18 -10 34 -10q20 -6 59.5 -4.5t77 14t66.5 36 t31 62.5q18 33 18 70v4q-8 72 -12 158t-4 188v92q0 80 2 174t6 180q4 78 6 150t2 129q0 80 -22.5 112.5t-67.5 34.5q-15 4 -32 4q-15 0 -31 -3q-34 -7 -66 -26q-32 -20 -52 -48q-16 -23 -16 -51q0 -7 1 -13q12 -137 14 -283.5t2 -316.5v-137q0 -51 1 -80t3 -49 q-55 66 -119.5 157t-133.5 195.5t-138.5 217t-130.5 220.5q-43 74 -80 117t-72 62.5t-69 20.5h-6q-30 0 -60 -9q-49 -14 -75.5 -48t-26.5 -75q0 -16 1 -31.5t1 -32.5q2 -45 3 -96t2 -117.5t2 -154.5t1 -207q0 -164 -5 -296t-9 -200q-2 -14 -3 -30v-19z" />
<glyph unicode="O" d="M66 662q0 -145 46 -272.5t126.5 -220.5t190.5 -146.5t237 -53.5q135 0 250.5 59.5t202.5 162t138.5 242.5t55.5 302l-2 -8q2 10 -1 50t-10.5 91.5t-18.5 106.5t-26 96q-31 84 -86 152.5t-126.5 117t-156.5 75t-179 26.5q-133 0 -249 -60.5t-204 -166t-138 -248 t-50 -305.5zM317 698q0 111 27 204t76 159.5t116.5 104.5t151.5 38q113 0 197 -46t133 -175q14 -39 22.5 -99t12.5 -126q1 -16 1 -32q0 -98 -22 -182q-24 -98 -73.5 -170.5t-119 -113.5t-155.5 -41q-84 0 -151.5 38t-114.5 102.5t-74 151.5t-27 187z" />
<glyph unicode="P" horiz-adv-x="1157" d="M63 1219q4 -33 26 -43.5t46 -14.5l-2 2q4 -2 8 -3t4 1q4 -4 5.5 -11t-0.5 -26q-4 -63 -8.5 -144t-7.5 -166t-5 -168t-2 -148v-60q0 -117 3 -208t22 -147q18 -57 58 -75q16 -7 38 -7q33 0 78 17q52 24 70 54q14 25 15 67q0 10 -1 21q-6 59 -8.5 106t-4.5 101v41 q0 27 -2 49q0 6 -1 12t-1 10q-2 18 6.5 21.5t53.5 5.5h30t33 2h-2q131 6 240.5 48t188.5 111.5t123 159t44 191.5q0 98 -41 179t-117 137q-76 58 -182 86q-93 25 -204 24h-31q-80 -4 -167 -16.5t-158 -39t-114 -67.5q-35 -33 -35 -80q0 -10 2 -22zM401 735q-1 16 -1 36.5 t1 44.5q2 48 5.5 105.5t7.5 117t8 112.5q2 16 2 31v28q27 8 65.5 11.5t85.5 3.5q125 0 200 -64q68 -58 68 -150q0 -10 -1 -20q-6 -57 -36 -104t-78 -81t-112.5 -52.5t-138.5 -18.5h-53h-23z" />
<glyph unicode="Q" horiz-adv-x="1372" d="M72 662q0 -145 46 -272.5t127 -220.5t190.5 -146.5t236.5 -53.5q111 0 215 43q39 -55 76.5 -106t69.5 -91t55.5 -67t37.5 -35q4 -2 9.5 -5t9.5 -5h-2q57 -27 108 -27q72 0 137.5 42t112.5 126l-2 -4q29 37 29 76q0 51 -41 83q-33 26 -69 26q-10 0 -19 -2 q-16 -6 -34.5 -16.5t-37.5 -20.5q-29 -16 -57.5 -29.5t-40.5 -9.5q-6 8 -21.5 27.5t-35 46t-42 58.5t-43.5 66q104 104 165 255t67 335l-2 -8q2 10 -1 50t-10.5 91.5t-18.5 106.5t-25 96q-31 84 -86.5 152.5t-127 117t-157.5 75t-180 26.5q-131 0 -248 -60.5t-204 -166 t-137 -248t-50 -305.5zM324 698q0 111 26.5 204t75.5 159.5t116.5 104.5t151.5 38q113 0 201 -54t135 -177q16 -37 20.5 -93t8.5 -122v-30q0 -106 -25 -198q-28 -104 -84 -176q-18 31 -51 72t-65.5 79t-60.5 69.5t-40 43.5q-45 47 -96 48q-43 0 -72.5 -33t-29.5 -82 q0 -70 59 -141q12 -4 52 -58.5t93 -128.5q-12 -2 -23 -3t-26 -1q-84 0 -151.5 38t-114.5 102.5t-73.5 151.5t-26.5 187z" />
<glyph unicode="R" horiz-adv-x="1245" d="M63 1270q4 -51 30 -71.5t48 -33.5h2l2 -4q6 -14 5 -24q-2 -23 -3.5 -50.5t-3.5 -56.5q-2 -57 -5 -120.5l-6 -127t-5 -120t-2 -97.5v-55q0 -57 1 -118.5t3 -119t7 -107.5t16 -87l-2 4q8 -47 34.5 -70.5t67.5 -23.5q35 0 66.5 19.5t53.5 52.5q22 32 34 76q8 29 8 59 q0 16 -2 32q-10 57 -12.5 111.5t-2.5 101.5v56q33 -25 81 -63t102.5 -82t112 -93t110.5 -96q2 0 6 -4t8 -6v-2q23 -23 52.5 -49.5t61.5 -50t62.5 -40t55.5 -16.5t51 15.5t46.5 38t33 46t12.5 39.5l2 -6q0 2 -1 4t-1 4l-2 4q0 2 -2 6l2 -6q-16 31 -76.5 85.5t-140.5 123.5 q-59 51 -130 113.5t-141 128.5h3h2q4 0 14 4q41 16 88 35.5t100 54.5v-2q82 53 134.5 122.5t66.5 158.5q4 31 4 60q0 70 -24 130q-34 86 -108.5 147.5t-188 94t-258.5 32.5q-74 0 -158 -9t-154.5 -28.5t-116 -49t-43.5 -70.5zM403 770l5 27q4 35 6 90t4 149q2 43 3 80t5 72 q33 6 79 9t91 3q51 0 98 -19.5t81 -50.5q33 -30 49 -70q8 -22 9 -44q0 -18 -6 -37l-2 -6q-6 -49 -38.5 -87t-85 -63.5t-119 -40t-140.5 -14.5h-20q-8 0 -19 2z" />
<glyph unicode="S" horiz-adv-x="1191" d="M61 262q0 -68 43 -122t113 -93t159 -57q67 -14 135 -14q22 0 44 1q59 2 119.5 9.5t120 25t116 50t105.5 90.5q27 18 48 52t37.5 73.5t27 80.5t14.5 72q2 18 2 35q-1 61 -23 115q-28 68 -88.5 122t-145.5 89.5t-188 54.5q-23 6 -45 11t-45 9l2 -2q-25 6 -48 11.5t-46 9.5 q-80 23 -121 52.5t-51 70.5h2q-3 12 -3 24q-1 22 9 42q14 32 44 56.5t74 40t97 17.5q25 2 60 -1t68.5 -10.5t57 -22.5t23.5 -38q4 -10 3 -19.5t-1 -19.5q0 -12 -2 -21t1 -16.5t11.5 -13.5t30.5 -12q18 2 49 18.5t58.5 39t49 50t21.5 54.5q12 23 1 46t-21 46q-4 6 -4 8t-4 8 q-25 41 -65 66.5t-85 40t-91 19.5t-83 5q-104 0 -211.5 -33.5t-191.5 -95t-132 -145.5q-37 -64 -38 -138q0 -23 4 -47q20 -137 133 -215.5t321 -119.5q55 -10 112.5 -25.5t107 -37t84 -50.5t45.5 -68q1 -8 1 -17q0 -41 -25 -77q-30 -43 -83 -74q-52 -30 -120 -46 q-54 -12 -109 -11h-29q-76 4 -141.5 35t-95.5 94q-8 31 -40 47.5t-53 16.5q-33 0 -56.5 -13.5t-38.5 -35t-22.5 -47t-7.5 -50.5z" />
<glyph unicode="T" horiz-adv-x="1241" d="M63 1241q6 -33 22.5 -50t39 -25.5t47.5 -9.5t45 -1q66 0 128.5 1t123.5 3q12 0 14 -6t0 -16v-13q0 -27 -1 -51t-3 -51q-6 -164 -6 -324v-106q0 -29 -1 -60.5t-1 -64.5q0 -102 6 -200.5t23 -176.5q8 -37 30.5 -66.5t71.5 -29.5q37 0 72 24.5t57 47.5q41 40 44 70q1 7 1 15 q0 26 -8 62v-2q-8 55 -13 125t-7.5 141.5t-2.5 138.5v127q0 61 2.5 124t4.5 122q2 31 2 62q0 33 2 63v25q-4 25 6 30h63q16 0 35 -1t37 -1q51 0 103.5 6.5t94.5 25t69.5 51t27.5 87.5q2 53 -40 73t-99 20q-31 0 -56.5 -2.5t-48.5 -6.5h2q-12 -2 -21 -3t-16 -1 q-51 -2 -107 -3t-106 -5q-86 -4 -167.5 -8t-167.5 -4q-25 0 -56 6q-25 4 -49 7t-49 -1q-20 -4 -47 -21.5t-50 -41.5q-24 -24 -40 -52q-12 -23 -12 -43q0 -5 1 -10z" />
<glyph unicode="U" horiz-adv-x="1290" d="M63 682q0 -102 8.5 -183t28 -145.5t50 -117t75.5 -99.5q156 -162 414 -162q291 0 428 195t145 588q0 29 1 56.5t1 57.5q2 102 5.5 208t21.5 184v6q1 9 0 17q1 45 -17 79q-22 41 -69 53h2q-25 8 -50 8q-13 0 -25 -2q-38 -6 -70 -27q-32 -20 -50 -54q-15 -28 -15 -61 q0 -7 1 -15q4 -25 4 -47v-43q0 -152 -8 -296.5t-18 -273.5q-16 -182 -85 -290.5t-200 -108.5q-113 0 -190.5 69.5t-96.5 184.5q-12 88 -12 211q0 53 2 132t5 164t7 164.5t9 137.5q4 12 5 18t-3 17q-8 49 -35 77.5t-68 32.5q-27 4 -59.5 -8t-62 -36.5t-49 -57.5t-19.5 -70 q2 -12 2 -26v-25v-57q0 -131 -6 -256q-2 -53 -4.5 -104.5t-2.5 -94.5z" />
<glyph unicode="V" horiz-adv-x="1228" d="M27 1294q10 -66 37.5 -139.5t56.5 -142.5q12 -35 25.5 -70t23.5 -65v2q43 -133 85 -257t81 -229.5t73.5 -189.5t63.5 -135h-2q45 -86 129 -86q39 0 70.5 20.5t58.5 54t48.5 75.5t37.5 83q14 33 31.5 84t38 112.5t43 130t45.5 140.5q33 102 65.5 202.5t61.5 186.5v-2 q10 29 24.5 64.5t30.5 68.5q19 49 35 88q12 31 13 52q0 5 -1 10q-6 31 -31.5 57.5t-56.5 30.5q-14 0 -43 -5t-58.5 -17.5t-56 -35t-38.5 -59.5q-51 -111 -78 -200t-43 -156q-8 -27 -13.5 -49.5t-11.5 -45.5q-14 -41 -26.5 -80.5t-24.5 -80.5q-23 -78 -47.5 -154t-57.5 -162 q-2 -2 -1 -3t-1 -3q-12 18 -40.5 96t-65.5 187.5t-80 239.5t-84 255l-25 70q-4 10 -7 20.5t-5 20.5q-16 49 -32.5 89t-59.5 52h2q-10 4 -44 -1t-68.5 -20.5t-59.5 -41.5q-20 -20 -20 -46q0 -8 2 -16z" />
<glyph unicode="W" horiz-adv-x="1884" d="M49 1268q25 -51 37 -109l-2 2q4 -14 7 -26.5t7 -24.5q18 -74 40 -158t40 -159q49 -186 96.5 -368.5t96.5 -318.5q45 -122 155 -122h2q61 0 113.5 44t75.5 115q0 4 1 7.5t-1 7.5q4 23 9 39t13 39q33 106 71 236t71 269q25 117 43 179q18 -55 30.5 -95.5t22.5 -77 t20.5 -77.5t26.5 -97q14 -51 27.5 -100t25.5 -96q33 -109 58.5 -185.5t52 -124t59.5 -69t82 -21.5q55 0 97 39t74 100.5t54.5 136.5t40.5 146l13 47q18 76 37.5 151t40.5 151q23 86 45 171t43 171q0 -4 3 3t7 21t8 29.5t8 27.5v-2q16 51 30 101q9 35 9 58q0 10 -2 18l2 -3 q-8 43 -33.5 70t-66.5 27q-35 0 -81 -28t-87 -69q-25 -86 -48.5 -186t-52.5 -223q-20 -88 -43.5 -191.5t-56.5 -232.5q-10 -39 -17 -69.5t-16 -53.5q-23 61 -47 148.5t-48.5 179.5t-47.5 180t-39 149q-8 29 -12 48.5t-8 33.5q-14 53 -31 105.5t-38.5 93.5t-48 66.5 t-59.5 25.5t-65.5 -25.5t-64 -69.5t-62.5 -102.5t-57 -123.5q-14 -82 -34 -175.5t-40.5 -184.5t-42 -172t-41.5 -140q-4 6 -12.5 33.5t-19.5 67.5t-22.5 89.5t-23.5 100.5q-10 49 -21.5 102t-23.5 107q-14 63 -28.5 126.5t-29 119t-28.5 100.5t-29 73q-27 47 -69 65 q-34 14 -59 14q-6 0 -11 -1h2q-33 -4 -63.5 -33.5t-44.5 -46.5l-17 -18v-12l-2 -4q2 0 0 -4v-35z" />
<glyph unicode="X" horiz-adv-x="1267" d="M29 55q2 -29 26.5 -51t57.5 -27h-2q19 -4 37 -4q34 1 65 15q47 22 84 58t62.5 75t39.5 63v-2l2 6q2 5 5 9q16 27 43.5 68.5t59.5 86.5t63.5 89t58.5 77q6 -6 7 -8t2 -3t3 -5t8 -15l4 -4q20 -29 41 -59.5t37 -58.5q49 -74 95 -141.5t87 -120t77 -85t65 -36.5q20 -6 53 3 t61.5 27.5t48.5 41.5q19 21 19 42q1 19 -21 53q-20 31 -48.5 70t-64.5 83t-71 87q-41 47 -71.5 88t-49.5 66l2 -2q-14 23 -29.5 43t-31.5 43q-18 27 -35.5 49t-34.5 49q47 72 102.5 152.5t109 155.5t98.5 137.5t73 99.5q12 16 18.5 31.5t2.5 37.5q-6 47 -51 71 q-35 19 -70 19l-20 -2q-39 0 -68 -15t-53.5 -40.5t-45 -58.5t-42.5 -70q-8 -12 -17.5 -28.5t-19.5 -30.5q-14 -20 -35 -52t-44.5 -67t-48 -67.5t-42.5 -55.5q-33 35 -70 86t-73.5 105.5t-68.5 104.5t-52 83q-16 31 -23 39q-34 46 -68 60q-23 9 -49 9q-14 0 -28 -2 q-41 -6 -74 -36.5t-49 -77.5q20 -55 67 -123t99 -135q20 -29 39.5 -54.5t35.5 -50.5q39 -57 84 -121q20 -25 37 -46t33 -46q-53 -78 -110.5 -163t-112.5 -162.5t-103.5 -144t-78.5 -105.5q-29 -36 -35 -60q-4 -15 -4 -28q0 -10 2 -19z" />
<glyph unicode="Y" horiz-adv-x="1214" d="M25 1298q18 -43 61 -122.5t94 -164.5t103.5 -161t91.5 -115q10 -14 22.5 -28.5t28.5 -30.5q23 -23 41 -50.5t20 -56.5q-4 -63 -5 -121.5t-1 -111.5v-100t-2 -89v3q-3 -23 -3 -43q0 -47 16 -80q24 -47 79 -52q6 -1 11 -1q24 0 50 14q32 16 59.5 41.5t48 56.5t26.5 57v74 q0 41 -2 76q-2 29 -2 53v51q0 72 14.5 152t50.5 156q41 82 102.5 185t119.5 202q27 45 51 83.5t41 71.5l-4 -2q12 18 22 39t17.5 40t10.5 34.5t1 23.5l2 -4q-4 35 -39 67t-74 32q-47 0 -79.5 -19.5t-57.5 -50.5t-43 -66.5t-33 -68.5q-4 -10 -10 -24.5t-14 -24.5 q-39 -80 -72 -139.5t-60.5 -103.5t-49 -77t-37.5 -57v2q-4 -4 -6.5 -7t-6.5 -7q-27 33 -61.5 84t-73.5 112.5t-81 131t-81 138.5q-37 63 -63.5 94t-73.5 31t-88 -36.5t-61 -90.5z" />
<glyph unicode="Z" horiz-adv-x="1286" d="M63 1247q4 -41 34 -67.5t69 -26.5q41 0 74.5 2t60.5 6q20 2 36.5 3t39.5 1q23 1 48 1h25q38 -1 74 -3q33 -2 67 -3t68 -1q16 0 32 1t32 1h31q18 0 32 2q-10 -16 -23 -31.5t-28 -31.5q-39 -47 -79 -97.5t-68 -89.5q-72 -96 -146.5 -200.5t-141.5 -199.5t-120 -173 t-80 -121q-20 -35 -25 -63.5t-1 -55.5q12 -53 55 -86.5t100 -33.5h37q25 0 45 2q135 8 234.5 10t195.5 2h258q45 0 89.5 14.5t79 37t54.5 52.5q16 24 16 49q0 7 -1 15q-9 58 -63 76q-44 14 -118 15q-17 0 -36 -1q-86 -4 -175 -5t-186 -1h-196h-35q10 18 21.5 35.5t23.5 31.5 q78 131 168 258t179 240t171 202t144 142q33 29 48 55.5t11 57.5q-8 55 -89 99t-208 44q-66 0 -132.5 -2t-131.5 -4q-55 -2 -108.5 -4t-102.5 -2q-119 0 -182 14q-39 -4 -70 -20.5t-53.5 -40t-35.5 -51t-18 -54.5z" />
<glyph unicode="[" horiz-adv-x="626" d="M47 113q0 -37 1 -74t3 -74q2 -33 4 -68.5t15.5 -65.5t40 -49.5t77.5 -19.5h54t53 2q27 0 52.5 1.5t51.5 1.5q51 0 89 12t60.5 31.5t34 43t11.5 46.5q0 45 -33 78.5t-90 33.5h-72t-67 -4q-25 313 -25 633q0 170 8.5 346t22.5 344q14 -2 11 -1t13 1h19q51 0 89 12.5 t62.5 33t37 44t12.5 47.5q0 41 -33 76t-88 35q-25 0 -40 -1t-32 -3q-14 -2 -28.5 -3t-32.5 -1h-29q-12 0 -23 2q-29 2 -53 2q-23 0 -67 -16h-2q-45 -16 -69 -35t-24 -72l7 12q-6 -20 -7.5 -62t0.5 -71v-26q-2 -55 -4 -117t-4 -115q-2 -88 -4 -174t-2 -174v-612z" />
<glyph unicode="\" horiz-adv-x="899" d="M53 1395q6 -23 15 -33v2q53 -92 122.5 -251t155.5 -363v2q35 -86 80 -194.5t80 -195.5l16 -46t19 -46q20 -55 40.5 -104t46 -86t58.5 -59.5t78 -22.5q14 0 31.5 7t33 19.5t24.5 30t7 37.5l-8 19q-4 4 -9 15t-12 36q-4 6 -6 13t-6 13v-2q-72 154 -144.5 333t-139.5 353 q-29 72 -57.5 140.5t-55.5 134.5q-10 20 -15.5 39.5t-13.5 40.5q-18 47 -36.5 92t-42 80t-56.5 56.5t-82 23.5q-20 6 -41.5 2t-40 -16.5t-30 -31t-11.5 -38.5z" />
<glyph unicode="]" horiz-adv-x="626" d="M47 -100q0 -23 11.5 -46.5t34 -43t59 -31.5t90.5 -12h53q25 0 51 -3q27 0 53.5 -1t53.5 -1q49 0 75.5 19.5t40 48.5t16.5 64.5t5 68.5q4 35 4 74v76v612q0 84 -2 174t-4 174q-2 59 -4 115.5t-4 116.5v26q2 29 0 71t-7 62l7 -12q0 53 -24 71.5t-69 35.5h-2 q-41 12 -68.5 14t-56.5 0q-10 -2 -20 -2h-27q-16 0 -31.5 1t-29.5 3q-16 2 -31.5 3t-40.5 1q-55 0 -88 -35t-33 -76q0 -25 11.5 -48t36 -43.5t62.5 -33t91 -12.5h43q16 -174 23.5 -344t7.5 -346q0 -162 -7.5 -318.5t-19.5 -314.5q-33 2 -66.5 3t-70.5 1q-57 0 -90 -33.5 t-33 -78.5z" />
<glyph unicode="^" horiz-adv-x="886" d="M47 989q0 -23 10 -41q10 -23 43 -40t62 -21q35 -4 74.5 10t62.5 49l5 14q5 15 22 44q23 41 47 76.5t49 76.5q4 10 9 18.5t11 18.5q20 -29 45 -70t48 -82l16 -34q4 -12 8 -17q10 -16 18.5 -32.5t22.5 -30.5q43 -41 129 -41q49 0 82 25.5t37 66.5l-4 18l-15 27q-2 2 -2 -2 q0 -2 4 -6q-35 57 -84 130t-102 146l4 -4q-8 16 -12 23q-12 18 -19.5 28.5t-9.5 14.5q-14 20 -25.5 35.5t-21.5 25.5q-29 33 -61.5 52.5t-79.5 15.5q-35 -6 -58.5 -15.5t-46.5 -37.5l-18 -25q-2 -2 -6 -10q-41 -59 -86 -128t-84 -139h2q-14 -27 -23.5 -43t-23.5 -32 q-2 -4 -4 -6.5t-2 -6.5q-23 -29 -23 -51z" />
<glyph unicode="_" horiz-adv-x="1456" d="M64 -340q2 -27 8 -41q35 -74 174 -74h10h66q39 0 71 2q51 2 111.5 3t144.5 1q55 0 75.5 -1t35.5 -1q16 -2 45 -2h92h131q35 0 64.5 -1t58.5 -3q23 -2 43 -2h37q59 0 99 13.5t67 54.5l-4 -4q18 23 15 55.5t-7 48.5v-8q0 8 -4 20q-10 33 -32.5 40.5t-51.5 11.5q-8 2 -17 2 q-6 0 -12 2h-88t-62.5 -1t-43.5 -1h-35h-207h-98h-60t-46 1t-56 1h-88q-16 0 -26.5 1t-20.5 1h-172q-78 0 -127.5 -12.5t-73.5 -61.5q-18 -18 -16 -45z" />
<glyph unicode="`" horiz-adv-x="471" d="M43 1362q0 -33 15.5 -63.5t41.5 -61.5q8 -4 15 -10q27 -23 68.5 -56.5t86.5 -59.5t86 -35t68 20h-2q27 29 16.5 71.5t-37 89t-59.5 88t-51 66.5q-29 31 -59.5 52.5t-67.5 21.5q-45 0 -88 -43q-33 -35 -33 -80z" />
<glyph unicode="a" horiz-adv-x="966" d="M55 328q0 -104 31 -175t84 -113q52 -42 122 -58q50 -11 105 -11q21 0 43 2q66 6 123.5 26.5t114.5 66.5q20 -43 49 -70t70 -27q20 0 43.5 12.5t43.5 32.5t32 44q10 20 10 39v7l-2 5q-16 74 -22.5 126t-6.5 113v84q0 47 2 88q2 27 2 51v50v16q0 31 -1 77t-13.5 95t-38 96 t-72.5 84q-48 37 -120 59q-57 17 -133 16q-21 0 -44 -1q-72 -4 -135 -21.5t-114.5 -47t-86.5 -69.5t-45 -89l1 -14q1 -15 5 -19q10 -23 24.5 -49.5t39.5 -26.5h2q12 -2 34.5 -1t37.5 9q8 4 16 11.5t16 13.5q25 20 67 44.5t134 31.5h15q47 0 78 -10q36 -12 55.5 -34 t26.5 -48.5t7 -51.5q-29 10 -68.5 17.5t-99.5 11.5h-15q-44 1 -106 -9q-74 -12 -142 -51.5t-118.5 -118.5t-50.5 -214zM281 334q0 70 63.5 122t165.5 52q43 0 79 -16.5t64 -38.5q4 -10 6.5 -26t2.5 -34q0 -33 -8.5 -70.5t-35.5 -72.5q-35 -27 -78.5 -45.5t-101.5 -18.5 q-74 0 -115.5 40t-41.5 108z" />
<glyph unicode="b" horiz-adv-x="1062" d="M57 178q0 -25 1 -42t3 -34v-15q-1 -33 7 -55q10 -26 25.5 -38t33.5 -15.5t33 -1.5q12 -6 25 -6q5 0 9 1q18 3 35 13.5t30 27t17 34.5q49 -41 109.5 -54t142.5 -13q104 0 194.5 40.5t157 111.5t104.5 167t38 205v53q0 111 -38 201t-102 154q-65 62 -151 94q-69 25 -142 26 q-19 0 -38 -2q-66 -6 -121 -31.5t-90 -50.5q-2 25 -2 49v52v139q0 37 3 83t7 75q2 16 4 26l2 10q-4 16 -21.5 30.5t-31.5 19.5q-23 8 -55 8q-33 0 -66 -12.5t-58.5 -41t-29.5 -77.5q-4 -27 -7 -94.5t-5 -156.5t-3 -191.5t-1 -200.5q0 -41 -2 -99.5t-6 -122.5 q-4 -72 -7.5 -142.5t-3.5 -123.5zM332 498v12q0 47 6 88t16 82q45 53 95.5 87t109.5 34q66 0 122 -37t71 -123q6 -6 11 -22.5t8 -38t3 -45.5v-46q-4 -121 -70.5 -197.5t-171.5 -76.5q-53 0 -95 29.5t-81 62.5l-2 2q-22 80 -22 180v9z" />
<glyph unicode="c" horiz-adv-x="946" d="M55 454q6 -110 46 -202t107.5 -157.5t159.5 -99.5q71 -26 151 -26q24 0 48 2q68 6 132.5 34t113.5 69t73 91q16 34 17 68q0 17 -4 33q-6 29 -29.5 51.5t-58.5 22.5q-18 0 -31.5 -7t-36.5 -28q-39 -35 -88 -64.5t-92 -33.5h-10q-51 1 -94 19q-47 20 -82 59t-54.5 94 t-19.5 123q0 57 15.5 115.5t43 103.5t64.5 73.5t82 28.5q41 0 72.5 -24.5t60.5 -59.5q6 -29 35 -41t53 -12q8 0 28.5 10.5t42 27.5t38 39.5t18.5 49.5v11q0 39 -24 78q-28 44 -80 77t-118 51q-48 12 -98 12q-20 0 -40 -2q-96 -8 -179.5 -59t-143.5 -132t-92 -183 q-27 -85 -27 -177q0 -18 1 -35z" />
<glyph unicode="d" horiz-adv-x="1075" d="M59 475q0 -115 37 -209t100.5 -159.5t149.5 -98.5q71 -27 149 -27q16 0 33 1q59 4 118 29.5t106 60.5q18 -29 40.5 -44.5t42 -24.5t34 -11t16.5 -2q25 0 50.5 15t45.5 34.5t33.5 41t13.5 34.5l2 -6q0 16 -3 43.5t-7 50.5q-2 10 -4 18t-4 12l2 -2q-8 47 -12.5 111 t-4.5 143q0 94 2 194.5t5.5 202t8.5 200t9 188.5q1 11 1 22q1 71 -23 115q-25 47 -89 47h-10q-8 -2 -24 -2q-20 -2 -42 -6t-36 -25q-18 -10 -27.5 -29.5t-11.5 -41.5q-4 -80 -5 -171.5t-3 -197.5q-43 25 -92.5 40t-110.5 15q-109 0 -199 -45t-154.5 -121.5t-100.5 -178 t-36 -216.5zM299 485q0 154 61.5 241t176.5 87q104 0 154 -79t50 -208q0 -139 -58 -223t-175 -84q-43 0 -82 20.5t-66.5 56.5t-44 85t-16.5 104z" />
<glyph unicode="e" horiz-adv-x="1050" d="M57 479q0 -115 34 -207t97.5 -158.5t152.5 -102.5t200 -36q88 0 176 30t155 76q68 45 107 103q30 44 30 87q0 13 -3 26v-2q-4 33 -35 56.5t-62 23.5q-41 -6 -75 -41q-49 -53 -110.5 -94t-160.5 -41q-74 0 -131 32.5t-86 90.5q-16 33 -18 49q20 4 24 2t21 0q25 0 49 2 t56 6t72 14.5t95 26.5q121 37 193.5 108.5t72.5 188.5q0 68 -27.5 125t-75.5 100t-114.5 66.5t-142.5 23.5q-109 0 -200 -44t-155.5 -118.5t-101.5 -176t-37 -216.5zM307 578q6 45 23.5 89t45 77.5t63.5 54t79 20.5q41 0 75 -15.5t50 -43.5q-2 2 1 -4t7 -11q2 -2 2 -4t4 -4 v-6q0 -26 -16 -51q-18 -28 -53 -57q-51 -16 -109.5 -26.5t-124.5 -16.5q-14 -2 -24 -4h-8q-7 0 -15 2z" />
<glyph unicode="f" horiz-adv-x="843" d="M55 840q4 -33 26.5 -58.5t78.5 -25.5h65q12 2 16.5 -2t4.5 -25v-498q0 -55 1 -110t16.5 -97t48.5 -60q14 -9 36 -9q26 0 62 12q106 35 106 170v58q-2 29 -4 56.5t-2 55.5v207v66q0 33 2 61v51q0 35 6 54.5t29 25.5q72 4 118 13.5t71.5 23.5t35.5 36.5t12 53.5 q0 55 -32.5 82t-104.5 27h-67q-4 0 -9.5 -1t-9.5 -1h-45v12q0 104 33 164q35 63 90 63q35 4 45 -8t14 -27q10 -29 28 -50q15 -16 46 -16q9 0 19 1q49 4 62 34.5t15 92.5q0 14 1 28.5t3 34.5l-2 17q-4 12 -24.5 31.5t-54 40t-79.5 36t-104 15.5q-88 -8 -152.5 -48.5 t-107.5 -105t-65.5 -149.5t-24.5 -183q-4 2 -18 2q-12 0 -23 -2q-35 -4 -69.5 -12t-57.5 -37v2q-12 -16 -23.5 -54t-7.5 -61z" />
<glyph unicode="g" horiz-adv-x="1024" d="M57 449q4 -109 42 -197t99.5 -148.5t141.5 -91.5q67 -27 143 -27q14 0 29 1q47 4 91 11t77 17v-14v-6v-4v-13q0 -66 -14.5 -106.5t-37 -64t-54 -34t-64.5 -14.5q0 4 -2 3l-2 -1q-37 0 -67.5 15.5t-55.5 40t-43 54.5t-27 58q-23 27 -51.5 39.5t-56.5 12.5 q-29 0 -54.5 -9.5t-43 -28t-23.5 -44t4 -58.5q8 -72 54 -131t108.5 -101t135.5 -65.5t134 -23.5q39 0 88 6t95.5 21.5t87 40t65.5 61.5q27 45 42 89t23.5 93t9.5 105.5t1 127.5v56q0 172 10 311t23 279q4 47 7 95t7 99v-4q3 11 3 21q0 14 -5 28q-8 23 -24.5 40.5t-39 28.5 t-47.5 11q-27 0 -48 -8t-56 -39q-47 39 -102 49q-40 7 -84 7q-17 0 -35 -1q-109 -6 -200 -56t-155.5 -131t-98.5 -185q-30 -94 -30 -192v-23zM309 455q-1 15 -1 30q0 44 8 85q12 57 34.5 103t56 79.5t78.5 46.5q29 6 57 10q8 1 15 1q20 0 39 -9q39 -8 61.5 -30.5t35 -55.5 t15.5 -73t3 -83q0 -55 -7.5 -115.5t-29 -111.5t-58 -84t-96.5 -33q-92 0 -148.5 64.5t-62.5 175.5z" />
<glyph unicode="h" horiz-adv-x="1034" d="M57 203q0 -115 30 -164t97 -49q49 0 78 23.5t44.5 69.5t19.5 112.5t6 154.5q2 23 2 53q0 31 2 58l3 15t3 11q12 59 25.5 112.5t40.5 88.5q37 59 87 85t91 26q59 0 89 -39t30 -139v-279q0 -61 4 -123.5t16 -113t35.5 -84t64.5 -37.5q29 0 70 30q41 4 71 31q26 24 25 74v14 q0 18 -2 34t-6 32v-2q-4 23 -6 42t-2 35q0 29 -1 55.5t-1 55.5q0 53 -1 106.5t-1 108.5v43q0 205 -95.5 296t-259.5 91q-78 0 -150.5 -41t-135.5 -102q0 41 1 81t3 83q0 23 1 47t1 47q2 51 4 100t6 88q-4 45 -24 80q-18 30 -61 30q-7 0 -15 -1q-23 0 -43.5 -5t-36.5 -24 q-41 -2 -66.5 -24.5t-25.5 -100.5q0 -12 1 -23.5t1 -23.5v-70q0 -12 -1 -33.5t-1 -37.5q-2 -80 -4 -166t-4.5 -169t-3.5 -162t-1 -146v-115v-41t-2 -37q0 -16 -1 -31.5t-1 -29.5z" />
<glyph unicode="i" horiz-adv-x="370" d="M39 311q0 -80 4 -140t17.5 -100t40 -59.5t71.5 -19.5q16 0 41 13t48.5 34.5t40.5 48.5t17 55q-4 53 -6 126t-2 151q0 74 2 145.5t6 149.5q2 41 4.5 84t4.5 86v17q0 64 -26 96q-30 36 -89 36q-12 0 -35.5 -5t-48.5 -19.5t-44 -40t-24 -66.5q-6 -57 -8 -125.5t-4 -128.5 q-2 -53 -3 -103t-5 -97q-2 -25 -2 -52v-51v-35zM57 1300q-1 -9 -1 -18q0 -48 18 -90q22 -49 78 -57q12 -2 24 -2q24 0 46 8q32 12 58.5 35.5t44 52t21.5 55.5q2 13 1 26q0 16 -2 34q-5 30 -20.5 56.5t-42 43t-63.5 16.5q-68 0 -112 -47t-50 -113z" />
<glyph unicode="j" horiz-adv-x="382" d="M-299 -268q33 -129 105.5 -190.5t222.5 -61.5q80 0 133 30.5t87 83t51 122t28 147.5q2 14 2 33v34v52q0 29 -2 51q-2 29 -3 53.5t-1 50.5q0 59 -1 119.5t-4 116.5v176v104q0 59 3 109q2 35 3 68.5t1 68.5q1 7 1 14q0 41 -21 77q-23 42 -87 48q-25 2 -55.5 -7t-56 -29.5 t-41.5 -49.5q-15 -25 -15 -56v-7q0 -8 1 -16.5t1 -14.5q2 -23 2 -41v-47q0 -23 -1 -43t-1 -43v-256q0 -47 1 -99.5t3 -105.5t3 -104t1 -101v-67q0 -104 -12 -168t-53 -64q-59 0 -111 72l2 -2q-2 4 -6 8l-6 6q-16 23 -34.5 41.5t-47.5 10.5q-35 -2 -62.5 -40t-29.5 -83z M35 1303v-9q0 -54 21 -102q24 -51 79 -59q72 0 125.5 40.5t63.5 108.5q2 14 2 28q0 15 -2 32q-5 30 -20 56.5t-41.5 43t-63.5 16.5q-70 0 -113 -48t-51 -107z" />
<glyph unicode="k" horiz-adv-x="962" d="M57 268q0 -80 5.5 -133t18.5 -87t38.5 -48t66.5 -14q54 0 100 46q43 42 42 107v11q-2 25 -3 48t1 48q10 41 10 80v80q6 -8 12 -15.5t12 -13.5l156 -156t136.5 -129t109.5 -85q38 -24 64 -24q6 0 12 1q8 0 12 2h14q43 16 76 51q31 33 31 68q0 16 -15.5 38.5t-41 52 t-60.5 64.5l-72 72q-27 25 -63.5 61.5l-63.5 63.5q-29 29 -49 50t-37 38l-39 41l2 4q25 23 49.5 42t47.5 40q39 35 79 68.5t76 68.5q16 25 31.5 40t32.5 28q18 16 33.5 32.5t21.5 40.5v17q-4 35 -34.5 62.5t-71.5 27.5q-43 0 -79 -12.5t-65.5 -33t-56.5 -46t-51 -52.5h2 l-47 -45q-33 -33 -68 -61.5t-72 -58.5l-34 -29v196q0 104 2 200.5t12 193.5q1 11 1 21q-1 34 -11 56q-14 28 -49 46q-14 0 -21 2q-8 2 -18 4q-5 1 -10 1t-11 -1q-7 2 -15 2q-6 0 -14 -1q-16 -3 -32 -7h-2q-66 -16 -79 -62q-11 -39 -11 -109v-22v-88q0 -119 -1 -242t-4 -239 q-2 -96 -4 -182.5t-2 -153.5v-66z" />
<glyph unicode="l" horiz-adv-x="352" d="M39 340q0 -90 2 -156.5t13.5 -109.5t38 -64.5t75.5 -21.5q16 0 35.5 11t38.5 30q35 16 50 46.5t17 74.5q-2 35 -2 65v70v303v43t1 51.5t1 50.5v43q2 49 2 98v99v20q0 41 3 93.5t8 103.5q4 60 6 116v21q0 38 -6 53l4 -6q-12 48 -45 70q-28 18 -66 19q-7 0 -14 -1 q-47 -4 -75 -16t-41 -33.5t-18.5 -52.5t-7.5 -74q-2 -16 -2 -37q0 -18 -2 -41q-2 -76 -4 -160.5t-4 -160.5q-4 -123 -6 -243t-2 -241v-63z" />
<glyph unicode="m" horiz-adv-x="1638" d="M74 244q0 -35 2 -80t14 -85t39 -68.5t74 -28.5q29 0 56.5 14t49 37.5t33.5 52.5t10 57q0 16 -1 34t-3 32q-2 23 -4 41t-2 41q0 47 4 97t10 101v-2q4 23 5 47.5t4 47.5q4 41 24.5 80.5t52 70.5t71.5 50.5t81 19.5q31 0 50.5 -19.5t29.5 -51.5t13 -69.5t3 -74.5 q0 -20 -1 -36.5t-1 -33.5v-88q0 -23 -1 -49.5t-1 -54.5q0 -45 1 -93.5t6 -91.5t13.5 -77.5t20.5 -53.5q31 -45 94 -45q31 0 57.5 14.5t46 37t31 50t11.5 56.5q-2 20 -2 41q0 20 -2 43q-4 49 -6.5 102t-2.5 107q0 61 5.5 120.5t19.5 104.5q10 31 30.5 60.5t46 53t56.5 39 t62 15.5q43 0 67.5 -25.5t38.5 -68.5t18.5 -100.5t4.5 -120.5v-60q0 -29 -3 -57q0 -27 -1 -53.5t-1 -51.5q0 -61 5.5 -116.5t19.5 -95.5t42 -63.5t73 -23.5q16 0 39.5 6.5t46 18.5t39 29.5t16.5 42.5q0 10 -2 16l-4 12v13q-4 16 -3 36.5t3 40.5q2 27 2 58t-2 55 q0 10 -1 23.5t-1 27.5q-2 57 -4 129t-8.5 144.5t-18.5 136t-35 106.5q-39 68 -99 112t-140 54h-17q-95 0 -183 -42q-96 -46 -167 -118v5q-39 70 -108.5 112.5t-147.5 44.5h-9q-82 0 -148 -34q-70 -36 -128 -93v33q-4 45 -35.5 78t-80.5 33q-70 0 -112 -50.5t-42 -115.5v-275 q0 -72 -6 -145q-4 -45 -7 -99q-2 -32 -2 -61q0 -20 1 -39v-24z" />
<glyph unicode="n" horiz-adv-x="1021" d="M57 272q0 -68 4.5 -122t16.5 -90.5t37.5 -57t68.5 -20.5q25 0 53.5 14t50.5 42q24 28 36 66q8 26 8 59q0 15 -2 32q-4 23 -4 43v43q0 98 13 192t44 168t79 120t120 46h5q47 0 79 -37q34 -39 34 -127v-33q0 -18 -2 -41q-2 -29 -3 -60.5t-1 -59.5v-105q0 -57 4 -119.5 t16.5 -115t35 -88t61.5 -39.5q4 0 14 -5q14 -4 34 -6h5q18 0 37 13q43 10 61 53q17 39 17 82v10q0 6 -1 15.5t-1 17.5q-4 45 -8 100t-4 111v260q0 184 -84 291.5t-226 115.5h-14q-31 0 -63 -7q-40 -9 -80.5 -27.5t-79.5 -44t-72 -58.5l-10 -10v4v4q2 0 2 4q0 6 2 10 q-4 45 -19.5 77t-56.5 34q-16 4 -47 0t-60.5 -15.5t-54 -32t-28.5 -46.5q-2 -10 -2 -29q0 -18 2 -31q0 -10 1 -16t1 -14v-37q-6 -61 -10.5 -133t-6.5 -144.5t-2 -140.5v-115zM340 879v2l2 2q-2 -2 -2 -4z" />
<glyph unicode="o" horiz-adv-x="1017" d="M57 481q0 -106 31 -199.5t88 -162t137 -108.5t179 -40q96 0 181 39t148.5 108.5t103.5 161.5t48 201q2 26 2 51q1 88 -21 166q-28 102 -85.5 176t-140.5 118t-185 44q-104 0 -193.5 -43t-154 -117.5t-101.5 -176t-37 -218.5zM303 512q0 61 15.5 115.5t44 95.5t68.5 64.5 t89 23.5q47 0 85 -23.5t63.5 -64.5t40 -97t14.5 -122q0 -61 -15.5 -114.5t-44 -92.5t-68.5 -61.5t-89 -22.5t-86 24.5t-63.5 65.5t-40 95.5t-13.5 113.5z" />
<glyph unicode="p" horiz-adv-x="1026" d="M57 16v-229q0 -57 4.5 -104.5t17.5 -82t38.5 -54t68.5 -19.5q18 0 44 11t49.5 32.5t38.5 54.5q12 24 12 52q0 11 -2 22q0 14 -1 24.5t-1 22.5q-2 35 -2 74v90v131v2q27 -14 49 -24.5t43.5 -17.5t45 -11t52.5 -4q90 0 174 40t149.5 112.5t105.5 174t40 224.5 q0 102 -32.5 195t-92 163t-140.5 109q-70 33 -150 33q-12 0 -25 -1q-57 -6 -112.5 -28.5t-102.5 -55.5q-4 41 -24.5 70t-80.5 29q-59 0 -107 -41t-48 -123q0 -47 -1 -93t-1 -94v-139q0 -70 -3 -145v2q-4 -80 -5 -189.5t-1 -212.5zM324 496q0 137 52 223t152 90h7 q41 0 74 -21q36 -22 61.5 -60t40 -91.5t16.5 -112.5v-19q0 -55 -10 -103q-12 -56 -38 -97t-67 -64.5t-94 -23.5t-92 25.5t-76 64.5q-12 41 -19 88t-7 101z" />
<glyph unicode="q" horiz-adv-x="1024" d="M57 449q4 -109 42 -198t99.5 -150.5t142.5 -92.5q63 -24 132 -24q20 0 41 2q14 2 41 5t45 7q6 2 12 2h6q20 12 33 17.5t21 9.5q-4 -47 -4 -93v-94q0 -123 15 -195.5t75 -95.5q10 -4 24 -4q11 0 25 3q31 6 60.5 24t50 45t18.5 59q-4 41 -4 93v106q0 119 5 257t12 277.5 t15.5 268.5t14.5 227v-6q3 11 3 21q0 14 -5 28q-8 23 -24.5 40.5t-39 28.5t-47.5 11q-27 0 -48 -8t-56 -39q-47 39 -102 49q-40 7 -84 7q-17 0 -35 -1q-109 -6 -200 -56t-155.5 -131t-98.5 -185q-30 -94 -30 -192v-23zM309 455q-1 15 -1 30q0 44 8 85q12 57 34.5 103 t56 79.5t78.5 46.5q27 6 51 8h6q21 0 42 -10q33 -2 56.5 -23.5t38.5 -55.5t23.5 -75t8.5 -84q0 -55 -7.5 -115.5t-29 -111.5t-58 -84t-96.5 -33q-92 0 -148.5 64.5t-62.5 175.5z" />
<glyph unicode="r" horiz-adv-x="747" d="M51 227q-1 -18 -1 -35q0 -111 24 -156q26 -52 90 -56q18 0 29.5 4t29.5 18q94 29 99 123q-4 59 -6.5 121.5t-2.5 126.5q0 76 5.5 148.5t23.5 129t53 91t94 38.5q10 -2 24.5 -8t18.5 -22q-1 -6 -1 -12q0 -25 21 -49q26 -30 64 -30q18 0 39 9.5t39.5 33t33.5 62.5t24 98v12 q-10 72 -53.5 121t-129.5 49q-68 0 -128 -31.5t-119 -82.5q-4 49 -32 79.5t-77 30.5q-68 0 -123 -67q-14 -23 -21.5 -81t-11.5 -135t-5 -166t-1 -173v-191z" />
<glyph unicode="s" horiz-adv-x="923" d="M60 198q-6 -15 -6 -31q0 -18 9 -36q37 -74 141.5 -116t233.5 -42q80 0 157 21.5t138.5 63.5t101.5 101.5t46 135.5q1 16 1 31q0 54 -16 97q-22 54 -78.5 97t-149.5 80t-226 74q-61 18 -78 43q2 33 45 62.5t106 37.5l36 4t38 2q16 0 31.5 -4t27.5 -8v-2q6 -18 13.5 -35.5 t23 -31t38 -20.5t59.5 -3q45 4 60 33.5t32 83.5l-1 -1t-1 -4q4 16 5 42t-9 61q-20 43 -51 67.5t-67 37t-74 15.5t-73 3q-84 -6 -166.5 -33t-150.5 -70t-113 -101t-53 -132q-2 -20 -2 -39q0 -42 10 -74q14 -47 55.5 -83t112 -64.5t176.5 -54.5l45 -13q142 -32 142 -107 q1 -40 -53 -62q-52 -22 -123 -21q-82 0 -140.5 28.5t-81.5 55.5q-4 4 -8 9t-6 7q-8 4 -12 8q-18 4 -49 -11t-56.5 -41.5t-39.5 -60.5z" />
<glyph unicode="t" horiz-adv-x="757" d="M10 881q0 -18 8.5 -37t25.5 -33t48 -16q14 -2 34.5 -3t41.5 -1h31q16 0 26 -3q0 -2 1 -4t1 -4q-4 -92 -7 -186t-3 -186v-56q0 -14 -1 -28.5t-1 -28.5q0 -47 6 -91t23 -85q4 -14 15 -27.5t22 -23.5q2 -4 4 -5q2 0 2 9l12 -31q18 -14 32.5 -25.5t30 -18.5t34 -11t44.5 -4 q76 2 122 7t76 19.5t48.5 43t38.5 77.5q1 11 1 21q0 38 -12 60q-16 28 -40.5 38t-54 6t-54.5 -14q-33 -33 -55 -33q-14 0 -25.5 16.5t-9.5 44.5q-4 23 -3 57.5t3 69.5q2 23 3 46.5t1 43.5v199q0 84 6 115q23 0 54.5 3t62.5 7t53.5 7t28.5 5q20 20 40.5 49t25.5 50v4 q1 7 1 14q1 42 -21 66q-24 26 -112 26h-40q-14 -2 -31 -3t-35 -1q-8 0 -8 2v14v35q0 18 2 39q2 18 4 40t2 42q0 78 -36 112q-34 32 -88 31h-7q-45 -2 -88 -29.5t-51 -99.5q-4 -35 -6.5 -91t-4.5 -103l-2 -2q-2 2 -8 2h-18q-8 0 -19 2q-8 0 -18 1t-21 1q-41 0 -79.5 -25.5 t-49.5 -81.5q-6 -14 -6 -34z" />
<glyph unicode="u" horiz-adv-x="972" d="M55 502q0 -66 5.5 -137.5t25.5 -131.5q39 -106 116 -173.5t199 -75.5h58q37 0 79 7t84 21.5t74 40.5q6 -25 22.5 -39t36 -20t36 -7t22.5 -1q67 0 93 30q23 26 23 67q0 6 -1 13v21v33q0 18 -2 36.5t-6 30.5q-2 25 -3.5 50.5t-1.5 62.5v55q0 129 3.5 252t13.5 250v16 q0 65 -29 95q-33 32 -82 32q-23 0 -51.5 -13t-53 -33.5t-41 -46.5t-16.5 -50q-2 -41 -3 -86t-1 -90q-2 -78 -5 -155t-11 -144q0 -47 -17.5 -84t-47 -60.5t-66.5 -33.5q-24 -7 -48 -7q-14 0 -28 2q-63 4 -86.5 68.5t-23.5 200.5q0 33 3 73.5t7 87.5q4 57 7 122t3 130 q0 29 -13.5 52.5t-34 39t-46 22.5t-49.5 3q-53 -8 -81 -28.5t-40 -48t-13.5 -60.5t-1.5 -66v-55q-4 -39 -4 -76t-2 -71q0 -12 -1 -23.5t-1 -24.5v-73z" />
<glyph unicode="v" horiz-adv-x="954" d="M22 898q5 -22 19 -58q25 -55 57 -172q47 -147 94.5 -280.5t90.5 -246.5q16 -39 28.5 -65.5t25.5 -44t33.5 -26.5t51.5 -15h-2q9 -1 17 -1q29 1 53 17q32 22 60 62.5t53.5 97.5t51.5 121q6 16 12.5 30.5t14.5 30.5q14 29 25.5 58.5t25.5 58.5q51 117 98.5 224.5 t81.5 193.5q0 4 2 6q2 4 3.5 6t5.5 8l8 31q0 47 -31 75.5t-78 28.5q-49 0 -79.5 -14t-51 -40t-34 -60.5t-25.5 -73.5v2q-4 -8 -3 -10t-3 -11q-4 -16 -13.5 -37.5t-13.5 -37.5v2q-35 -109 -75 -205t-68 -162q-18 49 -36 100.5t-34 100.5q-20 59 -40.5 119.5t-39.5 122.5 q-23 68 -27 92l-4 24q-20 48 -58 68q-27 14 -57 14q-12 0 -26 -2q-31 -6 -65.5 -28.5t-42.5 -61.5q-7 -13 -7 -27q0 -8 2 -15z" />
<glyph unicode="w" horiz-adv-x="1497" d="M35 897q2 -6 3 -15.5t3 -15.5l-2 4q0 -6 2 -14t8 -27l10 -43q16 -49 29.5 -105t30.5 -116q27 -104 54.5 -209.5t60 -188.5t70.5 -135t85 -52q51 0 95 49t82 128t71 175t61 188q6 20 11.5 37.5t11.5 34.5q6 -23 13 -51.5t16 -55.5q4 -16 7 -29.5t7 -27.5 q37 -129 67.5 -216t60.5 -139.5t58.5 -75t61.5 -22.5q51 0 92 38t77 110t70.5 173t75.5 228q43 137 98 301q4 12 8.5 24.5t8.5 23t6 20.5t6 20l2 7q5 18 5 34q-1 34 -23 54q-34 30 -80 30q-37 0 -66.5 -15t-51 -40t-37 -54.5t-23.5 -58.5q-41 -152 -79 -277.5t-73 -217.5 q-23 57 -46.5 144t-45.5 175q-27 88 -47.5 163t-32.5 97v-2q-16 41 -45 55.5t-53 14.5q-43 0 -77 -21.5t-59.5 -56.5t-47 -83t-39.5 -99q-16 -43 -29.5 -90t-26.5 -92q-14 -49 -28.5 -97.5t-30.5 -91.5q-25 43 -34 116t-36 195q-14 68 -27.5 128.5t-23.5 99.5 q-4 41 -36 65.5t-60.5 28.5t-59 -4t-56.5 -26t-41 -42q-12 -19 -12 -42q0 -6 1 -13z" />
<glyph unicode="x" horiz-adv-x="993" d="M25 78q4 -37 33.5 -61.5t70.5 -24.5q45 0 88 27.5t83 69.5t76 91t64 92h-2q12 20 23.5 37t21.5 31q2 0 6 6q6 -8 15.5 -19.5t19.5 -23.5v2q12 -16 24.5 -31.5t24.5 -31.5q39 -49 75 -95.5t69 -82t61.5 -58t52.5 -24.5q14 0 39 13t47.5 34.5t39 45t14.5 46.5l-2 4 q-4 14 -11.5 29.5t-23.5 40.5q-39 43 -79 89t-77 91t-69.5 86t-57.5 74q10 16 33 41.5t57 70.5v2q23 29 45.5 56.5t44.5 56.5q47 63 72 90q33 41 45.5 58.5t7.5 45.5q-4 35 -32.5 60.5t-63.5 25.5q-45 0 -86 -22.5t-79 -57t-70.5 -76.5t-63.5 -81q-16 -23 -30.5 -42.5 t-26.5 -33.5q-29 29 -50.5 62.5t-50.5 74.5h3q-47 72 -94.5 126.5t-94.5 54.5q-27 0 -52.5 -13.5t-46 -33t-30.5 -43t-4 -44.5q2 -16 18.5 -44.5t40 -62.5t51 -72t56.5 -72q29 -37 53.5 -69t36.5 -52q-14 -29 -39 -64t-47 -65q-12 -16 -24.5 -30.5t-22.5 -29.5l2 2 q-27 -37 -51.5 -67.5t-46.5 -59.5q-41 -49 -66 -85q-21 -30 -21 -54q0 -5 1 -10z" />
<glyph unicode="y" horiz-adv-x="1015" d="M25 879q6 -35 29.5 -87.5t45.5 -101.5q6 -14 14.5 -32.5t16.5 -34.5q39 -94 82 -187.5t88 -185.5v2q8 -14 18.5 -39t18.5 -41q12 -27 24.5 -52.5t22.5 -51.5q-4 -20 -15.5 -46t-23.5 -51q-16 -33 -30.5 -67.5t-20.5 -65.5q-16 -41 -27.5 -88t-11.5 -94t14 -82 q4 -20 18.5 -36.5t34 -28t41.5 -14.5q9 -1 17 -1q12 0 22 2q37 8 56.5 17.5t29 23.5t12.5 33.5t7 48.5q4 31 13 80t40 127q61 164 113.5 296t105.5 267q29 74 65 163t70 179q4 4 5 10q0 8 4 17q14 35 27.5 67.5t31.5 55.5l8 22v6q0 16 -8 35q-10 23 -27.5 41.5t-39 30.5 t-39.5 12q-51 0 -87 -25.5t-60.5 -63.5t-41 -84t-29.5 -85q-4 -10 -6 -17.5t-6 -15.5v-2q-29 -84 -64.5 -180t-72.5 -182q-25 43 -50.5 112.5t-56.5 147.5q-27 70 -54 139.5t-57 125.5t-60.5 91t-61.5 35q-23 0 -50.5 -12.5t-50 -33t-35.5 -46.5q-10 -20 -10 -39q0 -7 1 -14 z" />
<glyph unicode="z" horiz-adv-x="995" d="M55 88q-1 -7 -1 -14q0 -20 10 -36q12 -22 34.5 -36t51 -20.5t57.5 -6.5t74 2.5t102 4.5q98 4 207.5 9t191.5 5q35 0 51.5 3t38.5 26q33 14 57.5 49t22.5 65v13q-2 4 -9 17t-21.5 27.5t-38 25.5t-56.5 11h-43h-88h-82h-67q-29 -2 -55.5 -3t-55.5 -1q6 6 11.5 14.5 t13.5 18.5q6 8 13 16.5t11 18.5v-2q94 131 193.5 261t193.5 243q16 16 25.5 39.5t11.5 44.5q2 10 2 19q1 26 -17 46q-24 26 -62.5 41t-84 21t-81.5 6q-10 0 -31 -1t-43 -3q-29 -2 -55.5 -3t-49.5 -1h-274q-113 0 -137 -103q-4 -4 -4 -6t-2 -4q-20 -25 -9 -53q4 -23 14.5 -37 t31 -22.5t55.5 -12.5t90 -4q41 0 84 1t78 3t67.5 4t67.5 2q-86 -131 -190.5 -269t-237.5 -308q-31 -31 -47.5 -62t-18.5 -49z" />
<glyph unicode="{" horiz-adv-x="851" d="M53 672q2 -37 12.5 -61.5t28 -41t38 -28t42.5 -21.5q16 -6 32.5 -14t30 -21.5t21.5 -35t10 -54.5q2 -25 1 -49t-1 -49q0 -18 -1 -34.5t-1 -33.5q0 -96 22.5 -181t72 -147.5t126 -98t185.5 -33.5q53 4 95 27t46 89q2 41 -8 63.5t-30.5 35t-47.5 15.5t-55 7q-20 2 -41 5 t-37 11.5t-28.5 23.5t-14.5 44q-4 29 -5 58.5t-1 58.5v61q0 61 -2 118.5t-14.5 110t-39 96.5t-75.5 79q45 35 71.5 74.5t41 85t17.5 92.5t3 98v47q0 27 -2 47q-2 27 -2 51v52q0 47 13 73.5t33.5 40t43 17.5t45 6t43 4t37 9t27 21.5t14.5 39.5q8 72 -32 114.5t-112 46.5 q-96 6 -168.5 -24.5t-120 -86t-71 -132t-23.5 -164.5v-58q0 -31 2 -55q0 -29 1 -53.5t1 -52.5q0 -49 -14 -83t-61 -46q-18 -6 -45 -20.5t-50.5 -36t-39 -49.5t-13.5 -58z" />
<glyph unicode="|" horiz-adv-x="354" d="M39 186q0 -111 2 -192.5t13.5 -136t38 -80t75.5 -25.5q12 0 33.5 14.5t40.5 36.5q33 16 49 52t18 90q-2 41 -2 82v90v379v53q0 33 1 67.5t1 65.5v55q2 61 2 123v123v27q0 53 3 120.5t8 135.5q4 78 7 139t-3 84l2 -2q-14 57 -47 82.5t-80 21.5q-53 -6 -81 -22.5t-42.5 -46 t-17.5 -72.5t-3 -104v-31q0 -14 -2 -33q-10 -254 -13 -509t-3 -509v-78z" />
<glyph unicode="}" horiz-adv-x="851" d="M53 -115q4 -66 47 -89t95 -27q109 -2 185.5 33.5t125.5 98t71.5 147.5t22.5 181q0 16 -1 33t-1 35q0 25 -1 49.5t1 48.5q2 66 31.5 88.5t62.5 36.5q23 10 43.5 21.5t38 28t27.5 41t12 61.5q2 31 -13.5 58.5t-39 49t-50 35.5t-44.5 21q-47 12 -61.5 45.5t-14.5 83.5v53 q0 25 2 53q0 29 1 56.5t1 56.5q0 88 -22.5 164.5t-70.5 132t-120 86t-170 24.5q-72 -4 -113 -45t-30 -116q10 -47 41.5 -58.5t78.5 -15.5q20 -2 45 -6t44.5 -17.5t33 -40t13.5 -73.5v-52t-2.5 -51t-2.5 -47v-47q0 -51 3.5 -98t16.5 -92.5t40 -85t72 -74.5q-49 -35 -75 -79 t-38 -96.5t-14 -109.5t-2 -119v-61q0 -29 -1.5 -58.5t-5.5 -58.5q-6 -55 -44 -68.5t-76 -15.5q-29 -4 -55.5 -7t-47 -15.5t-31 -35t-8.5 -63.5z" />
<glyph unicode="~" horiz-adv-x="1052" d="M57 928q0 -35 10.5 -68t30 -50t48 -13t63.5 41q33 31 66.5 50t68.5 19q61 0 123 -69q104 -92 219 -93q145 0 270 138q29 23 41.5 51t12.5 59q0 35 -14.5 66t-37 46t-53.5 10t-63 -40h2q-33 -33 -68 -51t-69 -18q-31 0 -63 16t-60 53q-109 90 -217 90q-72 0 -143.5 -35.5 t-133.5 -105.5q-14 -16 -23.5 -43t-9.5 -53z" />
<glyph unicode="&#xa1;" horiz-adv-x="382" d="M39 1112q14 -59 59 -101t111 -42t109.5 45t39.5 110q-6 72 -55 124t-119 55q-59 2 -90 -27t-43 -64.5t-12 -66.5v-29v-4zM45 -53q-8 -68 26.5 -116t96.5 -48q33 0 64.5 11t56 31.5t38 47.5t11.5 57q-4 35 -7 78t-3 101q0 55 1 128.5t3 156.5t4 170t6 171q2 184 -139 150 q-37 -18 -61.5 -31.5t-39 -35t-20.5 -57.5t-4 -99q0 -27 1 -52.5t1 -52.5q0 -154 -9.5 -308.5t-25.5 -301.5z" />
<glyph unicode="&#xa2;" horiz-adv-x="946" d="M55 455q12 -213 146 -353q-10 -23 -14.5 -35t-14.5 -20q-2 -25 7 -44t23.5 -32.5t32 -21.5t31.5 -8q63 0 113 49q41 -12 90 -17.5t98 -1.5q61 10 125 40t112 71t75.5 89t19.5 95q-8 29 -31.5 51.5t-56.5 22.5q-18 0 -31.5 -7t-36.5 -28q-39 -35 -88 -64.5t-92 -33.5 q-45 -4 -71 2q6 23 14 46.5t18 47.5l140 336q6 -16 21 -26.5t48 -10.5q14 -4 40 -5t49.5 19.5t39 73.5t12.5 158q0 47 -16 78.5t-47 54.5q8 18 10 21.5t17 25.5q6 10 12 20.5t12 20.5q4 6 6 13.5t6 13.5l3 12q0 20 -11.5 36.5t-30 28t-40 15.5t-41.5 -2q-63 -4 -102.5 -42 t-67.5 -100q-16 0 -44 -1t-44 -3q-96 -8 -179.5 -59t-143.5 -132t-92 -182.5t-26 -211.5zM303 502q0 55 14.5 110.5t40 100.5t60.5 74.5t76 33.5q-29 -66 -51.5 -125t-43 -112.5t-39 -103.5t-41.5 -103q-16 59 -16 125zM733 602h2l2 -2z" />
<glyph unicode="&#xa3;" horiz-adv-x="1150" d="M61 162q-4 -27 12.5 -54.5t44 -50t59.5 -37t59 -14.5q25 2 43 3t34 1h62h133q72 0 141.5 -1t135 -4t120.5 -7q20 -6 43 0h-6q4 0 6 1t4 1h6q23 0 24 2t7 6q4 4 11.5 7t11.5 5q35 16 55 37t23 68q2 53 -36 82t-91.5 41t-106.5 12h-82h-16h-6q-20 2 -46 4t-47 4h-65h-78 t-82 -2q-18 -2 -33.5 -3t-31.5 -1q20 63 32.5 136t18.5 151q10 -2 18 -2h17q10 -2 77 -2h72q45 0 79 3t58.5 13t41 30.5t28.5 55.5q8 16 12 34.5t4 23.5v8q-6 35 -21 43t-38 14h2q-10 0 -22 4q-57 0 -84 -1t-43 -1h-197q0 45 -1 72.5t-3 68.5q-2 31 -4 57.5t-2 55.5 q-2 41 20.5 68.5t55 45t66.5 26t56 12.5q51 6 97.5 -7.5t89.5 -42.5q29 -23 52 -52t42 -56q23 -33 41 -55.5t53 -22.5q51 -2 82 22.5t35 73.5q8 68 -39 135.5t-124 122t-170 88t-177 33.5q-78 0 -157 -31.5t-143.5 -86t-104 -125t-42.5 -150.5q0 -35 4.5 -78t10.5 -90 q2 -20 5 -41.5t3 -44.5q-70 -14 -96 -88q-20 -31 -13 -57q12 -82 113 -82h6q-4 -86 -24.5 -166t-67.5 -166q-14 -12 -19.5 -24.5t-7.5 -24.5z" />
<glyph unicode="&#xa4;" horiz-adv-x="944" d="M50.5 1041.5q10.5 -25.5 25.5 -46.5q10 -10 20 -22t25 -23q-25 -35 -41.5 -73.5t-20.5 -77.5q-10 -66 3.5 -128.5t54.5 -117.5q-29 -33 -37 -71t14 -85l8 -20t19 -25q43 -27 77.5 -18.5t65.5 39.5l39 39q35 -14 69 -20.5t74 -6.5q53 0 104.5 10.5t92.5 26.5 q20 -23 44 -44.5t50.5 -34.5t54 -15t56.5 16q55 45 55 105q0 23 -10 47t-31 43q-8 8 -16 17t-17 17q64 92 64 203q0 18 -2 40t-8 50l-6 -2q-6 23 -16.5 43.5t-20.5 42.5q18 23 26 42.5t8 49.5q0 29 -16 78l-1 3t-3 5q-4 10 -11 21.5t-18 19.5q-29 27 -56.5 16t-43.5 -24 q-29 -20 -61 -57q-37 16 -80 26.5t-90 10.5q-100 0 -189 -41q-18 20 -38.5 38.5t-42 29t-45 8.5t-46.5 -21q-16 -8 -39.5 -27.5t-30.5 -29.5q-23 -31 -12.5 -56.5zM281 782q2 31 17 59.5t42 51t60.5 37t70.5 14.5q84 0 135.5 -42t57.5 -105q2 -27 -9.5 -63t-37 -67.5 t-64.5 -54t-92 -22.5q-47 0 -82 17.5t-57.5 45t-32.5 62.5t-8 67z" />
<glyph unicode="&#xa5;" horiz-adv-x="1275" d="M61 1298q16 -39 52.5 -106.5t80.5 -143t92 -148.5t89 -124h-6q-59 0 -98.5 -16.5t-61 -40t-29.5 -49t-4 -41.5v4q4 -37 36 -62.5t77 -25.5q18 0 33.5 1t27.5 1q16 2 35 2h45h92q-2 -27 -2 -53v-50h-78q-12 2 -24 3h-15q-92 0 -138 -16.5t-68 -80.5q-8 -12 -12.5 -29.5 t-0.5 -27.5q14 -82 115 -82h41t39 2q29 2 60.5 3t78.5 1v-37q0 -18 -2 -32q-8 -72 15.5 -121t76.5 -54q29 -4 60.5 12.5t59.5 42t48.5 56.5t26.5 57v72h119q45 0 77.5 3t57 13.5t41 30t28.5 51.5q20 33 21 56q-6 35 -29.5 51t-52.5 26q-57 0 -93 -1t-65 -1h-104 q-2 27 -1 50.5t5 52.5h135q31 0 59.5 3t52 12t40 25.5t20.5 45.5q18 31 23.5 58.5t-9.5 47.5q-10 18 -34.5 28.5t-40.5 10.5q-41 0 -78 -1t-64 -3h-10q41 74 90 160t96 162q27 45 49.5 83t39.5 68l-2 -2q12 18 22 39t17.5 40t10.5 34.5t1 23.5l2 -4q-4 35 -39 67t-74 32 q-47 0 -80 -19.5t-57.5 -50.5t-43 -66.5t-32.5 -68.5q-4 -10 -10 -24.5t-14 -24.5q-39 -80 -72 -139.5t-60.5 -103.5t-49 -77t-38.5 -57v2q-4 -4 -6 -7t-6 -7q-25 33 -59.5 85t-74.5 115.5t-83 132t-80 133.5q-35 59 -64.5 92t-72.5 33q-47 0 -88 -36.5t-62 -90.5z" />
<glyph unicode="&#xa6;" horiz-adv-x="356" d="M38 136.5q1 -19.5 1 -42.5v-24q0 -61 4 -106.5t17.5 -76t40 -46t71.5 -15.5q18 0 43 10t48.5 26.5t41 39t17.5 45.5q-4 41 -6.5 93t-2.5 107q0 53 3 106.5t8 108.5q2 31 4 62.5t4 60.5q10 121 -117 121q-12 0 -35.5 -4t-49.5 -15.5t-46.5 -30.5t-24.5 -52 q-4 -41 -6 -91.5t-4 -97.5q0 -31 -2 -70.5t-6 -70.5q-4 -18 -3 -37.5zM38 1008q1 -21 1 -41v-25q0 -61 4 -107.5t17.5 -76t40 -45t71.5 -15.5q18 0 43 10.5t48.5 27t41 39t17.5 44.5q-4 41 -6.5 93.5t-2.5 107.5q0 53 3 106.5t8 108.5q2 29 4 60.5t4 62.5q10 121 -117 121 q-12 0 -35.5 -4.5t-49.5 -15.5t-46.5 -31.5t-24.5 -51.5q-4 -41 -6 -92t-4 -96q0 -31 -2 -71t-6 -70q-4 -18 -3 -39z" />
<glyph unicode="&#xa7;" horiz-adv-x="894" d="M53 631q-4 -66 13.5 -110t59.5 -79.5t111.5 -70.5t172.5 -80q27 -12 55.5 -23.5t60.5 -27.5q61 -29 84 -45q-2 -33 -45 -63t-106 -38q-18 -2 -37 -3t-37 -1q-33 0 -57 10q-2 4 -1 1t-1 1q-6 20 -13.5 38t-22 31t-38 19.5t-62.5 4.5q-45 -4 -59 -34t-31 -83l1 1q1 1 1 5 q-4 -16 -7 -43t11 -61q20 -43 50 -69t65 -38t73 -15t75 -1q82 6 164.5 32.5t150.5 69.5t114 102.5t56 131.5q8 96 -41 161q29 54 41 138q6 63 -8.5 107t-55 81t-110.5 70.5t-172 78.5q-29 12 -60.5 25.5t-66.5 30.5q-29 16 -51.5 26.5t-32.5 20.5q2 33 45 62.5t107 35.5 q18 2 36.5 4t36.5 2q16 0 32.5 -4t27.5 -8v-2q6 -18 14 -35.5t22.5 -31t38 -20.5t60.5 -3q45 4 59.5 33.5t30.5 83.5l-1 -1t-1 -4q4 16 6 42t-10 61q-20 43 -50 67.5t-66 37t-74 15.5t-72 3q-84 -6 -167 -33t-150.5 -70t-114 -101t-54.5 -132q-10 -96 31 -154 q-12 -29 -19.5 -63.5t-11.5 -85.5zM268 641q2 8 6 21q33 -14 60.5 -23.5t68.5 -20.5l97 -28q72 -23 106.5 -47.5t34.5 -59.5q-4 -6 -5 -9l-3 -9q-29 12 -61.5 22.5t-67.5 20.5l-94 29q-72 23 -107 46t-35 58z" />
<glyph unicode="&#xa8;" horiz-adv-x="663" d="M47 1350q0 -66 29.5 -115t87.5 -49q47 0 88 41t47 104q8 68 -30 117t-91 49q-51 0 -88 -43t-43 -104zM381 1348q-4 -63 28.5 -112.5t88.5 -49.5q47 0 86 41t47 104q8 68 -30 117t-91 49q-51 0 -88 -44t-41 -105z" />
<glyph unicode="&#xa9;" horiz-adv-x="1308" d="M66 711q0 -117 44 -217.5t120.5 -175t181 -117.5t227.5 -43q129 0 239.5 47t193.5 129t132 193.5t53 240.5q0 14 -3 47t-10 73t-17.5 80.5t-24.5 71.5q-31 68 -83 122.5t-120.5 92t-150.5 59t-170 21.5q-127 0 -238.5 -48t-194.5 -132t-131 -198.5t-48 -245.5zM250 741 q0 88 29.5 162t84 128t129 84t166.5 30q121 0 215.5 -44t149.5 -136q12 -29 22.5 -78.5t14.5 -98.5q6 -137 -57.5 -243.5t-180.5 -153.5q51 31 92 84q6 8 12.5 24.5t12.5 35t9 36t1 29.5q-6 27 -31.5 46.5t-60.5 17.5t-57.5 -26t-38.5 -48l-4 -4q-12 -23 -31.5 -31 t-46.5 -10q-57 -4 -97 41t-44 139q-4 92 27.5 153.5t88.5 67.5q23 4 55.5 -4t39.5 -14q2 -4 4 -14.5t4 -20.5l2 -12q4 -33 27.5 -47.5t50.5 -14.5q33 0 55 14.5t34.5 35t17.5 45t5 44.5q0 47 -33.5 81t-79.5 55.5t-95.5 32t-79.5 10.5q-74 -6 -135.5 -42t-104.5 -95.5 t-65.5 -136.5t-20.5 -165q2 -115 55 -199.5t139 -121.5q-131 35 -205.5 134t-74.5 230z" />
<glyph unicode="&#xaa;" horiz-adv-x="854" d="M53 975q4 -80 36 -147.5t85 -115.5t125 -73t156 -18q37 4 73.5 12t67.5 24q23 -61 90 -61q14 0 34.5 11t40 28.5t33 40t15.5 45.5q-4 41 -5 97t-1 120q0 53 2 106.5t6 108.5q0 35 1 71.5t3 75.5q2 123 -96 123q-16 0 -55 -13t-60 -52q-41 23 -94 36t-109 9 q-76 -6 -142 -44t-113.5 -96.5t-73 -132t-19.5 -155.5zM262 1010q0 39 11.5 77.5t31 69.5t47 50.5t60.5 19.5q29 0 51 -15.5t43 -37.5q6 -25 30.5 -35.5t45.5 -10.5h2q-2 -47 -2 -88t-4 -79v-89q-33 -23 -64.5 -40t-60.5 -21q-88 -6 -139.5 49t-51.5 150z" />
<glyph unicode="&#xab;" horiz-adv-x="948" d="M55 541q0 -8 16.5 -34t42 -60.5t56.5 -74.5t60.5 -77t54 -65.5t37.5 -43.5q35 -29 48 -39t40 -10q16 0 37.5 11.5t40 29t31.5 39t16 39.5v-4q4 18 -13.5 48t-45 65.5t-61.5 73.5t-65 75q-10 8 -17 18.5t-14 20.5q4 10 26 32.5t46 47.5q18 20 36.5 39.5t33.5 36.5 q6 14 20 28q23 29 40.5 57.5t17.5 47.5q0 14 -8.5 32.5t-22.5 35t-30.5 27.5t-31.5 11q-66 0 -149.5 -80t-200.5 -241l2 4q-43 -43 -43 -90zM424 541q0 -8 16.5 -34t42 -60.5t56 -74.5t60.5 -77t54.5 -65.5t36.5 -43.5q35 -29 48.5 -39t39.5 -10q16 0 37 11.5t39 29t32.5 39 t16.5 39.5v-4q4 18 -13.5 48t-45 65.5t-62 73.5t-65.5 75q-8 8 -15.5 18.5t-15.5 20.5q6 10 27.5 32.5t46.5 47.5q18 20 36.5 39.5t30.5 36.5q8 14 23 28q23 29 40 57.5t17 47.5q0 14 -8 32.5t-22.5 35t-31 27.5t-30.5 11q-66 0 -149.5 -80t-202.5 -241l2 4q-41 -45 -41 -90 z" />
<glyph unicode="&#xac;" horiz-adv-x="1183" d="M61 612q6 -25 24.5 -41t42.5 -27.5t48.5 -16.5t44.5 -5q141 6 275 6q55 0 111.5 -1t111.5 -1h186v-45q0 -29 2 -58.5t13.5 -54t36 -41t71.5 -16.5q35 -2 56.5 14.5t32.5 44t15.5 63.5t4.5 77q0 18 -1 35.5t-1 38.5q-2 29 -3 53.5t1 44.5q2 33 -16.5 51.5t-47.5 26.5 t-61 8h-60q-8 0 -13 -1t-9 -1h-308q-55 0 -111 1t-112 1q-10 0 -21.5 1t-21.5 1h-61q-47 0 -89 -6t-71 -29q-27 -23 -52.5 -51.5t-17.5 -71.5z" />
<glyph unicode="&#xad;" horiz-adv-x="858" d="M53 565q12 -82 113 -82h43t39 2q29 2 61.5 3t79.5 1q23 0 36 -1t21 -1q10 -2 78 -2h72q45 0 79 3.5t58.5 13.5t41 30.5t28.5 57.5q8 16 12 34.5t4 22.5v8q-6 35 -21.5 42.5t-37.5 13.5h2q-4 2 -11.5 3t-11.5 3q-55 0 -82.5 -1t-44.5 -1h-114q-45 0 -65.5 1t-37.5 1h-86 q-10 2 -22 2h-15q-92 0 -138 -16.5t-68 -77.5q-8 -14 -12.5 -30.5t-0.5 -29.5z" />
<glyph unicode="&#xae;" horiz-adv-x="1308" d="M66 711q0 -117 44 -217.5t120.5 -175t181 -117.5t227.5 -43q129 0 239.5 47t193.5 129t132 193.5t53 240.5q0 14 -3 47t-10 73t-17.5 80.5t-24.5 71.5q-31 68 -83 122.5t-120.5 92t-150.5 59t-170 21.5q-127 0 -238.5 -48t-194.5 -132t-131 -198.5t-48 -245.5zM250 741 q0 104 40 186.5t111 135.5q-14 -19 -14 -37q0 -47 41 -74v-14q-2 -31 -4 -66.5t-3 -71.5t-2 -69t-1 -55v-29q0 -59 2 -121.5t8 -99.5q0 -6 2 -8q-86 51 -133 135t-47 188zM502 1118q76 27 157 27q121 0 215.5 -44t149.5 -136q12 -29 22.5 -78.5t14.5 -98.5 q4 -82 -16.5 -151.5t-61.5 -122.5q-12 14 -30.5 30.5t-37.5 33.5q-12 10 -23 19t-26 21q-16 12 -32.5 25.5t-32.5 30.5q61 27 113.5 74t62.5 122q8 61 -11.5 111.5t-62.5 86.5t-106.5 54.5t-141.5 18.5q-76 0 -153 -23zM567 369q31 20 48.5 59t13.5 84q-4 14 -5 29.5 t-3 29.5q35 -27 73.5 -59.5t73.5 -62.5l10 -9q10 -10 21.5 -21t25.5 -24q-37 -16 -81 -25.5t-91 -9.5q-51 0 -86 9zM627 809q2 16 3 42t1 60v45q12 2 26 2h29q41 0 66.5 -25.5t15.5 -53.5q-4 -29 -43 -47.5t-98 -22.5z" />
<glyph unicode="&#xaf;" horiz-adv-x="675" d="M47 1255q4 -41 29.5 -63.5t66.5 -22.5h31q16 0 33 2h-2q20 2 44.5 3.5t59.5 1.5q16 0 24.5 -1t14.5 -1q8 -2 19 -3h45h55q35 0 61.5 3.5t46 13.5t31.5 30.5t23 55.5q6 14 10 32.5t4 22.5v8q-6 29 -18.5 38t-28.5 16q-4 2 -9 4t-9 4q-43 0 -66 -1t-37 -1h-84q-35 0 -50 1 t-26 1h-61q-10 2 -21 2h-12q-76 0 -112.5 -16.5t-51.5 -81.5q-14 -31 -8 -54z" />
<glyph unicode="&#xb0;" horiz-adv-x="665" d="M49 1243q-6 -63 10.5 -121.5t51 -103.5t88 -71.5t118.5 -26.5q61 0 119 25.5t101 69.5t69.5 101t26.5 123q0 59 -22.5 111.5t-61.5 90.5t-91 60.5t-110 22.5q-57 0 -107.5 -23.5t-90 -62.5t-66.5 -89.5t-35 -105.5zM233 1217q-4 47 26 86.5t75 39.5q47 0 73.5 -31.5 t30.5 -80.5v-2q4 -49 -29.5 -86t-78.5 -37q-43 0 -67.5 34t-29.5 77z" />
<glyph unicode="&#xb1;" horiz-adv-x="1062" d="M57 70q6 -25 22.5 -42.5t38 -26.5t45 -14t42.5 -5q123 6 241 6q51 0 100.5 -1t98.5 -1h166q72 0 123 20.5t78 99.5q6 10 7 17.5t1 17.5q0 35 -18.5 52.5t-44 25.5t-55.5 7t-54 -3q-6 0 -10 -1t-9 -1h-172v2q2 0 2 2l-1 2t-1 6q0 37 -1 75t-3 73q-2 29 -2 53v51h164 q68 0 110 16.5t76 88.5q18 29 19 57q0 18 -8 31.5t-20.5 21t-27 11.5t-26.5 6q-16 2 -35.5 3t-44.5 1q-33 0 -69.5 -1t-71.5 -3q-16 -2 -33 -2h-29q2 16 1 12t-1 12v119q0 4 1 13.5t1 15.5q2 27 1 59.5t-8 61t-25.5 48t-53.5 19.5q-16 6 -43.5 8t-40.5 0q-39 -6 -49 -28.5 t-14 -46.5q-2 -16 -3 -38t-1 -50q0 -31 1 -68t3 -72q2 -23 2 -35v-28h-115q-8 0 -17 1t-20 1h-61q-31 0 -57.5 -8.5t-48 -27.5t-33.5 -56q-10 -16 -15.5 -27.5t-1.5 -32.5q12 -49 42 -66.5t73 -17.5h55q29 0 57.5 2t55.5 3t55 1h29v-114v-17q0 -8 -2 -18q-2 -16 -3 -34.5 t-1 -41.5v-20t2 -21h-62q-8 0 -17 1t-19 1h-52q-27 0 -55.5 -3t-53 -11t-40.5 -21q-20 -18 -44 -47.5t-20 -72.5z" />
<glyph unicode="&#xb2;" horiz-adv-x="671" d="M47 1190q4 -41 29.5 -62.5t64.5 -17.5q35 0 50.5 19.5t25.5 35.5q20 29 46 48.5t61 15.5q14 -2 27.5 -10.5t13.5 -18.5q4 -23 -5.5 -44t-33.5 -52v2q-18 -23 -42 -50.5t-55 -62.5q-18 -18 -38.5 -39.5t-43.5 -44.5v2q-14 -14 -30.5 -36.5t-29.5 -48t-22.5 -50t-9.5 -43.5 q4 -23 12.5 -37t20.5 -28q10 -6 36 -19.5t40 -13.5q4 0 8 1t6 1q35 4 74 5t80 1h145h17q10 0 20 -2h2q20 0 43 9t40 24.5t28.5 35t11.5 38.5q0 37 -34 63.5t-122 26.5h-28q-14 0 -31 2q-23 2 -47 2h-47q16 14 29.5 27.5t31.5 29.5q33 31 65.5 62.5t59.5 68.5t43 79t16 95 q0 49 -20 88t-53 66.5t-76 42t-88 14.5q-47 0 -99.5 -18.5t-96.5 -50t-71.5 -72.5t-23.5 -84z" />
<glyph unicode="&#xb3;" horiz-adv-x="661" d="M47 807q8 -37 36 -69.5t67.5 -57.5t88 -39t95.5 -14q61 0 115.5 20.5t94.5 56t62.5 83t22.5 102.5q0 63 -33 110.5t-82 77.5q49 49 55 115q2 49 -17.5 90t-54 70.5t-81.5 46t-103 16.5q-35 0 -75.5 -11t-76.5 -31.5t-62.5 -49.5t-32.5 -61q-10 -41 15 -72t66 -31 q16 0 36 9.5t32 27.5q55 43 102 37q23 -4 37.5 -13.5t12.5 -25.5q0 -23 -33 -33t-68 -18q-53 -6 -82.5 -40t-23.5 -73q4 -41 30.5 -54t57.5 -18q39 6 53 7q53 -2 89 -27t36 -66q0 -27 -26.5 -46t-73.5 -15q-35 4 -58.5 21.5t-48.5 46.5q-25 45 -74 45q-18 0 -37.5 -9.5 t-34 -25t-22.5 -37t-4 -45.5z" />
<glyph unicode="&#xb4;" horiz-adv-x="471" d="M47 1167q-10 -43 16 -71h-2q27 -29 68 -20t86 35t86 59.5t68 56.5q6 6 14 10q59 66 59 125q0 18 -7 38.5t-25 41.5l-2 2q-41 41 -86 41q-37 0 -68 -21.5t-59 -52.5q-18 -25 -51 -66.5t-60 -88t-37 -89.5z" />
<glyph unicode="&#xb6;" horiz-adv-x="952" />
<glyph unicode="&#xb7;" horiz-adv-x="389" d="M39 725q2 -76 49 -133t123 -57q39 0 70.5 16t52 43t28 62.5t-5.5 76.5v-2q-2 4 -4 11.5t-4 13.5l2 -2q-14 66 -51 95.5t-109 29.5q-68 0 -109.5 -45.5t-41.5 -108.5z" />
<glyph unicode="&#xb8;" horiz-adv-x="731" d="M39 -287q0 23 3 42.5t7 29.5q6 33 30.5 49t53.5 21q25 2 40 -4.5t22.5 -17.5t8.5 -25.5t1 -26.5v-6q0 -10 -2 -8q18 -27 56 -37.5t83 -5.5q53 4 86 25.5t33 45.5q0 14 -24.5 31.5t-61.5 40.5q-20 10 -26.5 12t-10.5 6q-14 6 -26.5 13.5t-24.5 11.5q-20 12 -39 24.5 t-35 24.5q-20 16 -31.5 40t-11.5 40v39v-6q0 2 1 4t1 6v8q0 39 20.5 57.5t47.5 24.5h57q39 0 60.5 -7t31.5 -20.5t10 -33.5t-4 -48q0 2 2 5v-9q4 -4 9 -6h2q14 -8 51 -28q12 -4 27.5 -11.5t31.5 -17.5h-2q160 -82 178 -195l2 -16q0 -4 -1 -10t-1 -11q-2 -18 -8 -41.5 t-18 -44.5v3q-23 -35 -61 -63t-85 -45t-101 -25.5t-108 -2.5q-82 6 -139 23.5t-111 64.5q-14 14 -19 36t-5 44z" />
<glyph unicode="&#xb9;" horiz-adv-x="401" d="M41 1229q4 -35 28.5 -55.5t59.5 -20.5q18 0 25 2v-29q0 -8 -1 -18t-1 -16q0 -10 -1 -21.5t-1 -19.5q-4 -41 -6.5 -81t-2.5 -77l-2 -158q-2 2 -4 2q-18 -18 -36.5 -39.5t-21.5 -39t15.5 -30t75.5 -12.5h72q8 0 15 -1t11 -1h35q25 4 49.5 18.5t24.5 59.5q0 18 -7.5 28.5 t-17.5 18.5q-4 37 -5 71t-1 69q0 74 5 146.5t11 143.5q0 8 1 16.5t1 14.5q0 4 1.5 8t1.5 9q4 31 0.5 68.5t-23.5 66.5q-8 25 -24.5 33t-36.5 16q-20 0 -29.5 -4t-18.5 -8q-31 -12 -66.5 -31t-64 -41.5t-47 -45t-14.5 -42.5z" />
<glyph unicode="&#xba;" horiz-adv-x="727" d="M51 1073q-8 -70 9.5 -136.5t57.5 -118.5t99 -85t133 -33q76 0 138.5 29t107.5 77t70.5 112.5t25.5 138.5q0 35 -8 76h-6q-12 51 -39 97t-64.5 81t-85 54t-102.5 19q-66 0 -123 -25.5t-102 -68.5t-74 -99t-37 -118zM250 1059q4 53 38 95t81 42q49 0 81.5 -35t36.5 -88v-2 q2 -23 -5 -52.5t-22.5 -57t-41 -47t-58.5 -19.5q-29 0 -50 15.5t-34.5 39t-19.5 52t-6 57.5z" />
<glyph unicode="&#xbb;" horiz-adv-x="948" d="M55 842q0 14 8.5 32.5t22.5 35t29.5 27.5t31.5 11q66 0 150 -80t203 -241l-2 4q41 -45 41 -90q0 -8 -16.5 -34t-42 -60.5t-56.5 -74.5t-60.5 -77t-54 -65.5t-37.5 -43.5q-35 -29 -48 -39t-40 -10q-16 0 -36.5 11.5t-39 29t-33 39t-16.5 39.5v-4q-4 18 12.5 49t44 65.5 t62.5 73.5t66 74q10 10 17 18.5t15 18.5q-8 10 -27.5 31.5t-41.5 44.5h-2q-16 16 -35.5 39.5t-34.5 42.5q-4 4 -5 7t-5 7q-23 33 -46.5 64.5t-23.5 54.5zM424 842q0 14 8 32.5t22.5 35t30 27.5t31.5 11q66 0 150 -80t200 -241l-2 4q43 -43 43 -90q0 -8 -16.5 -34t-42 -60.5 t-56 -74.5t-60.5 -77t-54.5 -65.5t-36.5 -43.5q-35 -29 -48 -39t-40 -10q-16 0 -37.5 11.5t-40 29t-32 39t-15.5 39.5v-4q-4 18 12.5 49t44 65.5t61.5 73.5t64 74q12 10 19.5 18.5t13.5 18.5q-6 10 -25.5 31.5t-44.5 44.5h-2q-14 16 -33.5 39.5t-35.5 42.5q-2 4 -3 7t-5 7 q-23 33 -46.5 64.5t-23.5 54.5z" />
<glyph unicode="&#xbc;" horiz-adv-x="1275" d="M63 1229q6 -35 31 -55.5t60 -20.5q16 0 24 2q0 -6 -1 -14t-1 -15q0 -8 -1 -18t-1 -16q0 -10 -1 -21.5t-1 -19.5q-4 -41 -6 -81t-2 -77l-2 -158l-2 2q-18 -18 -37 -39.5t-22 -39t15.5 -30t76.5 -12.5h71q6 0 13.5 -1t13.5 -1h37q25 4 48 18.5t23 59.5q0 18 -7 28.5 t-17 18.5q-4 37 -5 71t-1 69q0 74 4 146.5t10 143.5q0 8 1 16.5t1 14.5q0 4 1 8t1 11q4 31 2 68.5t-22 66.5q-10 20 -27.5 29.5t-36.5 17.5q-20 0 -29.5 -4t-15.5 -8q-33 -12 -68.5 -31t-64.5 -41.5t-47.5 -45t-14.5 -42.5zM248 356q0 -41 20 -75q6 -25 14.5 -37.5 t28.5 -16.5q39 -20 78 0.5t72 71.5q8 10 14 21.5t14 21.5q23 35 51.5 79t71.5 103v-2q23 31 32 43.5t15.5 20.5t16.5 22.5t39 55.5l53 75q41 61 63.5 102.5t22.5 82.5q0 39 -18 80q-6 23 -20.5 39t-16.5 18l-11 8q-31 16 -50 7t-40 -27l-2 -3q-2 -2 -10 -8 q-37 -53 -58.5 -82.5t-33.5 -46.5q-6 -12 -12.5 -22t-15.5 -23.5t-23.5 -34t-34.5 -51.5q-37 -53 -51.5 -72.5t-28.5 -39.5v2q-10 -12 -24.5 -32t-36.5 -52q-6 -6 -9.5 -11.5t-7.5 -9.5q-4 -6 -8 -10t-6 -8q-41 -61 -64.5 -103.5t-23.5 -85.5zM575 256q-2 -35 25 -68.5 t88 -33.5h51q37 0 76 1t82 3q4 -23 11 -50.5t18.5 -53t27 -43t37.5 -17.5q14 0 33.5 8t37 23.5t29 36t9.5 44.5v9q-4 20 -4 47h14q20 -4 40.5 6t37 28.5t28 41t11.5 43.5q0 33 -18.5 53t-61.5 26h-27q-10 0 -20 -2h-2q2 29 3 67t3 67q4 47 -18.5 78.5t-71.5 31.5 q-8 0 -24.5 -3t-33.5 -11q33 74 29 117q-2 35 -28.5 54t-55.5 19q-16 0 -36.5 -9t-40 -26.5t-37 -43t-23.5 -58.5v4q-16 -49 -27.5 -79.5t-23.5 -59.5q-10 -18 -29.5 -52t-52.5 -81l-8 -17q-2 -2 -3.5 -5t-5.5 -7q-10 -16 -26.5 -36.5t-12.5 -51.5zM840 348q12 23 27.5 51.5 t31.5 59.5v-66q0 -10 -1 -21.5t-1 -23.5h-57z" />
<glyph unicode="&#xbd;" horiz-adv-x="1349" d="M66 1229q6 -35 30.5 -55.5t59.5 -20.5q16 0 24 2q0 -6 -1 -14t-1 -15q0 -8 -1 -18t-1 -16q0 -10 -1 -21.5t-1 -19.5q-4 -41 -6 -81t-2 -77l-2 -158q-2 2 -4 2q-16 -18 -35 -39.5t-22 -39t15.5 -30t76.5 -12.5h71q6 0 13.5 -1t13.5 -1h35q25 4 49 18.5t24 59.5 q0 18 -8 28.5t-18 18.5q-4 37 -4 70v70q0 74 4 146.5t10 143.5q0 8 1 16.5t1 14.5q0 4 1 8t1 9q4 31 2 68.5t-22 66.5q-10 25 -25.5 33t-38.5 16q-20 0 -29.5 -4t-15.5 -8q-33 -12 -68.5 -31t-64.5 -41.5t-47.5 -45t-13.5 -42.5zM250 356q0 -41 20 -75q6 -25 14.5 -37.5 t28.5 -16.5q39 -20 78 0.5t72 71.5q8 10 14 21.5t15 21.5q23 35 51 79t71 103v-2q23 31 32 43.5t15.5 20.5t16.5 22.5t39 55.5l53 75q41 61 63.5 102.5t22.5 82.5q0 39 -18 80q-6 23 -20.5 39t-16.5 18l-10 8q-31 16 -50.5 7t-40.5 -27l-2 -3q-2 -2 -10 -8 q-37 -53 -58.5 -82.5t-33.5 -46.5q-6 -12 -12 -22t-15.5 -23.5t-24 -34t-34.5 -51.5q-37 -53 -52.5 -72.5t-27.5 -39.5v2q-10 -12 -24.5 -32t-36.5 -52q-6 -6 -9.5 -11.5t-7.5 -9.5q-4 -6 -8 -10t-6 -8q-41 -61 -64.5 -103.5t-23.5 -85.5zM707 543q6 -39 31.5 -59.5 t64.5 -16.5q33 0 48 19.5t26 35.5q20 29 46.5 48.5t61.5 15.5q12 -2 25.5 -11.5t13.5 -19.5q6 -35 -39 -94q-10 -16 -41 -47t-65 -70q-16 -16 -35 -36.5t-37 -41.5q-14 -16 -30.5 -39.5t-30 -48t-22.5 -48.5t-9 -40q2 -23 10 -38t23 -27q10 -6 35.5 -19.5t39.5 -13.5 q8 0 12.5 -1t10.5 3q51 4 118.5 5t127.5 1h63q4 0 9 -1t12 -1q20 0 42.5 9t40 24.5t28.5 35t11 37.5q0 37 -34.5 64t-120.5 27q-12 0 -28.5 1t-33.5 1h-92q16 16 30.5 29.5t33.5 29.5q33 31 65.5 62.5t58 68.5t42 80t16.5 94q0 49 -20.5 88t-54.5 66.5t-76 42t-87 14.5 q-47 0 -99 -19.5t-96 -51t-72 -72.5t-23 -86z" />
<glyph unicode="&#xbe;" horiz-adv-x="1454" d="M68 807q8 -37 35.5 -69.5t67.5 -57.5t88 -39t95 -14q63 0 116.5 20.5t93.5 56t62.5 83t22.5 102.5q0 63 -31.5 110.5t-82.5 77.5q49 47 55 115q2 49 -17.5 90t-54.5 70.5t-82 46t-102 16.5q-35 0 -75 -11t-76 -31.5t-63.5 -49.5t-33.5 -61q-10 -41 16.5 -72t67.5 -31 q16 0 34.5 9.5t33.5 27.5q55 43 102 37q23 -4 37 -13.5t12 -25.5q0 -23 -33.5 -33t-68.5 -18q-53 -6 -82 -40t-25 -73q4 -41 31 -54t59 -18q37 6 52 7q53 -2 88.5 -27t35.5 -66q0 -27 -26.5 -46t-73.5 -15q-37 4 -58.5 21.5t-45.5 46.5q-27 45 -74 45q-41 0 -74 -34t-26 -83 zM420 354q0 -16 4 -34.5t14 -34.5q6 -27 15.5 -40.5t31.5 -17.5q35 -16 75 2.5t71 65.5q10 16 23.5 35.5t27.5 42.5q23 29 45.5 66.5t56.5 84.5v-2q23 31 31 43.5t14 20.5q8 8 18.5 22.5t39.5 55.5q12 16 25.5 37.5t25.5 37.5q35 51 61.5 100.5t26.5 84.5q0 41 -20 80 q-4 23 -19.5 39t-17.5 18l-8 8q-31 16 -51.5 7t-39.5 -27q-2 -2 -4 -4.5t-10 -8.5q-35 -49 -55.5 -78.5t-30.5 -46.5q-8 -12 -14 -22t-16.5 -23.5t-25 -34t-36.5 -53.5q-25 -35 -38 -54t-22.5 -32.5t-18.5 -24t-21 -28.5q-6 -10 -17.5 -24.5t-25.5 -32.5q-8 -14 -15.5 -22.5 t-11.5 -12.5q-41 -63 -64.5 -106.5t-23.5 -86.5zM748 256q-2 -35 24.5 -68.5t85.5 -33.5h53q37 0 76 1t82 3q2 -23 9 -50.5t19.5 -53t28 -43t37.5 -17.5q14 0 34 8t38 23.5t29.5 37t7.5 46.5v-7q0 4 -1 11.5t-1 13.5q-2 8 -2 16q0 10 -2 19h16q20 -4 40.5 6t37 28.5t27 41 t10.5 43.5q0 33 -17.5 53t-60.5 26h-27q-10 0 -20 -2h-2q2 29 3 67t3 67q4 47 -18.5 78.5t-73.5 31.5q-6 0 -22.5 -3t-33.5 -11q14 35 22.5 66.5t6.5 52.5q-4 33 -30.5 52t-55.5 19q-14 0 -34.5 -9t-41 -26.5t-37 -43t-24.5 -58.5v4q-16 -49 -27.5 -79.5t-21.5 -59.5 q-10 -18 -29.5 -52t-52.5 -81l-10 -17q-2 -2 -3.5 -5t-5.5 -7q-10 -16 -25.5 -36.5t-10.5 -51.5zM1010 348q14 23 29.5 51.5t31.5 59.5v-66q0 -10 -1 -21.5t-1 -23.5h-59z" />
<glyph unicode="&#xbf;" horiz-adv-x="937" d="M55 203l78 -2q0 -39 3 -84t5 -82t-1 -59.5t-15 -14.5q59 -82 154.5 -126t205.5 -44q16 0 31.5 1t30.5 3q55 8 101 18.5t85 28t74 44t67 69.5q12 18 17.5 45t5.5 55q0 43 -5 82t-9 51q-6 35 -31 58.5t-59 27.5h4q-29 6 -44.5 1t-22.5 -17t-8 -31.5t1 -42.5q2 -16 2 -32 t-8 -27q-27 -61 -86.5 -83t-122.5 -15q-82 8 -136.5 61t-54.5 125q0 35 17.5 65.5t46.5 58.5t64.5 53.5t72.5 49.5q47 33 89 64t69 69q20 20 29.5 42t11.5 43.5t1 44t-3 42.5q-2 10 -2 15v10q-2 41 -13.5 62.5t-30 30.5t-40.5 9h-41h-19q-43 0 -66.5 -9t-34.5 -24.5t-12 -37 t3 -45.5v-56q-4 -14 -9.5 -23t-15.5 -19.5t-27.5 -22.5t-44.5 -33l3 2q-16 -10 -39 -26.5t-47 -34.5q-211 -154 -224 -340zM406 1110q0 -27 8 -43v4q12 -53 54 -86t97 -33q37 0 65.5 16.5t47 44t26 62.5t1.5 70q-16 53 -62.5 85t-93.5 32q-66 0 -106.5 -46.5t-36.5 -105.5z " />
<glyph unicode="&#xc0;" horiz-adv-x="1343" d="M66 94q0 -53 33.5 -82.5t72.5 -29.5q47 0 86 37.5t68.5 92t51 115t38.5 105.5q8 8 18 35q2 6 6 10t13.5 8t28 7t50.5 7q23 2 47.5 3t53.5 1q35 0 70.5 -1t70.5 -3q41 -2 76 -3t61 -1q14 0 19.5 -16.5t9.5 -36.5q2 -6 5 -20.5t5 -18.5q23 -68 45.5 -126t46 -101t51 -67.5 t60.5 -24.5q14 0 37.5 20.5t46.5 48t39 56t14 45.5l2 -7q-4 23 -17 58t-32 71q-10 25 -18 47.5t-17 43.5v-2q-68 215 -136 424.5t-136 420.5q-12 29 -14 52q-8 33 -17.5 65.5t-26 59t-42 43t-64.5 16.5q-27 0 -73 -20.5t-78 -51.5q-29 -25 -62 -83t-67.5 -136t-71.5 -168 t-74 -178q-23 -57 -43 -110.5t-41 -100.5l-24 -51q-27 -66 -49.5 -124t-38.5 -118v2q-14 -33 -24.5 -58.5t-21.5 -47.5l2 2q-16 -33 -25 -59.5t-15 -49.5zM543 631q12 31 20 52.5t17.5 40.5t19.5 41.5t25 53.5q23 51 46 103.5t46 109.5l129 -399q-35 -4 -70 -4h-61 q-20 0 -40 1t-36 1h-96zM563 1786q0 -33 16.5 -63.5t45.5 -59.5q0 -4 8 -9t12 -9q29 -25 69 -57t83 -55.5t82.5 -30.5t66.5 20t16.5 70.5t-37 90t-59 87t-53.5 65.5q-29 33 -60.5 53.5t-66.5 20.5q-23 0 -45.5 -10.5t-42.5 -32.5q-18 -18 -26.5 -40t-8.5 -40z" />
<glyph unicode="&#xc1;" horiz-adv-x="1343" d="M66 94q0 -53 33.5 -82.5t72.5 -29.5q47 0 86 37.5t68.5 92t51 115t38.5 105.5q8 8 18 35q2 6 6 10t13.5 8t28 7t50.5 7q23 2 47.5 3t53.5 1q35 0 70.5 -1t70.5 -3q41 -2 76 -3t61 -1q14 0 19.5 -16.5t9.5 -36.5q2 -6 5 -20.5t5 -18.5q23 -68 45.5 -126t46 -101t51 -67.5 t60.5 -24.5q14 0 37.5 20.5t46.5 48t39 56t14 45.5l2 -7q-4 23 -17 58t-32 71q-10 25 -18 47.5t-17 43.5v-2q-68 215 -136 424.5t-136 420.5q-12 29 -14 52q-8 33 -17.5 65.5t-26 59t-42 43t-64.5 16.5q-27 0 -73 -20.5t-78 -51.5q-29 -25 -62 -83t-67.5 -136t-71.5 -168 t-74 -178q-23 -57 -43 -110.5t-41 -100.5l-24 -51q-27 -66 -49.5 -124t-38.5 -118v2q-14 -33 -24.5 -58.5t-21.5 -47.5l2 2q-16 -33 -25 -59.5t-15 -49.5zM543 631q12 31 20 52.5t17.5 40.5t19.5 41.5t25 53.5q23 51 46 103.5t46 109.5l129 -399q-35 -4 -70 -4h-61 q-20 0 -40 1t-36 1h-96zM583.5 1592.5q10.5 43.5 37 90t59.5 87t53 65.5q29 33 60.5 53.5t66.5 20.5q41 0 86 -41q37 -37 37 -82q0 -31 -17.5 -62.5t-45.5 -60.5q-10 -12 -19 -18q-29 -25 -69.5 -57t-83.5 -55.5t-82 -30.5t-66 20h-2q-25 27 -14.5 70.5z" />
<glyph unicode="&#xc2;" horiz-adv-x="1343" d="M66 94q0 -53 33.5 -82.5t72.5 -29.5q47 0 86 37.5t68.5 92t51 115t38.5 105.5q8 8 18 35q2 6 6 10t13.5 8t28 7t50.5 7q23 2 47.5 3t53.5 1q35 0 70.5 -1t70.5 -3q41 -2 76 -3t61 -1q14 0 19.5 -16.5t9.5 -36.5q2 -6 5 -20.5t5 -18.5q23 -68 45.5 -126t46 -101t51 -67.5 t60.5 -24.5q14 0 37.5 20.5t46.5 48t39 56t14 45.5l2 -7q-4 23 -17 58t-32 71q-10 25 -18 47.5t-17 43.5v-2q-68 215 -136 424.5t-136 420.5q-12 29 -14 52q-8 33 -17.5 65.5t-26 59t-42 43t-64.5 16.5q-27 0 -73 -20.5t-78 -51.5q-29 -25 -62 -83t-67.5 -136t-71.5 -168 t-74 -178q-23 -57 -43 -110.5t-41 -100.5l-24 -51q-27 -66 -49.5 -124t-38.5 -118v2q-14 -33 -24.5 -58.5t-21.5 -47.5l2 2q-16 -33 -25 -59.5t-15 -49.5zM481 1595q-2 -12 3 -32.5t19.5 -38t42 -27.5t72.5 -4q23 10 56 44t63 75v-2q12 14 23.5 28.5t21.5 26.5 q16 -10 19.5 -20.5t19.5 -34.5q29 -39 57.5 -75t59.5 -40q70 0 100.5 24.5t24.5 65.5v-2q-4 29 -39 79t-70 91q-4 4 -7 9t-7 12q-6 8 -14 16t-15 18q-16 25 -32.5 44.5t-32.5 29.5q-14 16 -33.5 20.5t-36.5 0.5q-27 0 -45 -9.5t-35 -21.5q-37 -37 -73.5 -78t-67.5 -79 t-51.5 -69.5t-22.5 -50.5zM543 631q12 31 20 52.5t17.5 40.5t19.5 41.5t25 53.5q23 51 46 103.5t46 109.5l129 -399q-35 -4 -70 -4h-61q-20 0 -40 1t-36 1h-96z" />
<glyph unicode="&#xc3;" horiz-adv-x="1343" d="M66 94q0 -53 33.5 -82.5t72.5 -29.5q47 0 86 37.5t68.5 92t51 115t38.5 105.5q8 8 18 35q2 6 6 10t13.5 8t28 7t50.5 7q23 2 47.5 3t53.5 1q35 0 70.5 -1t70.5 -3q41 -2 76 -3t61 -1q14 0 19.5 -16.5t9.5 -36.5q2 -6 5 -20.5t5 -18.5q23 -68 45.5 -126t46 -101t51 -67.5 t60.5 -24.5q14 0 37.5 20.5t46.5 48t39 56t14 45.5l2 -7q-4 23 -17 58t-32 71q-10 25 -18 47.5t-17 43.5v-2q-68 215 -136 424.5t-136 420.5q-12 29 -14 52q-8 33 -17.5 65.5t-26 59t-42 43t-64.5 16.5q-27 0 -73 -20.5t-78 -51.5q-29 -25 -62 -83t-67.5 -136t-71.5 -168 t-74 -178q-23 -57 -43 -110.5t-41 -100.5l-24 -51q-27 -66 -49.5 -124t-38.5 -118v2q-14 -33 -24.5 -58.5t-21.5 -47.5l2 2q-16 -33 -25 -59.5t-15 -49.5zM434 1659q0 -31 8.5 -56.5t25.5 -40t42 -10.5t55 35q45 45 97 45q49 0 96 -53q76 -61 164 -61q57 0 111 24.5 t102 77.5q45 31 45 86q0 29 -11.5 54.5t-31 37.5t-45 8t-54.5 -32q-23 -23 -47 -35.5t-51 -12.5q-51 0 -94 52q-39 33 -83 49t-85 16q-121 0 -215 -104l4 2q-16 -12 -24.5 -36t-8.5 -46zM543 631q12 31 20 52.5t17.5 40.5t19.5 41.5t25 53.5q23 51 46 103.5t46 109.5 l129 -399q-35 -4 -70 -4h-61q-20 0 -40 1t-36 1h-96z" />
<glyph unicode="&#xc4;" horiz-adv-x="1343" d="M66 94q0 -53 33.5 -82.5t72.5 -29.5q47 0 86 37.5t68.5 92t51 115t38.5 105.5q8 8 18 35q2 6 6 10t13.5 8t28 7t50.5 7q23 2 47.5 3t53.5 1q35 0 70.5 -1t70.5 -3q41 -2 76 -3t61 -1q14 0 19.5 -16.5t9.5 -36.5q2 -6 5 -20.5t5 -18.5q23 -68 45.5 -126t46 -101t51 -67.5 t60.5 -24.5q14 0 37.5 20.5t46.5 48t39 56t14 45.5l2 -7q-4 23 -17 58t-32 71q-10 25 -18 47.5t-17 43.5v-2q-68 215 -136 424.5t-136 420.5q-12 29 -14 52q-8 33 -17.5 65.5t-26 59t-42 43t-64.5 16.5q-27 0 -73 -20.5t-78 -51.5q-29 -25 -62 -83t-67.5 -136t-71.5 -168 t-74 -178q-23 -57 -43 -110.5t-41 -100.5l-24 -51q-27 -66 -49.5 -124t-38.5 -118v2q-14 -33 -24.5 -58.5t-21.5 -47.5l2 2q-16 -33 -25 -59.5t-15 -49.5zM477 1696q0 -66 29 -118t86 -50q49 0 88 40.5t47 106.5q6 68 -31 118t-90 48q-49 0 -87 -43t-42 -102zM543 631 q12 31 20 52.5t17.5 40.5t19.5 41.5t25 53.5q23 51 46 103.5t46 109.5l129 -399q-35 -4 -70 -4h-61q-20 0 -40 1t-36 1h-96zM807 1696q0 -66 28.5 -118t88.5 -50q47 0 88 40.5t45 106.5q8 68 -28 118t-91 48q-49 0 -87 -43t-44 -102z" />
<glyph unicode="&#xc5;" horiz-adv-x="1343" d="M66 94q0 -53 33.5 -82.5t72.5 -29.5q47 0 86 37.5t68.5 92t51 115t38.5 105.5q8 8 18 35q2 6 6 10t13.5 8t28 7t50.5 7q23 2 47.5 3t53.5 1q35 0 70.5 -1t70.5 -3q41 -2 76 -3t61 -1q14 0 19.5 -16.5t9.5 -36.5q2 -6 5 -20.5t5 -18.5q23 -68 45.5 -126t46 -101t51 -67.5 t60.5 -24.5q14 0 37.5 20.5t46.5 48t39 56t14 45.5l2 -7q-4 23 -17 58t-32 71q-10 25 -18 47.5t-17 43.5v-2q-68 215 -136 424.5t-136 420.5q-12 29 -14 52q-12 53 -32 102t-65 70q100 23 170 95.5t70 170.5q0 51 -21.5 95t-58.5 77t-87 51.5t-107 18.5q-55 0 -103.5 -20.5 t-86.5 -53.5t-64.5 -76t-34.5 -88q-6 -51 6 -97t39.5 -82t71 -60.5t96.5 -32.5q-25 -10 -50.5 -25.5t-43.5 -32.5q-29 -25 -62 -83t-67.5 -136t-71.5 -168t-74 -178q-23 -57 -43 -110.5t-41 -100.5l-24 -51q-27 -66 -49.5 -124t-38.5 -118v2q-14 -33 -24.5 -58.5 t-21.5 -47.5l2 2q-16 -33 -25 -59.5t-15 -49.5zM543 631q12 31 20 52.5t17.5 40.5t19.5 41.5t25 53.5q23 51 46 103.5t46 109.5l129 -399q-35 -4 -70 -4h-61q-20 0 -40 1t-36 1h-96zM696 1683q-2 31 22.5 55.5t59.5 24.5q39 0 59.5 -20.5t24.5 -54.5q4 -31 -23.5 -54.5 t-64.5 -23.5q-35 0 -54.5 22.5t-23.5 50.5z" />
<glyph unicode="&#xc6;" horiz-adv-x="2054" d="M91 78.5q7 -19.5 22.5 -35.5t34 -27.5t34.5 -13.5q47 -4 87 14.5t76 50t67.5 75.5t62.5 91q14 23 26.5 46.5t28.5 46.5q39 57 77 111.5t77 111.5q10 2 22.5 3t24.5 3q29 4 61.5 9t77.5 9q27 4 39 5h19q10 0 26.5 1t51.5 5l26 2v-19q0 -137 4 -234t18.5 -163t43 -104.5 t79 -58t123 -26t177.5 -6.5q125 0 224 13.5t166.5 40t97.5 67.5t15 97l2 -5q-8 37 -32.5 58.5t-71.5 21.5q-14 0 -31 -4l4 2q-104 -25 -200.5 -35t-194.5 -12q-47 0 -82 5t-49 18q-10 41 -15 125t-5 176v30t2 29q29 20 100.5 24.5t191.5 10.5q37 2 71 5t65 13h34 q53 18 86 57.5t29 80.5q-6 41 -33.5 64.5t-87.5 23.5q-45 0 -115.5 -4.5t-148.5 -12.5q-49 -4 -96 -8t-90 -8q-6 29 -7 60.5t-1 64.5q0 57 5 111.5t9 82.5q20 10 52 15.5t67 8.5t71.5 4t67.5 1h59q10 0 22.5 -1t24.5 -1q51 -2 99.5 2t77.5 27q31 18 47 51t14 61 q-8 66 -75.5 85.5t-194.5 19.5h-37q-63 0 -129 -3t-126.5 -8.5t-113.5 -13.5t-92 -18q-12 0 -26.5 -4t-30.5 -9q-55 4 -100.5 -14t-80 -50t-64.5 -74t-54 -83q-10 -18 -21.5 -35.5t-23.5 -33.5q-45 -70 -93.5 -141.5t-97.5 -147.5q-102 -160 -205.5 -316.5t-205.5 -291.5 l-21 -27q-10 -23 -18.5 -33t-18.5 -16q-8 -23 -1 -42.5zM852 801q55 80 106.5 156t96.5 137v-4q0 -39 -3 -79t-8 -85q-2 -27 -5 -55.5t-5 -55.5h-14q-6 0 -16 -2h-3q-10 -2 -20 -3t-27 -3q-35 -4 -59 -4q-23 0 -35 -2h-8zM1092 1382h2q0 2 2 2q-2 0 -2 -2h-2z" />
<glyph unicode="&#xc7;" horiz-adv-x="1202" d="M61 614q2 -115 36 -213t91.5 -178t133 -136t163.5 -83q14 -27 35 -43q16 -12 35.5 -26.5t40.5 -24.5q12 -4 24.5 -11.5t26.5 -13.5q4 -4 11.5 -6t25.5 -12q37 -23 61.5 -40t24.5 -32q0 -25 -32.5 -46t-86.5 -25q-45 -4 -83 6t-56 37q4 -2 4 8v6q0 12 -2 26.5t-9 25.5 t-22.5 17.5t-40.5 4.5q-29 -4 -53 -20.5t-31 -49.5q-4 -10 -7 -29.5t-3 -42.5t5 -44t20 -36q53 -47 110.5 -64.5t139.5 -23.5q53 -6 107 2.5t101.5 25.5t85 45t60.5 63v-3q12 20 18 44t9 42q0 4 1 10.5t1 10.5l-2 16q-18 113 -179 195h2q-6 4 -11 6t-11 6q174 49 291 203 q6 12 17 36.5t20.5 53.5t15.5 55.5t2 44.5l2 -4q-4 35 -38 61.5t-73 22.5q-47 -4 -78.5 -41t-60.5 -75q-12 -16 -21.5 -29.5t-17.5 -22.5q-43 -37 -82 -53t-92 -20q-74 -6 -136 21.5t-109.5 82.5t-76 136t-36.5 184q-4 98 15.5 188t57 159.5t93 114.5t127.5 52q27 2 62.5 -1 t71.5 -10.5t63.5 -17.5t37.5 -21q25 -23 34 -63.5t13 -65.5l9 -27l6 -16l-4 5q27 -35 77 -35q45 0 76 18.5t49.5 48t26.5 67.5t8 75q0 84 -61.5 140t-144.5 90t-169 47t-135 11q-131 -6 -240.5 -69.5t-186.5 -172t-119 -254t-38 -313.5z" />
<glyph unicode="&#xc8;" horiz-adv-x="1110" d="M59 1272q4 -18 12.5 -34.5t20.5 -33.5q16 -18 30.5 -44.5t12.5 -72.5q0 -35 -4 -75.5t-8 -85.5q-4 -53 -8 -105.5t-4 -107.5v-39q0 -10 1 -18.5t1 -18.5v-70q0 -137 4 -234t18.5 -163t43 -104.5t77.5 -58t123 -26t176 -6.5q125 0 225.5 13.5t168 40t97 67.5t13.5 97l2 -5 q-8 37 -32.5 58.5t-70.5 21.5q-14 0 -30 -4l4 2q-104 -25 -201.5 -35t-193.5 -12q-49 0 -83 5t-51 18q-8 41 -13 125t-5 176v30t2 29q29 20 99.5 24.5t193.5 10.5q35 2 68.5 5t64.5 13h35q53 18 87 58.5t30 81.5q-4 39 -34 62.5t-89 23.5q-43 0 -114 -4.5t-148 -12.5 q-51 -4 -98.5 -8t-88.5 -8q-6 29 -8 60.5t-2 64.5q0 57 6 111.5t10 82.5q20 10 52 15.5t67 8.5t71 4t66 1h62q10 0 22.5 -1t22.5 -1q51 -2 99 2t77 27q33 18 50.5 52t12.5 62v-2q-6 68 -74.5 86.5t-197.5 18.5h-37q-59 0 -119.5 -3t-118 -8.5t-109.5 -12.5t-91 -15l-26 -4 q-25 -4 -44 -8l-20 -5q-29 -4 -49.5 -10t-32.5 -17t-18.5 -31.5t-4.5 -53.5zM348 1786q0 -33 15.5 -63.5t42.5 -59.5q2 -4 10 -9t12 -9q29 -25 69 -57t83 -55.5t81.5 -30.5t65.5 20h2q25 27 14.5 70.5t-36 90t-58.5 87t-53 65.5q-29 33 -59.5 53.5t-65.5 20.5q-47 0 -90 -43 q-33 -37 -33 -80z" />
<glyph unicode="&#xc9;" horiz-adv-x="1110" d="M59 1272q4 -18 12.5 -34.5t20.5 -33.5q16 -18 30.5 -44.5t12.5 -72.5q0 -35 -4 -75.5t-8 -85.5q-4 -53 -8 -105.5t-4 -107.5v-39q0 -10 1 -18.5t1 -18.5v-70q0 -137 4 -234t18.5 -163t43 -104.5t77.5 -58t123 -26t176 -6.5q125 0 225.5 13.5t168 40t97 67.5t13.5 97l2 -5 q-8 37 -32.5 58.5t-70.5 21.5q-14 0 -30 -4l4 2q-104 -25 -201.5 -35t-193.5 -12q-49 0 -83 5t-51 18q-8 41 -13 125t-5 176v30t2 29q29 20 99.5 24.5t193.5 10.5q35 2 68.5 5t64.5 13h35q53 18 87 58.5t30 81.5q-4 39 -34 62.5t-89 23.5q-43 0 -114 -4.5t-148 -12.5 q-51 -4 -98.5 -8t-88.5 -8q-6 29 -8 60.5t-2 64.5q0 57 6 111.5t10 82.5q20 10 52 15.5t67 8.5t71 4t66 1h62q10 0 22.5 -1t22.5 -1q51 -2 99 2t77 27q33 18 50.5 52t12.5 62v-2q-6 68 -74.5 86.5t-197.5 18.5h-37q-59 0 -119.5 -3t-118 -8.5t-109.5 -12.5t-91 -15l-26 -4 q-25 -4 -44 -8l-20 -5q-29 -4 -49.5 -10t-32.5 -17t-18.5 -31.5t-4.5 -53.5zM366.5 1592.5q10.5 43.5 37 90t59.5 87t51 65.5q29 33 61.5 53.5t67.5 20.5q43 0 84 -41q20 -18 28.5 -40t8.5 -42q0 -31 -16.5 -62.5t-45.5 -60.5l-18 -18q-29 -25 -70 -57t-84 -55.5 t-81.5 -30.5t-65.5 20h-2q-25 27 -14.5 70.5z" />
<glyph unicode="&#xca;" horiz-adv-x="1110" d="M59 1272q4 -18 12.5 -34.5t20.5 -33.5q16 -18 30.5 -44.5t12.5 -72.5q0 -35 -4 -75.5t-8 -85.5q-4 -53 -8 -105.5t-4 -107.5v-39q0 -10 1 -18.5t1 -18.5v-70q0 -137 4 -234t18.5 -163t43 -104.5t77.5 -58t123 -26t176 -6.5q125 0 225.5 13.5t168 40t97 67.5t13.5 97l2 -5 q-8 37 -32.5 58.5t-70.5 21.5q-14 0 -30 -4l4 2q-104 -25 -201.5 -35t-193.5 -12q-49 0 -83 5t-51 18q-8 41 -13 125t-5 176v30t2 29q29 20 99.5 24.5t193.5 10.5q35 2 68.5 5t64.5 13h35q53 18 87 58.5t30 81.5q-4 39 -34 62.5t-89 23.5q-43 0 -114 -4.5t-148 -12.5 q-51 -4 -98.5 -8t-88.5 -8q-6 29 -8 60.5t-2 64.5q0 57 6 111.5t10 82.5q20 10 52 15.5t67 8.5t71 4t66 1h62q10 0 22.5 -1t22.5 -1q51 -2 99 2t77 27q33 18 50.5 52t12.5 62v-2q-6 68 -74.5 86.5t-197.5 18.5h-37q-59 0 -119.5 -3t-118 -8.5t-109.5 -12.5t-91 -15l-26 -4 q-25 -4 -44 -8l-20 -5q-29 -4 -49.5 -10t-32.5 -17t-18.5 -31.5t-4.5 -53.5zM264 1595q-2 -12 2 -32.5t19.5 -38t43 -27.5t70.5 -4q25 10 56.5 44t64.5 75v-2q12 14 23.5 28.5t21.5 26.5q14 -10 17.5 -20.5t21.5 -34.5q29 -39 57.5 -75t59.5 -40q70 0 100.5 24.5t24.5 65.5 v-2q-4 29 -39 79t-70 91q-4 4 -7 9t-7 12q-6 8 -14.5 16t-14.5 18q-16 25 -32.5 44.5t-32.5 29.5q-14 16 -34 20.5t-36 0.5q-27 0 -45 -9.5t-37 -21.5q-37 -37 -73.5 -78t-66.5 -79t-50.5 -69.5t-22.5 -50.5z" />
<glyph unicode="&#xcb;" horiz-adv-x="1110" d="M59 1272q4 -18 12.5 -34.5t20.5 -33.5q16 -18 30.5 -44.5t12.5 -72.5q0 -35 -4 -75.5t-8 -85.5q-4 -53 -8 -105.5t-4 -107.5v-39q0 -10 1 -18.5t1 -18.5v-70q0 -137 4 -234t18.5 -163t43 -104.5t77.5 -58t123 -26t176 -6.5q125 0 225.5 13.5t168 40t97 67.5t13.5 97l2 -5 q-8 37 -32.5 58.5t-70.5 21.5q-14 0 -30 -4l4 2q-104 -25 -201.5 -35t-193.5 -12q-49 0 -83 5t-51 18q-8 41 -13 125t-5 176v30t2 29q29 20 99.5 24.5t193.5 10.5q35 2 68.5 5t64.5 13h35q53 18 87 58.5t30 81.5q-4 39 -34 62.5t-89 23.5q-43 0 -114 -4.5t-148 -12.5 q-51 -4 -98.5 -8t-88.5 -8q-6 29 -8 60.5t-2 64.5q0 57 6 111.5t10 82.5q20 10 52 15.5t67 8.5t71 4t66 1h62q10 0 22.5 -1t22.5 -1q51 -2 99 2t77 27q33 18 50.5 52t12.5 62v-2q-6 68 -74.5 86.5t-197.5 18.5h-37q-59 0 -119.5 -3t-118 -8.5t-109.5 -12.5t-91 -15l-26 -4 q-25 -4 -44 -8l-20 -5q-29 -4 -49.5 -10t-32.5 -17t-18.5 -31.5t-4.5 -53.5zM264 1696q0 -66 29 -118t88 -50q47 0 87 40.5t46 106.5q8 70 -30 119t-91 47q-49 -2 -86 -44t-43 -101zM596 1696q0 -66 28.5 -118t88.5 -50q47 0 87 40.5t46 106.5q4 33 -4 63.5t-24.5 54.5 t-41 36t-51.5 12q-49 0 -86 -43t-43 -102z" />
<glyph unicode="&#xcc;" horiz-adv-x="557" d="M39 1278q4 -41 16.5 -64.5t28.5 -42.5q10 -10 19.5 -19t11.5 -26l-2 2q2 -10 2 -20q0 -8 2 -18q2 -8 2 -17v-10q-6 -113 -10.5 -229.5t-4.5 -229.5q0 -82 1 -143.5t3.5 -109.5t7.5 -87t13 -74l-2 3q2 -6 -7 -20.5t-20 -25.5q-20 -23 -35.5 -52t-9.5 -64q8 -37 58.5 -51.5 t107.5 -14.5q23 0 46.5 1t37.5 3q8 0 13.5 1t9.5 1q31 2 67.5 7.5t67.5 15.5t48 31.5t9 58.5v-2q-4 33 -26.5 55t-51.5 45q-18 14 -35.5 31.5t-17.5 34.5q-4 27 -5 70.5t-3 99t-2 117.5v124v60q0 98 4 198.5t12 196.5q14 23 27.5 40t28.5 36q27 35 45 67.5t18 53.5 q-6 37 -32.5 58.5t-61.5 32.5t-73 13t-64 0q-141 -10 -195.5 -35.5t-48.5 -101.5zM63 1786q0 -33 16.5 -63.5t43.5 -59.5q2 -4 10 -9t12 -9q29 -25 69 -57t83 -55.5t82 -30.5t65 20h2q25 27 15 70.5t-36 90t-58.5 87t-53.5 65.5q-29 33 -60.5 53.5t-66.5 20.5q-45 0 -86 -41 q-37 -37 -37 -82z" />
<glyph unicode="&#xcd;" horiz-adv-x="557" d="M45 1278q2 -39 17.5 -64.5t29.5 -42.5q8 -10 15.5 -19t11.5 -26l-2 2q2 -10 2 -20q0 -8 2 -18q4 -20 4 -27q-6 -113 -10 -229.5t-4 -229.5q0 -164 4 -256t18 -155q0 -10 -6 -22.5t-16 -23.5q-23 -25 -40.5 -52t-9.5 -64q4 -18 19.5 -30.5t39 -21t51.5 -11.5t54 -3 q23 0 47.5 1t38.5 3q8 0 13.5 1t7.5 1q31 2 67.5 7.5t67.5 15.5t49.5 31.5t9.5 58.5v-8q0 37 -24.5 60.5t-52.5 45.5q-18 14 -36 31.5t-18 34.5q-4 27 -5 70.5t-3 99t-2 117.5v124v60q0 98 4 198.5t12 196.5q14 23 27.5 40t28.5 36q27 35 44 66.5t19 52.5q-6 37 -32.5 59.5 t-61.5 33.5t-72 13t-65 0q-133 -10 -190.5 -36.5t-53.5 -100.5zM83.5 1592.5q10.5 43.5 37 90t59.5 87t51 65.5q29 33 60 53.5t67 20.5q43 0 86 -43q18 -20 26.5 -41t8.5 -39q0 -31 -15 -62.5t-44 -60.5q-4 -4 -7 -6t-7 -6q-27 -23 -68 -56.5t-86 -59.5t-86 -34t-68 21h2 q-27 27 -16.5 70.5z" />
<glyph unicode="&#xce;" horiz-adv-x="557" d="M-12 1595q-2 -12 2 -32.5t19.5 -38t43 -27.5t70.5 -4q23 10 55.5 44t65.5 75v-2q12 14 23.5 28.5t21.5 26.5q14 -10 17 -20.5t22 -34.5q29 -39 57.5 -75t56.5 -40q72 0 102.5 24.5t24.5 65.5v-2q-4 29 -38.5 79t-69.5 91q-4 4 -7 9t-10 12q-4 8 -12 16t-14 18 q-16 25 -32.5 44.5t-33.5 29.5q-16 16 -35.5 20.5t-33.5 0.5q-27 0 -45.5 -9.5t-36.5 -21.5q-37 -37 -74 -78t-66.5 -79t-50 -69.5t-22.5 -50.5zM45 1278q2 -39 17.5 -64.5t29.5 -42.5q8 -10 15.5 -19t11.5 -26l-2 2q2 -10 2 -20q0 -8 2 -18q4 -20 4 -27q-6 -113 -10 -229.5 t-4 -229.5q0 -164 4 -256t18 -155q0 -10 -6 -22.5t-16 -23.5q-23 -25 -40.5 -52t-9.5 -64q4 -18 19.5 -30.5t39 -21t51.5 -11.5t54 -3q23 0 47.5 1t38.5 3q8 0 13.5 1t7.5 1q31 2 67.5 7.5t67.5 15.5t49.5 31.5t9.5 58.5v-8q0 37 -24.5 60.5t-52.5 45.5q-18 14 -36 31.5 t-18 34.5q-4 27 -5 70.5t-3 99t-2 117.5v124v60q0 98 4 198.5t12 196.5q14 23 27.5 40t28.5 36q27 35 44 66.5t19 52.5q-6 37 -32.5 59.5t-61.5 33.5t-72 13t-65 0q-133 -10 -190.5 -36.5t-53.5 -100.5z" />
<glyph unicode="&#xcf;" horiz-adv-x="557" d="M-12 1696q0 -66 28.5 -118t87.5 -50q47 0 86.5 40.5t47.5 106.5q8 70 -30 119t-91 47q-51 -2 -87 -44t-42 -101zM45 1278q2 -41 15.5 -64.5t29.5 -42.5q10 -10 18.5 -19t10.5 -26l-2 2q2 -10 2 -20q0 -8 2 -18q4 -20 4 -27q-6 -113 -10 -229.5t-4 -229.5q0 -164 4 -256 t18 -155q0 -8 -8 -20.5t-16 -22.5q-23 -23 -37.5 -53.5t-10.5 -65.5q8 -37 58.5 -51.5t105.5 -14.5q23 0 47.5 1t38.5 3q8 0 13.5 1t7.5 1q31 2 67.5 7.5t67.5 15.5t49.5 31.5t9.5 58.5v-2q-4 33 -26 55t-51 45q-18 14 -36 31.5t-18 34.5q-4 27 -5 70.5t-3 99t-2 117.5v124 v60q0 98 4 198.5t12 196.5q14 23 27.5 40t28.5 36q27 35 44 67.5t19 53.5q-6 37 -32.5 58.5t-61.5 32.5t-73 13t-64 0q-141 -10 -195.5 -35.5t-48.5 -101.5zM319 1696q0 -66 29 -118t88 -50q47 0 87 40.5t46 106.5q8 70 -28.5 119t-94.5 47q-49 -2 -84.5 -44t-42.5 -101z " />
<glyph unicode="&#xd0;" horiz-adv-x="1388" d="M68 664q12 -82 112 -82h13v-95q-1 -44 -3 -73t-2 -58v-51q0 -80 5.5 -126t16.5 -69.5t28.5 -32.5t40.5 -18h-3q10 -4 21.5 -7t32.5 -15q59 -29 144 -43t163 -14q152 0 279.5 53t221 150.5t145.5 232.5t52 299q0 121 -36.5 234.5t-109.5 203.5t-179.5 152.5t-243.5 83.5 l4 -3q-66 16 -136.5 21.5t-158.5 5.5q-68 0 -131 -7t-110.5 -25.5t-72 -49.5t-18.5 -78q10 -45 27.5 -61t34.5 -27q16 -8 16 -41l-22 -313q-51 -4 -77 -21.5t-40 -66.5q-23 -37 -14 -59zM461 541v45h2q10 -2 76 -2h71q45 0 79 3t58.5 13t41 30.5t28.5 55.5q8 16 12.5 34.5 t4.5 22.5v9q-6 35 -21.5 43t-38.5 12h2q-4 2 -11 3t-11 3q-55 0 -83 -1t-44 -1h-166q4 123 8 216t12 147q16 2 33 2h35q66 0 133.5 -9.5t105.5 -38.5q133 -33 208 -137t79 -262q2 -115 -24.5 -208t-81 -160.5t-132 -104.5t-175.5 -37q-61 0 -108.5 13.5t-86.5 35.5 q-4 59 -5 122t-1 151z" />
<glyph unicode="&#xd1;" horiz-adv-x="1296" d="M63 94q0 -47 33 -79.5t80 -32.5q27 0 57.5 23.5t55 57t40 73.5t11.5 75q-6 53 -9 128t-3 181v242v86q0 49 4 90v-2h2q51 -82 107.5 -172t114.5 -180t116.5 -176t112 -159t98.5 -129.5t78 -86.5q18 -10 34 -10q20 -6 59.5 -4.5t77 14t66.5 36t31 62.5q18 33 18 70v4 q-8 72 -12 158t-4 188v92q0 80 2 174t6 180q4 78 6 150t2 129q0 80 -22.5 112.5t-67.5 34.5q-29 8 -63.5 1t-65.5 -26.5t-51.5 -48t-15.5 -63.5q12 -137 14 -283.5t2 -316.5v-137q0 -51 1 -80t3 -49q-55 66 -119.5 157t-133.5 195.5t-138.5 217t-130.5 220.5q-43 74 -80 117 t-72 62.5t-68.5 20.5t-66.5 -9q-49 -14 -75.5 -48t-26.5 -75q0 -16 1 -31.5t1 -32.5q2 -45 3 -96t2 -117.5t2 -154.5t1 -207q0 -164 -5 -296t-9 -200q-2 -14 -3 -30v-19zM281 1661q0 -29 8 -55.5t25.5 -41t42 -11.5t57.5 34q45 45 96 45q47 0 94 -53q80 -61 166 -61l188 172 l21 -72q25 16 37 40.5t12 49.5q0 29 -11 53.5t-31.5 36.5t-46.5 8t-54 -32q-23 -23 -48.5 -35.5t-50.5 -12.5q-51 0 -94 52q-82 66 -168 65q-121 0 -215 -104l4 2q-16 -10 -24 -32.5t-8 -47.5z" />
<glyph unicode="&#xd2;" d="M66 662q0 -145 46 -272.5t126.5 -220.5t190.5 -146.5t237 -53.5q135 0 250.5 59.5t202.5 162t138.5 242.5t55.5 302l-2 -8q2 10 -1 50t-10.5 91.5t-18.5 106.5t-26 96q-31 84 -86 152.5t-126.5 117t-156.5 75t-179 26.5q-133 0 -249 -60.5t-204 -166t-138 -248 t-50 -305.5zM317 698q0 111 27 204t76 159.5t116.5 104.5t151.5 38q113 0 197 -46t133 -175q14 -39 22.5 -99t12.5 -126q4 -115 -20.5 -213.5t-74 -171t-119 -113.5t-155.5 -41q-84 0 -151.5 38t-114.5 102.5t-74 151.5t-27 187zM473 1786q0 -33 16.5 -63.5t42.5 -59.5 q2 -4 10.5 -9t12.5 -9q29 -25 69 -57t83 -55.5t81.5 -30.5t65.5 20h2q25 27 14.5 70.5t-36 90t-58.5 87t-53 65.5q-29 33 -60.5 53.5t-66.5 20.5q-49 0 -88 -43q-18 -18 -26.5 -40t-8.5 -40z" />
<glyph unicode="&#xd3;" d="M66 662q0 -145 46 -272.5t126.5 -220.5t190.5 -146.5t237 -53.5q135 0 250.5 59.5t202.5 162t138.5 242.5t55.5 302l-2 -8q2 10 -1 50t-10.5 91.5t-18.5 106.5t-26 96q-31 84 -86 152.5t-126.5 117t-156.5 75t-179 26.5q-133 0 -249 -60.5t-204 -166t-138 -248 t-50 -305.5zM317 698q0 111 27 204t76 159.5t116.5 104.5t151.5 38q113 0 197 -46t133 -175q14 -39 22.5 -99t12.5 -126q4 -115 -20.5 -213.5t-74 -171t-119 -113.5t-155.5 -41q-84 0 -151.5 38t-114.5 102.5t-74 151.5t-27 187zM493.5 1592.5q10.5 43.5 37 90t59.5 87 t51 65.5q29 33 61.5 53.5t67.5 20.5q45 0 86 -43q18 -18 26.5 -40t8.5 -40q0 -31 -16.5 -62.5t-45.5 -60.5l-18 -18q-29 -25 -70 -57t-84 -55.5t-81.5 -30.5t-65.5 20h-2q-25 27 -14.5 70.5z" />
<glyph unicode="&#xd4;" d="M66 662q0 -145 46 -272.5t126.5 -220.5t190.5 -146.5t237 -53.5q135 0 250.5 59.5t202.5 162t138.5 242.5t55.5 302l-2 -8q2 10 -1 50t-10.5 91.5t-18.5 106.5t-26 96q-31 84 -86 152.5t-126.5 117t-156.5 75t-179 26.5q-133 0 -249 -60.5t-204 -166t-138 -248 t-50 -305.5zM317 698q0 111 27 204t76 159.5t116.5 104.5t151.5 38q113 0 197 -46t133 -175q14 -39 22.5 -99t12.5 -126q4 -115 -20.5 -213.5t-74 -171t-119 -113.5t-155.5 -41q-84 0 -151.5 38t-114.5 102.5t-74 151.5t-27 187zM391 1595q-2 -12 2 -32.5t19.5 -38t43 -27.5 t70.5 -4q25 10 56.5 44t64.5 75v-2q12 14 23.5 28.5t21.5 26.5q14 -10 17.5 -20.5t21.5 -34.5q29 -39 57.5 -75t59.5 -40q70 0 100.5 24.5t24.5 65.5v-6q0 12 -10.5 32.5t-26.5 45t-34.5 49.5t-37.5 47q-4 4 -7 9t-7 12q-6 8 -14.5 16t-14.5 18q-16 25 -32.5 44.5 t-32.5 29.5q-14 16 -34 20.5t-36 0.5q-27 0 -45 -9.5t-37 -21.5q-37 -37 -73.5 -78t-66.5 -79t-50.5 -69.5t-22.5 -50.5z" />
<glyph unicode="&#xd5;" d="M66 662q0 -145 46 -272.5t126.5 -220.5t190.5 -146.5t237 -53.5q135 0 250.5 59.5t202.5 162t138.5 242.5t55.5 302l-2 -8q2 10 -1 50t-10.5 91.5t-18.5 106.5t-26 96q-31 84 -86 152.5t-126.5 117t-156.5 75t-179 26.5q-133 0 -249 -60.5t-204 -166t-138 -248 t-50 -305.5zM313 1659q0 -31 8.5 -56.5t26 -40t42 -10.5t56.5 35q45 45 97 45q47 0 94 -53q80 -61 166 -61q57 0 111.5 24.5t101.5 77.5q45 31 45 86q0 29 -11.5 54.5t-32 37.5t-46 8t-51.5 -32q-25 -23 -49.5 -35.5t-51.5 -12.5q-49 0 -92 52q-82 66 -168 65 q-121 0 -215 -104l4 2q-16 -12 -25.5 -36t-9.5 -46zM317 698q0 111 27 204t76 159.5t116.5 104.5t151.5 38q113 0 197 -46t133 -175q14 -39 22.5 -99t12.5 -126q4 -115 -20.5 -213.5t-74 -171t-119 -113.5t-155.5 -41q-84 0 -151.5 38t-114.5 102.5t-74 151.5t-27 187z" />
<glyph unicode="&#xd6;" d="M66 662q0 -145 46 -272.5t126.5 -220.5t190.5 -146.5t237 -53.5q135 0 250.5 59.5t202.5 162t138.5 242.5t55.5 302l-2 -8q2 10 -1 50t-10.5 91.5t-18.5 106.5t-26 96q-31 84 -86 152.5t-126.5 117t-156.5 75t-179 26.5q-133 0 -249 -60.5t-204 -166t-138 -248 t-50 -305.5zM317 698q0 111 27 204t76 159.5t116.5 104.5t151.5 38q113 0 197 -46t133 -175q14 -39 22.5 -99t12.5 -126q4 -115 -20.5 -213.5t-74 -171t-119 -113.5t-155.5 -41q-84 0 -151.5 38t-114.5 102.5t-74 151.5t-27 187zM391 1696q0 -66 30 -118t89 -50 q47 0 86 40.5t45 106.5q4 33 -4 63.5t-25.5 54.5t-40 36t-49.5 12q-51 0 -88 -43t-43 -102zM723 1696q0 -66 29.5 -118t89.5 -50q45 0 85 40.5t46 106.5q4 33 -4 63.5t-24.5 54.5t-41 36t-51.5 12q-49 0 -86 -43t-43 -102z" />
<glyph unicode="&#xd7;" horiz-adv-x="911" d="M50 872.5q9 -24.5 26 -45.5q27 -31 77 -80t99 -96v2q14 -16 28.5 -27.5t24.5 -23.5l-108 -108q-6 -8 -25 -23q-23 -20 -45.5 -42.5t-35.5 -48.5t-15 -54.5t14 -63.5q4 -16 9 -29.5t26 -25.5q39 -23 73.5 -13.5t63.5 37.5q16 16 33.5 36t34.5 36q23 23 42 45.5t42 44.5 l49 49l108 -108q4 -4 9.5 -11.5t13.5 -17.5q20 -23 46 -49.5t55.5 -44.5t60 -23.5t61.5 17.5q27 23 40 49.5t13 54.5q0 23 -8 46.5t-26 41.5q-29 27 -60 55.5t-61 59.5q-23 20 -47.5 43t-44.5 41l135 133l12 12q33 31 54.5 60.5t21.5 70.5q0 14 -4 31t-11 37v8 q-6 10 -12 23.5t-16 23.5l-4 4q-25 25 -55.5 17t-49.5 -25q-39 -31 -88 -82t-94 -98q-10 -10 -21.5 -23.5t-21.5 -23.5q-23 25 -42 41t-48 45l-41 41q-4 4 -9 11t-14 13l2 -2q-18 18 -39.5 40t-46 35t-51 15.5t-53.5 -16.5q-12 -6 -34.5 -26.5t-33.5 -32.5q-18 -31 -9 -55.5 z" />
<glyph unicode="&#xd8;" d="M66 662q0 -182 63.5 -325.5t181.5 -238.5q-2 -4 -1 -5l1 -1q-6 -12 -12 -24.5t-14 -24.5l-15 -33q-2 -4 -2 -6l-2 -4q-8 -23 -13 -35t-13 -20q-2 -23 7 -42.5t24.5 -33.5t34 -22.5t34.5 -8.5q61 0 105 38t79 106l1 1t1 3q33 -8 67 -12.5t73 -4.5q135 0 250.5 59.5 t202.5 162t138.5 242.5t55.5 302l-2 -8q2 10 -1 50t-10.5 91.5t-18.5 106.5t-26 96q-25 70 -70.5 131.5t-99.5 106.5q37 82 80 143l2 4q4 6 5.5 14.5t5.5 16.5q0 20 -12.5 38.5t-32 31t-42 17.5t-42.5 -1q-70 -2 -113 -40t-76 -99l-6 -13q-35 10 -73 15.5t-74 5.5 q-133 0 -249 -60.5t-204 -166t-138 -248t-50 -305.5zM317 698q0 111 27 204t76 159.5t116.5 104.5t151.5 38q16 0 39 -1t39 -3q-4 -6 -4 -8q2 0 1 -1t-3 -7l2 2q-35 -86 -72 -177t-76 -186q-47 -119 -95 -235.5t-97 -233.5q-105 135 -105 344zM625 225l14 39l-2 -2l192 463 q41 92 75 179t69 165q14 -18 24.5 -39.5t20.5 -46.5q14 -39 22.5 -99.5t12.5 -125.5q4 -115 -20.5 -213.5t-74 -171t-119 -113.5t-155.5 -41q-33 0 -59 6z" />
<glyph unicode="&#xd9;" horiz-adv-x="1290" d="M63 682q0 -102 8.5 -183t28 -145.5t50 -117t75.5 -99.5q156 -162 414 -162q291 0 428 195t145 588q0 29 1 56.5t1 57.5q2 102 5.5 208t21.5 184v6q4 55 -17.5 96t-68.5 53h2q-37 12 -75 6t-69.5 -26.5t-50 -54t-14.5 -76.5q4 -25 4 -47v-43q0 -152 -8 -296.5t-18 -273.5 q-16 -182 -85 -290.5t-200 -108.5q-113 0 -190.5 69.5t-96.5 184.5q-12 88 -12 211q0 53 2 132t5 164t7 164.5t9 137.5q4 12 5 18t-3 17q-8 49 -35 77.5t-68 32.5q-27 4 -59.5 -8t-62 -36.5t-49 -57.5t-19.5 -70q2 -12 2 -26v-25v-57q0 -131 -6 -256q-2 -53 -4.5 -104.5 t-2.5 -94.5zM436 1786q0 -33 16.5 -63.5t43.5 -59.5q2 -4 10 -9t12 -9q29 -25 69 -57t83 -55.5t82 -30.5t65 20h2q25 27 14.5 70.5t-36 90t-58 87t-53.5 65.5q-29 33 -60.5 53.5t-66.5 20.5q-49 0 -88 -43q-18 -18 -26.5 -40t-8.5 -40z" />
<glyph unicode="&#xda;" horiz-adv-x="1290" d="M63 682q0 -102 8.5 -183t28 -145.5t50 -117t75.5 -99.5q156 -162 414 -162q291 0 428 195t145 588q0 29 1 56.5t1 57.5q2 102 5.5 208t21.5 184v6q4 55 -17.5 96t-68.5 53h2q-37 12 -75 6t-69.5 -26.5t-50 -54t-14.5 -76.5q4 -25 4 -47v-43q0 -152 -8 -296.5t-18 -273.5 q-16 -182 -85 -290.5t-200 -108.5q-113 0 -190.5 69.5t-96.5 184.5q-12 88 -12 211q0 53 2 132t5 164t7 164.5t9 137.5q4 12 5 18t-3 17q-8 49 -35 77.5t-68 32.5q-27 4 -59.5 -8t-62 -36.5t-49 -57.5t-19.5 -70q2 -12 2 -26v-25v-57q0 -131 -6 -256q-2 -53 -4.5 -104.5 t-2.5 -94.5zM456.5 1592.5q10.5 43.5 37 90t59.5 87t51 65.5q29 33 61.5 53.5t67.5 20.5q45 0 86 -43q18 -18 26.5 -40t8.5 -40q0 -31 -16.5 -62.5t-44.5 -60.5l-19 -18q-29 -25 -69.5 -57t-83.5 -55.5t-82 -30.5t-66 20h-2q-25 27 -14.5 70.5z" />
<glyph unicode="&#xdb;" horiz-adv-x="1290" d="M63 682q0 -102 8.5 -183t28 -145.5t50 -117t75.5 -99.5q156 -162 414 -162q291 0 428 195t145 588q0 29 1 56.5t1 57.5q2 102 5.5 208t21.5 184v6q4 55 -17.5 96t-68.5 53h2q-37 12 -75 6t-69.5 -26.5t-50 -54t-14.5 -76.5q4 -25 4 -47v-43q0 -152 -8 -296.5t-18 -273.5 q-16 -182 -85 -290.5t-200 -108.5q-113 0 -190.5 69.5t-96.5 184.5q-12 88 -12 211q0 53 2 132t5 164t7 164.5t9 137.5q4 12 5 18t-3 17q-8 49 -35 77.5t-68 32.5q-27 4 -59.5 -8t-62 -36.5t-49 -57.5t-19.5 -70q2 -12 2 -26v-25v-57q0 -131 -6 -256q-2 -53 -4.5 -104.5 t-2.5 -94.5zM354 1595q-2 -12 2 -32.5t19.5 -38t43 -27.5t73.5 -4q23 10 54.5 44t63.5 75v-2q12 14 23.5 28.5t21.5 26.5q14 -10 18.5 -20.5t20.5 -34.5q29 -39 57.5 -75t59.5 -40q70 0 100.5 24.5t24.5 65.5v-2q-4 29 -39 79t-70 91q-4 4 -7 9t-7 12q-6 8 -14 16t-15 18 q-16 25 -32.5 44.5t-32.5 29.5q-14 16 -33.5 20.5t-36.5 0.5q-27 0 -45 -9.5t-37 -21.5q-37 -37 -73.5 -78t-66.5 -79t-50.5 -69.5t-22.5 -50.5z" />
<glyph unicode="&#xdc;" horiz-adv-x="1290" d="M63 682q0 -102 8.5 -183t28 -145.5t50 -117t75.5 -99.5q156 -162 414 -162q291 0 428 195t145 588q0 29 1 56.5t1 57.5q2 102 5.5 208t21.5 184v6q4 55 -17.5 96t-68.5 53h2q-37 12 -75 6t-69.5 -26.5t-50 -54t-14.5 -76.5q4 -25 4 -47v-43q0 -152 -8 -296.5t-18 -273.5 q-16 -182 -85 -290.5t-200 -108.5q-113 0 -190.5 69.5t-96.5 184.5q-12 88 -12 211q0 53 2 132t5 164t7 164.5t9 137.5q4 12 5 18t-3 17q-8 49 -35 77.5t-68 32.5q-27 4 -59.5 -8t-62 -36.5t-49 -57.5t-19.5 -70q2 -12 2 -26v-25v-57q0 -131 -6 -256q-2 -53 -4.5 -104.5 t-2.5 -94.5zM354 1696q0 -66 30 -118t89 -50q47 0 86 40.5t45 106.5q4 33 -4 63.5t-25.5 54.5t-40 36t-49.5 12q-49 0 -87 -43t-44 -102zM686 1696q0 -66 29.5 -118t89.5 -50q45 0 85 40.5t46 106.5q8 70 -29 119t-92 47q-51 -2 -87 -44t-42 -101z" />
<glyph unicode="&#xdd;" horiz-adv-x="1275" d="M25 1298q18 -43 61 -122.5t94 -164.5t103.5 -161t91.5 -115q10 -14 22.5 -28.5t28.5 -30.5q23 -23 41 -50.5t20 -56.5q-4 -63 -5 -121.5t-1 -111.5v-100t-2 -89v3q-10 -76 13.5 -123t78.5 -52q29 -4 61 12.5t59.5 42t48 56.5t26.5 57v74q0 41 -2 76q-2 29 -2 53v51 q0 72 14.5 152t50.5 156q41 82 102.5 185t119.5 202q27 45 51 83.5t41 71.5l-4 -2q12 18 22 39t17.5 40t10.5 34.5t1 23.5l2 -4q-4 35 -39 67t-74 32q-47 0 -79.5 -19.5t-57.5 -50.5t-43 -66.5t-33 -68.5q-4 -10 -10 -24.5t-14 -24.5q-39 -80 -72 -139.5t-60.5 -103.5 t-49 -77t-37.5 -57v2q-4 -4 -6.5 -7t-6.5 -7q-27 33 -61.5 84t-73.5 112.5t-81 131t-81 138.5q-37 63 -63.5 94t-73.5 31t-88 -36.5t-61 -90.5zM448.5 1592.5q10.5 43.5 37 90t60.5 87t52 65.5q29 33 59.5 53.5t67.5 20.5q43 0 86 -43q35 -37 35 -78q0 -31 -16.5 -63.5 t-45.5 -61.5l-10 -10l-8 -8q-29 -25 -70 -57t-84 -55.5t-81.5 -30.5t-65.5 20h-2q-25 27 -14.5 70.5z" />
<glyph unicode="&#xde;" horiz-adv-x="1095" d="M59 498q0 -113 3.5 -205t15.5 -157.5t36.5 -101.5t67.5 -36q14 0 42 16.5t56.5 42t50 57t21.5 60.5q-4 29 -7 61.5t-5 61.5h-2q0 2 2 2h2q6 0 11 -1t9 -1q131 0 250 30.5t212.5 90t153 146.5t71.5 200q10 84 -14.5 164t-82 145.5t-143.5 109.5t-199 56q-10 4 -16 3 t-12 -1t-11.5 1t-11.5 1h-41q-41 0 -79 -1t-81 -5v6v8v2q4 35 7.5 66t-3.5 59h3q-8 41 -36 69t-75 28q-25 0 -55.5 -15.5t-58 -40t-46 -57.5t-14.5 -68q4 -29 6 -49t-2 -47q-2 -16 -2 -31q0 -12 -2 -26q-2 -10 -3 -27.5t-1 -28.5q-4 -53 -6 -124.5t-5.5 -149.5t-4.5 -159 t-1 -154zM338 516q0 25 2 86.5t7 134t9 142t6 112.5q27 8 66 10.5t90 2.5q86 0 152.5 -35t81.5 -121q16 -4 25 -26.5t5 -51.5q-12 -129 -127.5 -193.5t-294.5 -62.5q-4 0 -11 1t-11 1zM340 297q8 0 2 2h-2v-2z" />
<glyph unicode="&#xdf;" horiz-adv-x="999" d="M53 66q0 -20 4 -41q2 -35 10.5 -66t25 -52.5t43 -27.5t63.5 10q49 23 66.5 69t17.5 101v33q18 -49 55 -84t81 -56.5t89 -29.5t82 -4q66 6 130 26.5t124 84.5q4 8 10 17t12 17l-2 -4l19 25q35 51 52 116.5t21 131.5q6 117 -35.5 191.5t-103 119.5t-130.5 64.5t-116 23.5 h-12q-20 2 -35.5 5t-21.5 18q4 10 8 12t14 6q41 20 71.5 42.5t61.5 57.5t56.5 90.5t21.5 141.5q-4 66 -36.5 122t-80 96t-105.5 57.5t-114 6.5h7q-96 -4 -160 -53t-104 -121.5t-58 -158.5t-21 -166q-6 -178 -6 -365v-293q0 -10 -1 -19t-1 -20q-2 -16 -2 -38v-41v-45z M276 258v205q1 103 3 207v-4q2 12 3 40.5t3 61.5v6q2 27 2 57q0 33 -2 48q2 80 14 135t29.5 90t39 52.5t44.5 21.5q41 8 73.5 -22t36.5 -71q4 -53 -14 -67q-10 -10 -25.5 -19.5t-31.5 -17.5q-25 -12 -52.5 -28.5t-51 -42t-40 -63.5t-20.5 -95q-4 -84 31.5 -131.5t76.5 -75.5 q41 -25 82 -35t82 -18l4 -2q4 -1 8 -1q25 -4 52.5 -15t51 -29.5t41 -45t23.5 -59.5q2 -41 -11 -76t-37.5 -60.5t-55.5 -39.5t-64 -14q-43 0 -78.5 23.5t-52.5 76.5q-4 33 -25.5 55.5t-47 26.5t-52 -12.5t-39.5 -61.5z" />
<glyph unicode="&#xe0;" horiz-adv-x="966" d="M55 328q0 -104 31 -175t84 -113t122.5 -57.5t147.5 -9.5q66 6 123.5 26.5t114.5 66.5q20 -43 49 -70t70 -27q20 0 43.5 12.5t44 33t32 44t9.5 45.5l-2 5q-16 74 -22.5 126t-6.5 113v84q0 47 2 88q2 27 2 51v50v16q0 31 -1 77t-13.5 95t-38 96t-72.5 84t-119.5 58.5 t-177.5 15.5q-72 -4 -135 -21.5t-114.5 -47t-86.5 -69.5t-45 -89l1 -14q1 -15 5 -19q10 -23 24.5 -49.5t39.5 -26.5h2q12 -2 34.5 -1t37.5 9q8 4 16 11.5t16 13.5q25 20 67 44.5t134 31.5q57 2 93 -10.5t55.5 -34t26.5 -48t7 -51.5q-29 10 -68.5 17.5t-99.5 11.5 q-47 2 -120.5 -9.5t-142 -51t-119 -118.5t-50.5 -214zM274 1380q0 -33 16.5 -64.5t43.5 -60.5q2 -4 10 -9t12 -9q29 -25 69 -56.5t83 -55t82 -31t65 19.5h2q25 29 15 72t-36 89t-58.5 87t-53.5 65q-29 33 -60.5 53.5t-66.5 20.5q-45 0 -86 -41q-37 -37 -37 -80zM281 334 q0 70 63.5 122t165.5 52q43 0 79 -16.5t64 -38.5q4 -10 6.5 -26t2.5 -34q0 -33 -8.5 -70.5t-35.5 -72.5q-35 -27 -78.5 -45.5t-101.5 -18.5q-74 0 -115.5 40t-41.5 108z" />
<glyph unicode="&#xe1;" horiz-adv-x="966" d="M55 328q0 -104 31 -175t84 -113t122.5 -57.5t147.5 -9.5q66 6 123.5 26.5t114.5 66.5q20 -43 49 -70t70 -27q20 0 43.5 12.5t44 33t32 44t9.5 45.5l-2 5q-16 74 -22.5 126t-6.5 113v84q0 47 2 88q2 27 2 51v50v16q0 31 -1 77t-13.5 95t-38 96t-72.5 84t-119.5 58.5 t-177.5 15.5q-72 -4 -135 -21.5t-114.5 -47t-86.5 -69.5t-45 -89l1 -14q1 -15 5 -19q10 -23 24.5 -49.5t39.5 -26.5h2q12 -2 34.5 -1t37.5 9q8 4 16 11.5t16 13.5q25 20 67 44.5t134 31.5q57 2 93 -10.5t55.5 -34t26.5 -48t7 -51.5q-29 10 -68.5 17.5t-99.5 11.5 q-47 2 -120.5 -9.5t-142 -51t-119 -118.5t-50.5 -214zM281 334q0 70 63.5 122t165.5 52q43 0 79 -16.5t64 -38.5q4 -10 6.5 -26t2.5 -34q0 -33 -8.5 -70.5t-35.5 -72.5q-35 -27 -78.5 -45.5t-101.5 -18.5q-74 0 -115.5 40t-41.5 108zM294.5 1186q10.5 43 37 89t59.5 87 t51 65q29 33 62 53.5t67 20.5q45 0 86 -43q18 -18 26.5 -38.5t8.5 -39.5q0 -31 -16.5 -62.5t-44.5 -62.5l-19 -18q-29 -25 -69.5 -56.5t-83.5 -55t-82 -31t-66 19.5h-2q-25 29 -14.5 72z" />
<glyph unicode="&#xe2;" horiz-adv-x="966" d="M55 328q0 -104 31 -175t84 -113t122.5 -57.5t147.5 -9.5q66 6 123.5 26.5t114.5 66.5q20 -43 49 -70t70 -27q20 0 43.5 12.5t44 33t32 44t9.5 45.5l-2 5q-16 74 -22.5 126t-6.5 113v84q0 47 2 88q2 27 2 51v50v16q0 31 -1 77t-13.5 95t-38 96t-72.5 84t-119.5 58.5 t-177.5 15.5q-72 -4 -135 -21.5t-114.5 -47t-86.5 -69.5t-45 -89l1 -14q1 -15 5 -19q10 -23 24.5 -49.5t39.5 -26.5h2q12 -2 34.5 -1t37.5 9q8 4 16 11.5t16 13.5q25 20 67 44.5t134 31.5q57 2 93 -10.5t55.5 -34t26.5 -48t7 -51.5q-29 10 -68.5 17.5t-99.5 11.5 q-47 2 -120.5 -9.5t-142 -51t-119 -118.5t-50.5 -214zM193 1188q-2 -12 2 -32.5t19 -38t43 -28t73 -2.5q23 8 54.5 42t64.5 75v-2q12 14 23 28.5t22 26.5q14 -10 18 -19t20 -36q29 -39 57.5 -73.5t59.5 -38.5q70 0 100.5 23.5t24.5 64.5v-7q0 12 -10 33t-26.5 45.5t-35 49 t-36.5 47.5q-4 4 -7.5 9t-7.5 11q-6 10 -14 17.5t-14 17.5q-16 25 -33 45t-33 31q-14 16 -33.5 19t-36.5 -1q-27 0 -45 -8t-36 -23q-37 -37 -74 -77.5t-66.5 -78.5t-50 -70t-22.5 -50zM281 334q0 70 63.5 122t165.5 52q43 0 79 -16.5t64 -38.5q4 -10 6.5 -26t2.5 -34 q0 -33 -8.5 -70.5t-35.5 -72.5q-35 -27 -78.5 -45.5t-101.5 -18.5q-74 0 -115.5 40t-41.5 108z" />
<glyph unicode="&#xe3;" horiz-adv-x="966" d="M55 328q0 -104 31 -175t84 -113t122.5 -57.5t147.5 -9.5q66 6 123.5 26.5t114.5 66.5q20 -43 49 -70t70 -27q20 0 43.5 12.5t44 33t32 44t9.5 45.5l-2 5q-16 74 -22.5 126t-6.5 113v84q0 47 2 88q2 27 2 51v50v16q0 31 -1 77t-13.5 95t-38 96t-72.5 84t-119.5 58.5 t-177.5 15.5q-72 -4 -135 -21.5t-114.5 -47t-86.5 -69.5t-45 -89l1 -14q1 -15 5 -19q10 -23 24.5 -49.5t39.5 -26.5h2q12 -2 34.5 -1t37.5 9q8 4 16 11.5t16 13.5q25 20 67 44.5t134 31.5q57 2 93 -10.5t55.5 -34t26.5 -48t7 -51.5q-29 10 -68.5 17.5t-99.5 11.5 q-47 2 -120.5 -9.5t-142 -51t-119 -118.5t-50.5 -214zM115 1251q0 -31 8 -56.5t25.5 -39.5t42 -10t57.5 35q47 47 96 47q45 0 94 -56q80 -61 166 -61q57 0 111.5 24.5t101.5 77.5q45 33 45 88q0 29 -11 54.5t-30.5 38t-45 8.5t-54.5 -33q-25 -23 -49.5 -36t-50.5 -13 q-47 0 -93 53q-41 33 -84 48.5t-84 15.5q-119 0 -215 -103l5 2q-16 -14 -25.5 -37.5t-9.5 -46.5zM281 334q0 70 63.5 122t165.5 52q43 0 79 -16.5t64 -38.5q4 -10 6.5 -26t2.5 -34q0 -33 -8.5 -70.5t-35.5 -72.5q-35 -27 -78.5 -45.5t-101.5 -18.5q-74 0 -115.5 40 t-41.5 108z" />
<glyph unicode="&#xe4;" horiz-adv-x="966" d="M55 328q0 -104 31 -175t84 -113t122.5 -57.5t147.5 -9.5q66 6 123.5 26.5t114.5 66.5q20 -43 49 -70t70 -27q20 0 43.5 12.5t44 33t32 44t9.5 45.5l-2 5q-16 74 -22.5 126t-6.5 113v84q0 47 2 88q2 27 2 51v50v16q0 31 -1 77t-13.5 95t-38 96t-72.5 84t-119.5 58.5 t-177.5 15.5q-72 -4 -135 -21.5t-114.5 -47t-86.5 -69.5t-45 -89l1 -14q1 -15 5 -19q10 -23 24.5 -49.5t39.5 -26.5h2q12 -2 34.5 -1t37.5 9q8 4 16 11.5t16 13.5q25 20 67 44.5t134 31.5q57 2 93 -10.5t55.5 -34t26.5 -48t7 -51.5q-29 10 -68.5 17.5t-99.5 11.5 q-47 2 -120.5 -9.5t-142 -51t-119 -118.5t-50.5 -214zM193 1288q0 -66 29.5 -117t88.5 -49q47 0 86 41t45 107q4 33 -4 62.5t-25.5 53t-40 36t-48.5 12.5q-49 0 -87 -42t-44 -104zM281 334q0 70 63.5 122t165.5 52q43 0 79 -16.5t64 -38.5q4 -10 6.5 -26t2.5 -34 q0 -33 -8.5 -70.5t-35.5 -72.5q-35 -27 -78.5 -45.5t-101.5 -18.5q-74 0 -115.5 40t-41.5 108zM524 1288q0 -66 30 -117t89 -49q45 0 85 41t46 107q4 33 -4 63.5t-24.5 53t-41 36t-51.5 11.5q-51 -2 -87 -44t-42 -102z" />
<glyph unicode="&#xe5;" horiz-adv-x="966" d="M55 328q0 -104 31 -175t84 -113t122.5 -57.5t147.5 -9.5q66 6 123.5 26.5t114.5 66.5q20 -43 49 -70t70 -27q20 0 43.5 12.5t44 33t32 44t9.5 45.5l-2 5q-16 74 -22.5 126t-6.5 113v84q0 47 2 88q2 27 2 51v50v16q2 41 -3 105.5t-32.5 128t-87 115.5t-168.5 71 q70 35 114 97.5t44 137.5q0 51 -21.5 95.5t-59.5 77t-88 51t-108 18.5q-55 0 -103 -20.5t-86 -53.5t-64.5 -75t-34.5 -87l260 -200v-37q-68 -6 -130.5 -23.5t-110.5 -47t-81 -68.5t-43 -86l1 -14q1 -15 5 -19q10 -23 24.5 -49.5t39.5 -26.5h2q12 -2 34.5 -1t37.5 9 q8 4 16 11.5t16 13.5q25 20 67 44.5t134 31.5q57 2 93 -10.5t55.5 -34t26.5 -48t7 -51.5q-29 10 -68.5 17.5t-99.5 11.5q-47 2 -120.5 -9.5t-142 -51t-119 -118.5t-50.5 -214zM281 334q0 70 63.5 122t165.5 52q43 0 79 -16.5t64 -38.5q4 -10 6.5 -26t2.5 -34 q0 -33 -8.5 -70.5t-35.5 -72.5q-35 -27 -78.5 -45.5t-101.5 -18.5q-74 0 -115.5 40t-41.5 108zM397 1276q-4 31 21.5 55.5t60.5 24.5q39 0 59.5 -20.5t24.5 -55.5q4 -31 -24.5 -54.5t-65.5 -23.5q-35 0 -53.5 22.5t-22.5 51.5z" />
<glyph unicode="&#xe6;" horiz-adv-x="1689" d="M76 328q0 -104 30.5 -175t84 -113t123 -57.5t147.5 -9.5q25 2 65.5 8.5t88 21.5t96.5 42t92 70q129 -145 358 -146q88 0 176 30t157 76t106.5 103.5t25.5 112.5v-4q-4 35 -32.5 58.5t-63.5 23.5q-39 -2 -76 -43v2q-49 -53 -109.5 -93t-158.5 -40q-76 0 -132.5 31.5 t-84.5 88.5q-18 35 -21 50q20 2 25.5 1t21.5 1q23 0 47.5 2t56 6t71.5 14t96 27q123 37 195.5 108.5t72.5 188.5q0 68 -27.5 125t-77 100t-116 66.5t-142.5 23.5q-92 0 -170.5 -30.5t-142.5 -88.5q-43 57 -128 97.5t-230 31.5q-72 -4 -136.5 -17t-115.5 -38t-86 -60.5 t-45 -86.5v-15q0 -14 4 -18q10 -23 25.5 -49.5t39.5 -26.5h2q10 -2 33 -1t39 9q6 4 15.5 11.5t17.5 13.5q12 10 27.5 22.5t38 22.5t55 18t80.5 13q57 2 93 -10.5t56.5 -35t29.5 -50t13 -54.5q-29 12 -73 21.5t-105 13.5q-47 2 -121 -9.5t-143.5 -51t-118.5 -118.5t-49 -214z M299 334q0 70 64.5 122t166.5 52q41 0 78 -16.5t66 -38.5q4 -10 6 -26t2 -34q0 -33 -9 -70.5t-34 -72.5q-37 -27 -80 -45.5t-100 -18.5q-74 0 -117 40t-43 108zM930 571q4 47 21.5 90.5t45 77t64.5 54t80 20.5q39 0 72.5 -15.5t50.5 -43.5q0 -2 8 -15q2 -2 2 -4l4 -2 q4 -29 -14.5 -58.5t-53.5 -58.5q-51 -16 -110.5 -26t-122.5 -17q-16 -2 -26.5 -3t-20.5 1z" />
<glyph unicode="&#xe7;" horiz-adv-x="946" d="M55 455q10 -160 91 -283t214 -172q4 -10 14.5 -20.5l20.5 -20.5q14 -12 27.5 -22.5t28.5 -16.5q4 -2 13 -6t13 -4h-4q23 -10 44.5 -21.5t43.5 -21.5q37 -20 60.5 -37.5t23.5 -34.5q0 -25 -32.5 -46t-88.5 -25q-41 -4 -79.5 6t-57.5 37l1 4t1 8q0 14 -2 28.5t-9 25.5 t-21.5 17.5t-41.5 4.5q-29 -4 -53 -21.5t-29 -50.5q-4 -12 -7 -31.5t-3 -40.5q0 -23 5 -44t18 -34q53 -47 110.5 -64.5t139.5 -23.5q53 -6 107 2.5t102.5 26.5t86 45t60.5 62v-3q12 18 17 42t8 42q2 6 2 19v16q-10 61 -52.5 109.5t-126.5 89.5q-4 2 -6 2l-4 2q49 20 92 49 t72 65t42 74.5t3 77.5q-8 29 -30.5 51.5t-57.5 22.5q-18 0 -31.5 -7t-36.5 -28q-39 -35 -88 -64.5t-92 -33.5q-57 -2 -104 18.5t-82 59.5t-54.5 94t-19.5 123q0 57 15.5 115.5t43 103.5t64.5 73.5t82 28.5q41 0 72.5 -24.5t60.5 -59.5q6 -29 35 -41t53 -12q8 0 28.5 10.5 t42 27.5t38 39.5t16.5 49.5q6 45 -22.5 89t-80 77t-118 50.5t-137.5 10.5q-96 -8 -179.5 -59t-143.5 -132t-92 -182.5t-26 -211.5z" />
<glyph unicode="&#xe8;" horiz-adv-x="1050" d="M57 479q0 -115 34 -207t97.5 -158.5t152.5 -102.5t200 -36q88 0 176 30t155.5 76t106.5 103.5t27 112.5v-2q-4 33 -35 56.5t-62 23.5q-41 -6 -75 -41q-49 -53 -110.5 -94t-160.5 -41q-74 0 -131 32.5t-86 90.5q-16 33 -18 49q20 4 24 2t21 0q25 0 49 2t56 6t72 14.5 t95 26.5q121 37 193.5 108.5t72.5 188.5q0 68 -27.5 125t-75.5 100t-114.5 66.5t-142.5 23.5q-109 0 -200 -44t-155.5 -118.5t-101.5 -176t-37 -216.5zM307 578q6 45 23.5 89t45 77.5t63.5 54t79 20.5q41 0 75 -15.5t50 -43.5q-2 2 1 -4t7 -11q2 -2 2 -4t4 -4q2 -29 -16 -57 t-53 -57q-51 -16 -109.5 -26.5t-124.5 -16.5l-24.5 -3.5t-22.5 1.5zM317 1380q0 -31 16.5 -63.5t43.5 -61.5q2 -4 10 -9t12 -9l271 -57l26 -66q27 29 16.5 72t-36 89t-58 87t-53.5 65q-29 33 -59.5 53.5t-65.5 20.5q-47 0 -90 -43q-33 -35 -33 -78z" />
<glyph unicode="&#xe9;" horiz-adv-x="1050" d="M57 479q0 -115 34 -207t97.5 -158.5t152.5 -102.5t200 -36q88 0 176 30t155.5 76t106.5 103.5t27 112.5v-2q-4 33 -35 56.5t-62 23.5q-41 -6 -75 -41q-49 -53 -110.5 -94t-160.5 -41q-74 0 -131 32.5t-86 90.5q-16 33 -18 49q20 4 24 2t21 0q25 0 49 2t56 6t72 14.5 t95 26.5q121 37 193.5 108.5t72.5 188.5q0 68 -27.5 125t-75.5 100t-114.5 66.5t-142.5 23.5q-109 0 -200 -44t-155.5 -118.5t-101.5 -176t-37 -216.5zM307 578q6 45 23.5 89t45 77.5t63.5 54t79 20.5q41 0 75 -15.5t50 -43.5q-2 2 1 -4t7 -11q2 -2 2 -4t4 -4q2 -29 -16 -57 t-53 -57q-51 -16 -109.5 -26.5t-124.5 -16.5l-24.5 -3.5t-22.5 1.5zM335.5 1186q10.5 43 37 89t60.5 87t52 65q29 33 59.5 53.5t67.5 20.5q43 0 86 -43q35 -37 35 -78q0 -29 -16.5 -61.5t-44.5 -63.5l-19 -18q-29 -25 -69.5 -56.5t-83.5 -55t-82 -31t-66 19.5h-2 q-25 29 -14.5 72z" />
<glyph unicode="&#xea;" horiz-adv-x="1050" d="M57 479q0 -115 34 -207t97.5 -158.5t152.5 -102.5t200 -36q88 0 176 30t155.5 76t106.5 103.5t27 112.5v-2q-4 33 -35 56.5t-62 23.5q-41 -6 -75 -41q-49 -53 -110.5 -94t-160.5 -41q-74 0 -131 32.5t-86 90.5q-16 33 -18 49q20 4 24 2t21 0q25 0 49 2t56 6t72 14.5 t95 26.5q121 37 193.5 108.5t72.5 188.5q0 68 -27.5 125t-75.5 100t-114.5 66.5t-142.5 23.5q-109 0 -200 -44t-155.5 -118.5t-101.5 -176t-37 -216.5zM233 1188q-2 -12 2.5 -32.5t19.5 -39t44 -28t72 -1.5q25 8 56.5 42t64.5 75v-2q12 14 23 28.5t22 26.5q14 -10 17 -19 t21 -36q29 -39 58 -73.5t59 -38.5l125 43q0 25 -9 52t-24.5 55t-34 53.5t-36.5 47.5v-2q-4 4 -10.5 11.5t-10.5 15.5q-6 10 -14 17.5t-14 17.5q-16 25 -33 45t-33 31q-14 16 -33.5 19t-36.5 -1q-27 0 -45 -8t-37 -23q-37 -37 -73.5 -77.5t-66.5 -78.5t-50 -70t-23 -50z M307 578q6 45 23.5 89t45 77.5t63.5 54t79 20.5q41 0 75 -15.5t50 -43.5q-2 2 1 -4t7 -11q2 -2 2 -4t4 -4q2 -29 -16 -57t-53 -57q-51 -16 -109.5 -26.5t-124.5 -16.5l-24.5 -3.5t-22.5 1.5z" />
<glyph unicode="&#xeb;" horiz-adv-x="1050" d="M57 479q0 -115 34 -207t97.5 -158.5t152.5 -102.5t200 -36q88 0 176 30t155.5 76t106.5 103.5t27 112.5v-4q-4 35 -34 58.5t-63 23.5q-41 -6 -75 -41q-49 -53 -110.5 -94t-160.5 -41q-74 0 -131 32.5t-86 90.5q-16 33 -18 49q20 4 24 2t21 0q25 0 49 2t56 6t72 14.5 t95 26.5q121 37 193.5 108.5t72.5 188.5q0 68 -27.5 125t-75.5 100t-114.5 66.5t-142.5 23.5q-109 0 -200 -44t-155.5 -118.5t-101.5 -176t-37 -216.5zM233 1288q0 -66 30 -117t89 -49l92 189l39 -43q6 33 -2 63.5t-24.5 54t-41 36t-50.5 12.5q-49 0 -87 -42t-45 -104z M307 578q6 45 23.5 89t45 77.5t63.5 54t79 20.5q41 0 75 -15.5t50 -43.5q-2 2 1 -4t7 -11q2 -2 2 -4t4 -4q2 -29 -16 -57t-53 -57q-51 -16 -109.5 -26.5t-124.5 -16.5l-24.5 -3.5t-22.5 1.5zM565 1288q0 -66 30 -117t89 -49q45 0 86 41t47 107q4 33 -4 62.5t-25.5 53t-41 36 t-52.5 12.5q-47 0 -85 -42t-44 -104z" />
<glyph unicode="&#xec;" horiz-adv-x="370" d="M-14 1380q0 -31 16 -63.5t43 -61.5q2 -4 9 -9t12 -9q29 -25 69.5 -56.5t83.5 -55t82 -31t66 19.5h2q25 29 14.5 72t-37.5 89t-60.5 87t-52.5 65q-29 33 -59.5 53.5t-67.5 20.5q-45 0 -88 -43q-33 -33 -32 -78zM47 311q0 -80 4 -140t17.5 -100t39 -59.5t70.5 -19.5 q18 0 44 12t49.5 32.5t40 48.5t14.5 56q-6 53 -7.5 126t-1.5 153q0 88 5.5 181t9.5 187q2 23 2 48q0 24 2 49q2 150 -115 149q-12 0 -35.5 -5t-48 -19.5t-45 -40t-24.5 -66.5q-6 -57 -7.5 -125.5t-3.5 -128.5q-2 -53 -3 -103t-5 -97q-2 -25 -2 -52v-51v-35z" />
<glyph unicode="&#xed;" horiz-adv-x="370" d="M-12.5 1182q8.5 41 33 85t57.5 84t55 66l2 4q29 35 61.5 57.5t69.5 22.5q43 0 86 -43q35 -37 35 -78q0 -29 -16.5 -61.5t-44.5 -63.5q-4 -4 -7.5 -6t-7.5 -6q-27 -23 -67.5 -56.5t-85.5 -59t-86 -34t-68 20.5h2q-27 27 -18.5 68zM39 311q0 -80 4 -140t17.5 -100t40 -59.5 t69.5 -19.5q16 0 42 13t49.5 34.5t39.5 48.5t16 55q-4 53 -6 126t-2 151q0 74 3 145.5t7 149.5q2 41 4.5 84t4.5 86q4 76 -26 112.5t-89 36.5q-12 0 -35.5 -5t-48.5 -19.5t-44 -40t-26 -66.5q-4 -59 -5 -122.5t-3 -123.5q-2 -57 -4 -109t-6 -99q-2 -25 -2 -52v-51v-35z" />
<glyph unicode="&#xee;" horiz-adv-x="370" d="M-106 1188q-2 -12 2 -32.5t19 -39t44 -28t72 -1.5q23 8 55.5 42t65.5 75v-2q10 14 22 28.5t23 26.5q14 -10 17 -19t22 -36q29 -39 56 -73.5t58 -38.5l127 43q0 51 -34.5 108t-69.5 100v-2q-4 4 -11.5 12.5t-13.5 16.5l2 -2q-4 10 -12 17.5t-14 17.5q-16 25 -33 45t-33 31 q-16 16 -35.5 19t-34.5 -1q-27 0 -45 -8t-37 -23q-37 -37 -73.5 -77.5t-66 -78.5t-50 -70t-22.5 -50zM39 311q0 -80 4 -140t17.5 -100t40 -59.5t69.5 -19.5q16 0 42 13t49.5 34.5t39.5 48.5t16 55q-4 53 -6 126t-2 151q0 74 3 145.5t7 149.5q2 41 4.5 84t4.5 86 q4 76 -26 112.5t-89 36.5q-12 0 -35.5 -5t-48.5 -19.5t-44 -40t-26 -66.5q-4 -59 -5 -122.5t-3 -123.5q-2 -57 -4 -109t-6 -99q-2 -25 -2 -52v-51v-35z" />
<glyph unicode="&#xef;" horiz-adv-x="370" d="M-106 1288q0 -66 29.5 -117t88.5 -49l92 189l39 -43q10 70 -27.5 119t-92.5 47q-47 -2 -85 -44t-44 -102zM39 311q0 -80 4 -140t17.5 -100t40 -59.5t69.5 -19.5q16 0 42 13t49.5 34.5t39.5 48.5t16 55q-4 53 -5 126t-1 151q0 74 2 145.5t6 149.5q2 41 4.5 84t4.5 86 q4 76 -26 112.5t-89 36.5q-12 0 -35.5 -5t-48.5 -19.5t-44 -40t-24 -66.5q-6 -57 -8 -125.5t-4 -128.5q-2 -53 -3 -103t-5 -97q-2 -25 -2 -52v-51v-35zM225 1288q0 -66 31 -117t90 -49q43 0 84 41t47 107q4 33 -4 63.5t-25.5 53t-42 36t-53.5 11.5q-47 -2 -84 -44t-43 -102z " />
<glyph unicode="&#xf0;" horiz-adv-x="1044" d="M57 403q0 -215 119 -323.5t316 -108.5q96 0 183 26t152.5 80t104.5 135t43 191q0 10 1 22.5t1 23.5v34q-4 313 -86 523q31 14 55.5 41.5t38.5 70.5q8 16 12 36t4 24v8q-8 39 -25.5 45t-43.5 6h-25q-59 -14 -85.5 -22.5t-45.5 -12.5q-121 145 -315 199q-29 8 -56.5 0 t-50 -28.5t-37 -47.5t-14.5 -53q0 -27 15.5 -51.5t48.5 -34.5q29 -10 54 -21.5t50 -25.5q-16 -4 -18 -4h-2q-45 -10 -78 -21.5t-57.5 -26t-41 -35t-26.5 -51.5q-10 -12 -14.5 -27.5t-2.5 -27.5q16 -90 123 -67q10 0 29.5 5t38.5 11q31 10 66.5 17.5t89.5 19.5q29 8 41 9 t20 3q4 2 8 2t15 4q10 -23 17 -42t13 -46q-35 10 -70.5 14.5t-76.5 4.5q-106 0 -195.5 -30t-154 -90.5t-101.5 -149.5t-37 -208zM303 434q0 119 60.5 171t156.5 52q98 0 151.5 -51t53.5 -180q0 -119 -60.5 -166t-156.5 -47q-98 0 -151.5 52t-53.5 169z" />
<glyph unicode="&#xf1;" horiz-adv-x="1021" d="M57 272q0 -68 4.5 -122t16.5 -90.5t37.5 -57t68.5 -20.5q25 0 53.5 14t51 42t35 66.5t6.5 90.5q-4 23 -4 43v43q0 98 13 192t44 168t79 120t120 46q51 2 84.5 -37t33.5 -127v-33q0 -18 -2 -41q-2 -29 -3 -60.5t-1 -59.5v-105q0 -57 4 -119.5t16.5 -115t35 -88t61.5 -39.5 q4 0 14 -5q14 -4 34 -6t42 13q45 10 63.5 54t14.5 93q0 6 -1 14.5t-1 16.5q-4 45 -8 100t-4 111v260q0 184 -84 291.5t-226 115.5q-37 2 -76.5 -7t-80.5 -27.5t-80 -44t-72 -58.5l-10 -10v4v4q2 0 2 4q0 6 2 10q-4 45 -19.5 77t-56.5 34q-16 4 -47 0t-60.5 -15.5t-54 -32 t-28.5 -46.5q-2 -10 -2 -29q0 -18 2 -31q0 -10 1 -16t1 -14v-37q-6 -61 -10.5 -133t-6.5 -144.5t-2 -140.5v-115zM143 1253q0 -29 8.5 -55.5t26 -40.5t42 -11t56.5 34q47 47 97 47q45 0 94 -56q80 -61 166 -61l188 172l21 -72q25 16 37 42t12 51q0 29 -11.5 53t-32 36.5 t-46 8.5t-53.5 -33q-23 -23 -48.5 -36t-50.5 -13q-49 0 -94 53q-41 33 -84 48.5t-84 15.5q-119 0 -215 -103l4 2q-16 -12 -24.5 -34.5t-8.5 -47.5zM340 879v2l2 2q-2 -2 -2 -4z" />
<glyph unicode="&#xf2;" horiz-adv-x="1017" d="M57 481q0 -106 31 -199.5t88 -162t137 -108.5t179 -40q96 0 181 39t148.5 108.5t103.5 161.5t48 201q8 115 -19.5 216.5t-85 176t-140.5 118.5t-185 44q-104 0 -193.5 -43t-154 -117.5t-101.5 -176t-37 -218.5zM301 1380q0 -31 16.5 -63.5t42.5 -61.5q2 -4 10.5 -9 t12.5 -9l270 -57l27 -66q27 29 16.5 72t-36 89t-58.5 87t-53 65q-29 33 -59.5 53.5t-65.5 20.5q-47 0 -90 -43q-33 -35 -33 -78zM303 512q0 61 15.5 115.5t44 95.5t68.5 64.5t89 23.5q47 0 85 -23.5t63.5 -64.5t40 -97t14.5 -122q0 -61 -15.5 -114.5t-44 -92.5t-68.5 -61.5 t-89 -22.5t-86 24.5t-63.5 65.5t-40 95.5t-13.5 113.5z" />
<glyph unicode="&#xf3;" horiz-adv-x="1017" d="M57 481q0 -106 31 -199.5t88 -162t137 -108.5t179 -40q96 0 181 39t148.5 108.5t103.5 161.5t48 201q8 115 -19.5 216.5t-85 176t-140.5 118.5t-185 44q-104 0 -193.5 -43t-154 -117.5t-101.5 -176t-37 -218.5zM303 512q0 61 15.5 115.5t44 95.5t68.5 64.5t89 23.5 q47 0 85 -23.5t63.5 -64.5t40 -97t14.5 -122q0 -61 -15.5 -114.5t-44 -92.5t-68.5 -61.5t-89 -22.5t-86 24.5t-63.5 65.5t-40 95.5t-13.5 113.5zM319.5 1186q10.5 43 37 89t60.5 87t52 65q29 33 59.5 53.5t67.5 20.5q43 0 86 -43q35 -37 35 -78q0 -29 -16.5 -61.5 t-45.5 -63.5l-18 -18q-29 -25 -70 -56.5t-84 -55t-82 -31t-65 19.5h-2q-25 29 -14.5 72z" />
<glyph unicode="&#xf4;" horiz-adv-x="1017" d="M57 481q0 -106 31 -199.5t88 -162t137 -108.5t179 -40q96 0 181 39t148.5 108.5t103.5 161.5t48 201q8 115 -19.5 216.5t-85 176t-140.5 118.5t-185 44q-104 0 -193.5 -43t-154 -117.5t-101.5 -176t-37 -218.5zM217 1188q-2 -12 2 -32.5t19.5 -39t44 -28t71.5 -1.5 q25 8 56.5 42t64.5 75v-2q12 14 23.5 28.5t21.5 26.5q14 -10 17.5 -19t21.5 -36q29 -39 57.5 -73.5t59.5 -38.5l125 43q0 25 -9.5 52t-24.5 55t-33.5 53.5t-37.5 47.5v-2q-4 4 -10 11.5t-10 15.5q-6 10 -14.5 17.5t-14.5 17.5q-16 25 -32.5 45t-32.5 31q-14 16 -34 19 t-36 -1q-27 0 -45 -8t-37 -23q-37 -37 -74 -77.5t-66.5 -78.5t-50 -70t-22.5 -50zM303 512q0 61 15.5 115.5t44 95.5t68.5 64.5t89 23.5q47 0 85 -23.5t63.5 -64.5t40 -97t14.5 -122q0 -61 -15.5 -114.5t-44 -92.5t-68.5 -61.5t-89 -22.5t-86 24.5t-63.5 65.5t-40 95.5 t-13.5 113.5z" />
<glyph unicode="&#xf5;" horiz-adv-x="1017" d="M57 481q0 -106 31 -199.5t88 -162t137 -108.5t179 -40q96 0 181 39t148.5 108.5t103.5 161.5t48 201q8 115 -19.5 216.5t-85 176t-140.5 118.5t-185 44q-104 0 -193.5 -43t-154 -117.5t-101.5 -176t-37 -218.5zM141 1253q0 -29 8.5 -55.5t26 -40.5t42 -11t56.5 34 q47 47 97 47q45 0 94 -56q80 -61 166 -61q59 0 114.5 26.5t104.5 82.5l-8 -7q47 37 47 88q0 29 -11.5 54.5t-31 38t-46 8.5t-55.5 -33q-23 -23 -48 -36t-50 -13q-49 0 -94 53q-41 33 -84 48.5t-84 15.5q-119 0 -215 -103l4 2q-16 -12 -24.5 -34.5t-8.5 -47.5zM303 512 q0 61 15.5 115.5t44 95.5t68.5 64.5t89 23.5q47 0 85 -23.5t63.5 -64.5t40 -97t14.5 -122q0 -61 -15.5 -114.5t-44 -92.5t-68.5 -61.5t-89 -22.5t-86 24.5t-63.5 65.5t-40 95.5t-13.5 113.5z" />
<glyph unicode="&#xf6;" horiz-adv-x="1017" d="M57 481q0 -106 31 -199.5t88 -162t137 -108.5t179 -40q96 0 181 39t148.5 108.5t103.5 161.5t48 201q8 115 -19.5 216.5t-85 176t-140.5 118.5t-185 44q-104 0 -193.5 -43t-154 -117.5t-101.5 -176t-37 -218.5zM217 1288q0 -66 29.5 -117t89.5 -49l92 189l39 -43 q6 33 -2 63.5t-24.5 54t-41 36t-51.5 12.5q-49 0 -87 -42t-44 -104zM303 512q0 61 15.5 115.5t44 95.5t68.5 64.5t89 23.5q47 0 85 -23.5t63.5 -64.5t40 -97t14.5 -122q0 -61 -15.5 -114.5t-44 -92.5t-68.5 -61.5t-89 -22.5t-86 24.5t-63.5 65.5t-40 95.5t-13.5 113.5z M549 1288q0 -66 29.5 -117t89.5 -49q45 0 86 41t47 107q4 33 -4.5 62.5t-25.5 53t-40.5 36t-52.5 12.5q-47 0 -85 -42t-44 -104z" />
<glyph unicode="&#xf7;" horiz-adv-x="1179" d="M61 612q6 -25 23.5 -41t41.5 -27.5t49.5 -16.5t45.5 -5q141 6 275 6q55 0 111.5 -1t111.5 -1h186q78 0 134.5 21.5t84.5 101.5q6 10 7.5 17.5t1.5 17.5q0 35 -19.5 52.5t-47.5 25.5t-60 8q-33 0 -58 -2q-8 0 -13 -1t-9 -1h-308q-57 0 -112 1t-111 1q-10 0 -21.5 1 t-21.5 1h-61q-47 0 -89 -6t-71 -29q-27 -23 -52.5 -51.5t-17.5 -71.5zM410 352q4 -35 15 -66.5t31.5 -57t50.5 -41t73 -15.5q39 0 70.5 16.5t52 44t26.5 63.5t-4 75l2 -4q-2 8 -3 18t-3 18q-12 72 -51 97.5t-107 25.5q-78 0 -119 -51t-34 -123zM422 956q2 -76 49 -132 t121 -56q39 0 70.5 16.5t52 43t28 62.5t-5.5 75v-2q-2 6 -4 13t-4 11l2 -2q-12 68 -49 97.5t-109 29.5q-70 0 -110.5 -45t-40.5 -111z" />
<glyph unicode="&#xf8;" horiz-adv-x="1017" d="M57 481q0 -125 40 -229.5t118 -173.5q-2 -4 -2 -6l-12 -29q-10 -23 -14.5 -35t-10.5 -20q-4 -23 5 -42.5t23.5 -33.5t32 -22.5t31.5 -8.5q47 0 82 26.5t64 69.5q23 -4 39 -5t39 -1q96 0 181 39t148.5 108.5t103.5 162t48 200.5q10 139 -31 257t-125 194q16 35 32.5 64.5 t41.5 66.5v-2q4 6 5 13t5 16l2 10q0 20 -11 36.5t-29.5 28t-40 15.5t-40.5 -2q-66 -4 -106.5 -45t-69.5 -101q-14 2 -28.5 3t-34.5 1q-104 0 -193.5 -43t-154 -117.5t-101.5 -176t-37 -218.5zM303 512q0 61 15.5 114.5t44 94.5t68.5 65.5t87 24.5q-43 -92 -74.5 -174 t-60.5 -158q-14 -35 -25.5 -67.5t-23.5 -67.5q-31 74 -31 168zM514 213l7 17.5t7 15.5l160 389l10 29q25 -68 25 -160q0 -123 -57.5 -205t-151.5 -86z" />
<glyph unicode="&#xf9;" horiz-adv-x="972" d="M55 502q0 -66 5.5 -137.5t25.5 -131.5q39 -106 116 -173.5t199 -75.5h58q37 0 79 7t84 21.5t74 40.5q6 -25 22.5 -39t36 -20t36 -7t22.5 -1q66 0 92.5 30.5t22.5 79.5v21v33q0 18 -2 36.5t-6 30.5q-2 25 -3.5 50.5t-1.5 62.5v55q0 129 3.5 252t13.5 250q4 78 -29 110.5 t-82 32.5q-23 0 -51.5 -13t-53 -33.5t-41 -46.5t-16.5 -50q-2 -41 -3 -86t-1 -90q-2 -78 -5 -155t-11 -144q0 -47 -17.5 -84t-47 -60.5t-66.5 -34t-76 -4.5q-63 4 -86.5 68.5t-23.5 200.5q0 33 3 73.5t7 87.5q4 57 7 122t3 130q0 29 -13.5 52.5t-34 39t-46 22.5t-49.5 3 q-53 -8 -81 -28.5t-40 -48t-13.5 -60.5t-1.5 -66v-55q-4 -39 -4 -76t-2 -71q0 -12 -1 -23.5t-1 -24.5v-73zM279 1380q0 -31 16 -63.5t43 -61.5q2 -4 10 -9t12 -9l271 -57l26 -66q27 29 17 72t-36 89t-58.5 87t-53.5 65q-29 33 -59.5 53.5t-65.5 20.5q-47 0 -90 -43 q-33 -35 -32 -78z" />
<glyph unicode="&#xfa;" horiz-adv-x="972" d="M55 502q0 -66 5.5 -137.5t25.5 -131.5q39 -106 116 -173.5t199 -75.5h58q37 0 79 7t84 21.5t74 40.5q6 -25 22.5 -39t36 -20t36 -7t22.5 -1q66 0 92.5 30.5t22.5 79.5v21v33q0 18 -2 36.5t-6 30.5q-2 25 -3.5 50.5t-1.5 62.5v55q0 129 3.5 252t13.5 250q4 78 -29 110.5 t-82 32.5q-23 0 -51.5 -13t-53 -33.5t-41 -46.5t-16.5 -50q-2 -41 -3 -86t-1 -90q-2 -78 -5 -155t-11 -144q0 -47 -17.5 -84t-47 -60.5t-66.5 -34t-76 -4.5q-63 4 -86.5 68.5t-23.5 200.5q0 33 3 73.5t7 87.5q4 57 7 122t3 130q0 29 -13.5 52.5t-34 39t-46 22.5t-49.5 3 q-53 -8 -81 -28.5t-40 -48t-13.5 -60.5t-1.5 -66v-55q-4 -39 -4 -76t-2 -71q0 -12 -1 -23.5t-1 -24.5v-73zM296.5 1186q10.5 43 37 89t60.5 87t52 65q29 33 60 53.5t67 20.5q43 0 86 -43q35 -37 35 -78q0 -29 -16 -61.5t-45 -63.5l-19 -18q-29 -25 -69.5 -56.5t-83.5 -55 t-82 -31t-66 19.5h-2q-25 29 -14.5 72z" />
<glyph unicode="&#xfb;" horiz-adv-x="972" d="M55 502q0 -66 5.5 -137.5t25.5 -131.5q39 -106 116 -173.5t199 -75.5h58q37 0 79 7t84 21.5t74 40.5q6 -25 22.5 -39t36 -20t36 -7t22.5 -1q66 0 92.5 30.5t22.5 79.5v21v33q0 18 -2 36.5t-6 30.5q-2 25 -3.5 50.5t-1.5 62.5v55q0 129 3.5 252t13.5 250q4 78 -29 110.5 t-82 32.5q-23 0 -51.5 -13t-53 -33.5t-41 -46.5t-16.5 -50q-2 -41 -3 -86t-1 -90q-2 -78 -5 -155t-11 -144q0 -47 -17.5 -84t-47 -60.5t-66.5 -34t-76 -4.5q-63 4 -86.5 68.5t-23.5 200.5q0 33 3 73.5t7 87.5q4 57 7 122t3 130q0 29 -13.5 52.5t-34 39t-46 22.5t-49.5 3 q-53 -8 -81 -28.5t-40 -48t-13.5 -60.5t-1.5 -66v-55q-4 -39 -4 -76t-2 -71q0 -12 -1 -23.5t-1 -24.5v-73zM195 1188q-2 -12 2 -32.5t19 -39t44 -28t72 -1.5q25 8 56.5 42t64.5 75v-2q12 14 23 28.5t22 26.5q14 -10 17 -19t22 -36q29 -39 57.5 -73.5t58.5 -38.5 q70 0 101.5 24.5t21.5 65.5v-9q0 12 -10 33t-26.5 45.5t-35 49t-36.5 47.5q-4 4 -7.5 9t-7.5 11q-6 10 -14 17.5t-14 17.5q-16 25 -33 45t-33 31q-14 16 -33.5 19t-36.5 -1q-27 0 -45 -8t-36 -23q-37 -37 -74 -77.5t-66.5 -78.5t-50 -70t-22.5 -50z" />
<glyph unicode="&#xfc;" horiz-adv-x="972" d="M55 502q0 -66 5.5 -137.5t25.5 -131.5q39 -106 116 -173.5t199 -75.5h58q37 0 79 7t84 21.5t74 40.5q6 -25 22.5 -39t36 -20t36 -7t22.5 -1q66 0 92.5 30.5t22.5 79.5v21v33q0 18 -2 36.5t-6 30.5q-2 25 -3.5 50.5t-1.5 62.5v55q0 129 3.5 252t13.5 250q4 78 -29 110.5 t-82 32.5q-23 0 -51.5 -13t-53 -33.5t-41 -46.5t-16.5 -50q-2 -41 -3 -86t-1 -90q-2 -78 -5 -155t-11 -144q0 -47 -17.5 -84t-47 -60.5t-66.5 -34t-76 -4.5q-63 4 -86.5 68.5t-23.5 200.5q0 33 3 73.5t7 87.5q4 57 7 122t3 130q0 29 -13.5 52.5t-34 39t-46 22.5t-49.5 3 q-53 -8 -81 -28.5t-40 -48t-13.5 -60.5t-1.5 -66v-55q-4 -39 -4 -76t-2 -71q0 -12 -1 -23.5t-1 -24.5v-73zM195 1288q0 -66 29.5 -117t88.5 -49l93 189l38 -43q10 70 -26.5 119t-93.5 47q-47 -2 -85 -44t-44 -102zM526 1288q0 -66 31 -117t90 -49q43 0 84 41t47 107 q4 33 -4 63.5t-25.5 53t-41 36t-52.5 11.5q-49 -2 -86 -44t-43 -102z" />
<glyph unicode="&#xfd;" horiz-adv-x="1069" d="M57 879q6 -35 30 -87.5t46 -101.5q6 -14 14.5 -32.5t16.5 -34.5q29 -66 60.5 -134.5t62.5 -134.5q12 -27 21 -49t22 -47q6 -10 13 -26.5t13 -26.5l-2 2q18 -35 33.5 -68t32.5 -69q-4 -23 -16.5 -47.5t-24.5 -51.5q-16 -33 -30.5 -67.5t-20.5 -65.5q-16 -41 -26.5 -89 t-10.5 -95q0 -20 2 -41t10 -39q4 -20 18.5 -36.5t34 -28t41 -14.5t39.5 1q37 8 56.5 18.5t29.5 23.5t13.5 33.5t7.5 49.5t13 80t38 125q49 129 91 237.5t85 212.5q41 104 84 213t94 242l-2 -2q4 10 7 20.5t8 20.5q12 29 24 59.5t31 51.5l8 22q2 18 -8 41t-27.5 41.5 t-39 30.5t-40.5 12q-51 0 -87 -25.5t-60.5 -63.5t-40.5 -84t-29 -85q-4 -10 -6 -17.5t-6 -15.5v-2q-29 -84 -64.5 -180t-72.5 -182q-25 43 -50.5 112.5t-56.5 147.5q-27 70 -54.5 139.5t-57 125.5t-60.5 91t-61 35q-23 0 -50.5 -12.5t-50 -33t-36 -47t-9.5 -52.5z M345.5 1186q10.5 43 37.5 89t59.5 87t51.5 65q29 33 61.5 53.5t67.5 20.5q45 0 86 -43q18 -18 26 -38.5t8 -39.5q0 -31 -16 -62.5t-45 -62.5l-10 -10l-8 -8q-29 -25 -70 -56.5t-84 -55t-82 -31t-66 19.5h-2q-25 29 -14.5 72z" />
<glyph unicode="&#xfe;" horiz-adv-x="1026" d="M57 16v-229q0 -57 4.5 -104.5t17.5 -82t38.5 -54t68.5 -19.5q18 0 44 11t49.5 32.5t39 54.5t9.5 74q0 14 -1 24.5t-1 22.5q-2 35 -2 74v90v131v2q27 -14 49 -24.5t43.5 -17.5t45 -11t52.5 -4q90 0 174 40t149.5 112.5t105.5 174t40 224.5q0 102 -32.5 195t-92 163 t-140.5 108.5t-175 32.5q-53 -4 -106.5 -25.5t-98.5 -49.5v6v69q0 37 -1 72t-4 63.5t-7 45.5l6 -13q0 27 -3 51.5t-14.5 44t-33 30.5t-58.5 11q-59 0 -107 -40.5t-48 -122.5q0 -47 -1 -125t-1 -170v-133v-129t-1.5 -114.5t-1.5 -90.5v2q-4 -80 -5 -189.5t-1 -212.5zM324 496 q0 137 52 223t152 90q45 2 81 -20.5t61.5 -60.5t40 -91.5t16.5 -112.5q2 -66 -10 -122t-38 -97t-67 -64.5t-94 -23.5t-92 25.5t-76 64.5q-12 41 -19 88t-7 101z" />
<glyph unicode="&#xff;" horiz-adv-x="1069" d="M57 879q6 -35 30 -87.5t46 -101.5q6 -14 14.5 -32.5t16.5 -34.5q29 -66 60.5 -134.5t62.5 -134.5q12 -27 21 -49t22 -47q6 -10 13 -26.5t13 -26.5l-2 2q18 -35 33.5 -68t32.5 -69q-4 -23 -16.5 -47.5t-24.5 -51.5q-16 -33 -30.5 -67.5t-20.5 -65.5q-16 -41 -26.5 -89 t-10.5 -95q0 -20 2 -41t10 -39q4 -20 18.5 -36.5t34 -28t41 -14.5t39.5 1q37 8 56.5 18.5t29.5 23.5t13.5 33.5t7.5 49.5t13 80t38 125q49 129 91 237.5t85 212.5q41 104 84 213t94 242l-2 -2q4 10 7 20.5t8 20.5q12 29 24 59.5t31 51.5l8 22q2 18 -8 41t-27.5 41.5 t-39 30.5t-40.5 12q-51 0 -87 -25.5t-60.5 -63.5t-40.5 -84t-29 -85q-4 -10 -6 -17.5t-6 -15.5v-2q-29 -84 -64.5 -180t-72.5 -182q-25 43 -50.5 112.5t-56.5 147.5q-27 70 -54.5 139.5t-57 125.5t-60.5 91t-61 35q-23 0 -50.5 -12.5t-50 -33t-36 -47t-9.5 -52.5zM244 1288 q0 -66 29.5 -117t88.5 -49q47 0 86.5 41t45.5 107q4 33 -4.5 63.5t-26 53t-41 36t-49.5 11.5q-49 -2 -86 -44t-43 -102zM575 1288q0 -66 30 -117t89 -49q45 0 85 41t46 107q4 33 -4 62.5t-24.5 53t-41 36t-50.5 12.5q-49 0 -86 -42t-44 -104z" />
<glyph unicode="&#x152;" horiz-adv-x="1875" d="M80 662q0 -145 46 -271.5t126 -219.5t188.5 -147.5t235.5 -54.5q12 -2 38.5 -3t59.5 -1q66 0 155 6t173 16.5t148.5 21.5t82.5 22l-33 -39q125 0 225.5 13t168 40t97.5 68t13 96l2 -4q-16 82 -102 82q-8 0 -17.5 -2t-13.5 -4l4 2q-106 -23 -202.5 -34t-192.5 -13 q-49 0 -83 5t-50 19q-8 39 -13.5 124t-5.5 175v31q0 18 3 31q29 20 99.5 24t192.5 10q35 2 69 5.5t65 11.5h34q53 20 87 60t30 79q-4 41 -33.5 64.5t-89.5 23.5q-43 0 -114.5 -5t-149.5 -13q-49 -4 -96 -7.5t-88 -7.5q-6 29 -8.5 60.5t-2.5 62.5q0 57 6.5 111.5t8.5 85.5 q23 8 54.5 14t66 8t70.5 3t67 1h61q10 0 22.5 -1t22.5 -1q51 -2 99.5 2.5t76.5 26.5q31 20 48.5 52t15.5 61q-10 68 -77.5 86t-194.5 18h-93q-16 0 -29.5 -1t-29.5 -1l-604 -12q-131 -4 -248 -64.5t-204 -165t-137 -246t-50 -304.5zM332 698q0 111 29.5 204t85 159.5 t132 104.5t171.5 38q-2 6 23.5 9.5t68.5 5.5q14 -20 27.5 -47t11.5 -68q0 -35 -4.5 -76t-8.5 -84q-4 -53 -9 -105.5t-5 -107.5v-39q0 -10 1 -19t1 -18v-69q0 -123 3 -211t15 -152q-63 -4 -112 -4h-64q-84 0 -151.5 38t-114.5 102.5t-73.5 151.5t-26.5 187z" />
<glyph unicode="&#x153;" horiz-adv-x="1755" d="M78 481q0 -106 30.5 -199.5t88 -162t136.5 -108.5t177 -40q104 0 194.5 46t155.5 124q63 -72 156.5 -113.5t208.5 -41.5q88 0 176 29.5t156.5 75.5t107.5 103.5t27 112.5v-2q-4 33 -35 56.5t-64 23.5q-41 -6 -75 -41q-47 -53 -109.5 -93t-159.5 -40q-74 0 -131 32.5 t-86 90.5q-10 16 -14 28.5t-6 18.5q20 2 25 1t22 1q45 2 104.5 9t167.5 42q121 37 193.5 108.5t72.5 188.5q0 68 -27.5 125t-76.5 100t-115.5 67t-142.5 24q-111 0 -200 -44.5t-154 -121.5q-57 72 -139.5 113.5t-178.5 41.5q-104 0 -193 -43t-153.5 -117.5t-101.5 -176 t-37 -218.5zM324 512q0 61 15 115.5t44 95.5t69 64.5t89 23.5q47 0 85 -23.5t63.5 -64.5t39.5 -97t14 -122q0 -61 -16 -114.5t-45 -92.5t-69 -61.5t-87 -22.5q-49 0 -86 24.5t-63.5 65.5t-39.5 95.5t-13 113.5zM991 602q6 47 23.5 90t45 77t64.5 54.5t80 20.5q41 0 74 -15.5 t51 -44.5q-2 2 1 -4l5 -10q2 0 2 -2t4 -4q4 -29 -14 -58.5t-53 -58.5q-51 -16 -110.5 -26.5t-123.5 -16.5q-14 -2 -25 -3t-24 1z" />
<glyph unicode="&#x178;" horiz-adv-x="1275" d="M61 1298q18 -43 61.5 -122.5t94.5 -164.5t103.5 -161t91.5 -115q10 -14 22 -28.5t29 -30.5q23 -23 41 -50.5t20 -56.5q-4 -63 -5 -121.5t-1 -111.5v-100t-2 -89v3q-10 -76 13.5 -123t78.5 -52q29 -4 60.5 12.5t59.5 42t48.5 56.5t26.5 57v74q0 41 -2 76q-2 29 -2 53v51 q0 72 14 152t51 156q41 82 102.5 185t118.5 202q27 45 51.5 83.5t41.5 71.5l-4 -2q12 18 22 39t17.5 40t10.5 34.5t1 23.5l2 -4q-4 35 -39 67t-74 32q-47 0 -80 -19.5t-57.5 -50.5t-43 -66.5t-32.5 -68.5q-4 -10 -10 -24.5t-14 -24.5q-39 -80 -72 -139.5t-60.5 -103.5 t-49 -77t-38.5 -57v2q-4 -4 -6 -7t-6 -7q-25 33 -59.5 85t-74.5 115.5t-83 132t-80 133.5q-35 59 -64.5 92t-72.5 33q-47 0 -88 -36.5t-62 -90.5zM346 1696q0 -66 30 -118t89 -50l92 190l39 -45q6 35 -2 67t-24.5 54.5t-41 35.5t-53.5 11q-49 -2 -86 -44t-43 -101zM678 1696 q0 -66 29.5 -118t89.5 -50q45 0 86 40.5t47 106.5q8 70 -30 119t-95 47q-47 -2 -84 -44t-43 -101z" />
<glyph unicode="&#x2c6;" horiz-adv-x="661" d="M47 1202q-2 -12 2 -31.5t19.5 -37t43 -27.5t70.5 -4q23 10 55.5 44t65.5 75v-2q12 14 23.5 28.5t21.5 24.5q14 -10 17.5 -19.5t21.5 -33.5q29 -41 57.5 -76t57.5 -39q72 0 102.5 24.5t24.5 65.5v-2q-4 29 -39 79t-70 91q-4 4 -7 9t-9 9q-4 10 -12.5 18.5t-14.5 16.5 q-16 27 -32.5 46.5t-32.5 29.5q-16 16 -36 20.5t-34 -0.5q-27 0 -45 -9t-37 -21q-37 -37 -73.5 -78t-66.5 -80t-50.5 -70.5t-22.5 -50.5z" />
<glyph unicode="&#x2dc;" horiz-adv-x="833" d="M51 1300q0 -31 8.5 -57t25.5 -40.5t42 -10.5t55 35q49 45 99 45q45 0 92 -53q80 -61 166 -62q57 0 111.5 24.5t101.5 78.5q45 31 45 88q0 29 -11.5 53t-32 36.5t-46 8.5t-52.5 -31q-49 -49 -98 -49q-51 0 -94 51q-82 66 -168 66q-119 0 -215 -103h4q-16 -10 -24.5 -32.5 t-8.5 -47.5z" />
<glyph unicode="&#x2000;" horiz-adv-x="971" />
<glyph unicode="&#x2001;" horiz-adv-x="1942" />
<glyph unicode="&#x2002;" horiz-adv-x="971" />
<glyph unicode="&#x2003;" horiz-adv-x="1942" />
<glyph unicode="&#x2004;" horiz-adv-x="647" />
<glyph unicode="&#x2005;" horiz-adv-x="485" />
<glyph unicode="&#x2006;" horiz-adv-x="323" />
<glyph unicode="&#x2007;" horiz-adv-x="323" />
<glyph unicode="&#x2008;" horiz-adv-x="242" />
<glyph unicode="&#x2009;" horiz-adv-x="388" />
<glyph unicode="&#x200a;" horiz-adv-x="107" />
<glyph unicode="&#x2010;" horiz-adv-x="858" d="M53 565q12 -82 113 -82h43t39 2q29 2 61.5 3t79.5 1q23 0 36 -1t21 -1q10 -2 78 -2h72q45 0 79 3.5t58.5 13.5t41 30.5t28.5 57.5q8 16 12 34.5t4 22.5v8q-6 35 -21.5 42.5t-37.5 13.5h2q-4 2 -11.5 3t-11.5 3q-55 0 -82.5 -1t-44.5 -1h-114q-45 0 -65.5 1t-37.5 1h-86 q-10 2 -22 2h-15q-92 0 -138 -16.5t-68 -77.5q-8 -14 -12.5 -30.5t-0.5 -29.5z" />
<glyph unicode="&#x2011;" horiz-adv-x="858" d="M53 565q12 -82 113 -82h43t39 2q29 2 61.5 3t79.5 1q23 0 36 -1t21 -1q10 -2 78 -2h72q45 0 79 3.5t58.5 13.5t41 30.5t28.5 57.5q8 16 12 34.5t4 22.5v8q-6 35 -21.5 42.5t-37.5 13.5h2q-4 2 -11.5 3t-11.5 3q-55 0 -82.5 -1t-44.5 -1h-114q-45 0 -65.5 1t-37.5 1h-86 q-10 2 -22 2h-15q-92 0 -138 -16.5t-68 -77.5q-8 -14 -12.5 -30.5t-0.5 -29.5z" />
<glyph unicode="&#x2012;" horiz-adv-x="858" d="M53 565q12 -82 113 -82h43t39 2q29 2 61.5 3t79.5 1q23 0 36 -1t21 -1q10 -2 78 -2h72q45 0 79 3.5t58.5 13.5t41 30.5t28.5 57.5q8 16 12 34.5t4 22.5v8q-6 35 -21.5 42.5t-37.5 13.5h2q-4 2 -11.5 3t-11.5 3q-55 0 -82.5 -1t-44.5 -1h-114q-45 0 -65.5 1t-37.5 1h-86 q-10 2 -22 2h-15q-92 0 -138 -16.5t-68 -77.5q-8 -14 -12.5 -30.5t-0.5 -29.5z" />
<glyph unicode="&#x2013;" horiz-adv-x="1208" d="M61 514q10 -41 40 -66.5t77 -25.5h19q53 0 119.5 1t125.5 3q33 0 65 1t64 1q25 0 67 -1t69 -1q39 -2 75 -2h78h144q29 0 57.5 19.5t51 46t35.5 54t11 42.5l2 -2q-4 35 -27.5 53t-58.5 25q-37 0 -70.5 -1.5t-60.5 -1.5h-194q-49 0 -104.5 1.5t-102.5 3.5h-197h-29 q-98 0 -150 -17.5t-75.5 -41t-27 -49.5t-3.5 -42z" />
<glyph unicode="&#x2014;" horiz-adv-x="1976" d="M82 510q6 -43 35.5 -65.5t75.5 -22.5h12q23 0 43 1t43 1q23 2 47 2h55h441q92 0 184 -1t184 -1h465q59 0 106.5 14.5t78 38t46 52t11.5 57.5q-4 41 -35 59.5t-68 18.5q-47 0 -86 -1t-69 -4q-23 -2 -39 -2h-31h-350h-94q-55 0 -117 1t-121 1h-100q-117 2 -228 3h-211 q-16 0 -20 2h-39q-78 0 -122 -17.5t-66.5 -42t-27.5 -51.5t-3 -43z" />
<glyph unicode="&#x2018;" horiz-adv-x="411" d="M43 1077q0 -35 15.5 -65.5t40 -53t56 -36t66.5 -13.5q66 0 110 48.5t44 117.5q-4 31 -16.5 59.5t-32.5 51.5q6 23 12 43t14 45q14 43 25.5 80t7.5 53q-6 45 -41 63.5t-88 14.5q-57 -10 -88 -48t-45 -79q-12 -35 -27.5 -75t-28 -80t-20.5 -73.5t-4 -52.5z" />
<glyph unicode="&#x2019;" horiz-adv-x="411" d="M41 985q6 -45 41 -62.5t88 -13.5q57 10 88 47t45 78q12 33 27.5 74t28 81t19.5 73.5t5 52.5q0 35 -15.5 65.5t-41 54t-57 37t-64.5 13.5q-66 0 -111 -49.5t-43 -120.5q10 -63 49 -109q-6 -23 -12 -43t-14 -45q-14 -43 -25.5 -80t-7.5 -53z" />
<glyph unicode="&#x201a;" horiz-adv-x="411" d="M41 -170q6 -47 41 -64.5t88 -13.5q57 10 88 47t45 78q12 35 27.5 76t28 80t19.5 72.5t5 54.5q0 33 -15.5 63.5t-41 54t-57 37t-64.5 13.5q-66 0 -111 -49.5t-43 -118.5q10 -63 49 -109q-6 -25 -12 -45t-14 -45q-14 -41 -25.5 -78t-7.5 -53z" />
<glyph unicode="&#x201c;" horiz-adv-x="802" d="M53 1077q0 -35 15.5 -65.5t40 -53t56 -36t66.5 -13.5q66 0 111 48.5t43 117.5q-4 31 -16.5 59.5t-32.5 51.5q6 23 13 43t13 45q14 43 25.5 80t7.5 53q-4 45 -40 63.5t-89 14.5q-57 -10 -88 -48t-45 -79q-12 -35 -27.5 -75t-27.5 -80t-20.5 -73.5t-4.5 -52.5zM424 1077 q0 -35 15.5 -65.5t40 -53t56 -36t66.5 -13.5q66 0 110 48.5t42 117.5q-4 31 -15.5 59.5t-31.5 51.5q6 23 12 43t14 45q12 43 24.5 80t8.5 53q-6 45 -41 63.5t-88 14.5q-57 -10 -88 -48t-47 -79q-12 -35 -27.5 -75t-28 -80t-19.5 -73.5t-3 -52.5z" />
<glyph unicode="&#x201d;" horiz-adv-x="802" d="M51 985q6 -45 41 -62.5t88 -13.5q57 10 88 47t47 78q12 33 27.5 74t28 81t18.5 73.5t4 52.5q0 35 -15.5 65.5t-41 54t-57 37t-64.5 13.5q-66 0 -110 -49.5t-42 -120.5q6 -61 48 -109q-6 -23 -12.5 -43t-14.5 -45q-12 -43 -24.5 -80t-8.5 -53zM422 985q4 -45 40 -62.5 t89 -13.5q57 10 88 47t45 78q12 33 27.5 74t28 81t19.5 73.5t5 52.5q0 35 -15.5 65.5t-41 54t-57 37t-64.5 13.5q-66 0 -111 -49.5t-43 -120.5q10 -63 49 -109q-6 -23 -13 -43t-13 -45q-14 -43 -25.5 -80t-7.5 -53z" />
<glyph unicode="&#x201e;" horiz-adv-x="819" d="M51 -170q6 -47 42 -64.5t89 -13.5q55 10 86 47t47 78q12 35 27.5 76t28 80t19.5 72.5t5 54.5q0 33 -15 63.5t-41 54t-57.5 37t-64.5 13.5q-68 0 -112 -49.5t-42 -118.5q4 -29 15.5 -57.5t32.5 -51.5q-4 -25 -11.5 -45t-15.5 -45q-12 -41 -24.5 -78t-8.5 -53zM436 -170 q6 -47 42 -64.5t89 -13.5q57 10 88 47t45 78q12 35 27.5 76t28 80t19.5 72.5t5 54.5q0 33 -15 63.5t-41 54t-57.5 37t-64.5 13.5q-68 0 -112 -49.5t-41 -118.5q4 -29 15 -57.5t34 -51.5q-6 -25 -13.5 -45t-15.5 -45q-12 -41 -24.5 -78t-8.5 -53z" />
<glyph unicode="&#x2022;" horiz-adv-x="698" d="M53 772q-14 -63 0.5 -120.5t50 -103.5t89 -76t116.5 -38q61 -6 118.5 7.5t106 43t81 72.5t44.5 96q14 68 -3 132.5t-60 113.5t-105.5 78t-138.5 29q-111 0 -192.5 -67t-106.5 -167z" />
<glyph unicode="&#x2026;" horiz-adv-x="1329" d="M66 135q2 -78 51 -124t114 -46q70 0 112 42t42 108q0 80 -50 130t-122 50t-109.5 -43t-37.5 -117zM518 129q2 -72 50 -120t120 -48q70 0 111 43t41 109q0 72 -48.5 124t-123.5 52q-72 0 -111 -43t-39 -117zM962.5 164q-6.5 -37 4.5 -76q16 -53 61 -89t98 -36 q82 0 124 59.5t22 145.5q-12 51 -56.5 89t-105.5 38q-41 0 -72.5 -18.5t-50 -47t-25 -65.5z" />
<glyph unicode="&#x202f;" horiz-adv-x="388" />
<glyph unicode="&#x2039;" horiz-adv-x="559" d="M45 541q0 -8 16.5 -34t42 -60.5t56 -74.5t60.5 -77t54.5 -65.5t36.5 -43.5q35 -29 48.5 -39t39.5 -10q16 0 38 11.5t40.5 29t31.5 39t15 39.5v-4q4 18 -13 48t-45 65.5t-61.5 73.5t-64.5 75q-10 8 -17.5 18.5t-15.5 20.5q6 10 27.5 32.5t46.5 47.5q18 20 36.5 39.5 t31.5 36.5q8 14 22 28q23 29 40 57.5t17 47.5q0 14 -8 32.5t-22.5 35t-30.5 27.5t-31 11q-66 0 -149.5 -80t-200.5 -241l2 4q-43 -43 -43 -90z" />
<glyph unicode="&#x203a;" horiz-adv-x="559" d="M45 842q0 14 8 32.5t22.5 35t30 27.5t31.5 11q66 0 150 -80t200 -241l-2 4q43 -43 43 -90q0 -8 -16 -34t-42 -60.5t-56.5 -74.5t-60 -77t-54.5 -65.5t-37 -43.5q-35 -29 -48 -39t-40 -10q-16 0 -37.5 11.5t-40 29t-32 39t-15.5 39.5v-4q-4 18 12.5 49t44 65.5t62.5 73.5 t65 74q10 10 17.5 18.5t15.5 18.5q-8 10 -27.5 31.5t-41.5 44.5h-2q-16 16 -36 39.5t-34 42.5q-4 4 -5 7t-5 7q-23 33 -46.5 64.5t-23.5 54.5z" />
<glyph unicode="&#x205f;" horiz-adv-x="485" />
<glyph unicode="&#x2122;" horiz-adv-x="1570" d="M72 1300q0 -33 24.5 -55t87.5 -22h119q-2 -55 -3 -111.5t-1 -114.5v-65q0 -23 -1 -43.5t-1 -42.5q0 -49 3 -95t9 -83q10 -29 27.5 -56.5t58.5 -27.5q29 0 53.5 16t36.5 31v-2q29 29 33 51t-4 55q-10 53 -11 127t-1 133v27q0 35 1 66.5t3 66.5q0 16 1 35.5t1 38.5v2h16 q23 0 47.5 -1t46.5 3q31 4 60 14t47 33q-4 -41 -9 -83t-11 -81q-2 -33 -3.5 -69.5t-3.5 -73.5q-2 -39 -3 -75t-7 -75q-4 -29 -7 -79t-3 -76v-6q0 -27 6 -47.5t47 -34.5q16 -6 35.5 -1t38 15t33 24.5t22.5 24.5q12 18 17.5 57t3.5 74q0 23 -1 43.5t-1 36.5v25q2 12 3 30.5 t1 40.5v11q0 8 2 16q6 -20 12 -39.5t14 -38.5q10 -37 22.5 -74t24.5 -73q4 -6 5 -11q0 -2 2 -4q6 -20 15 -45.5t24.5 -48t36 -38t49.5 -15.5t49 12t34.5 30.5t23.5 41t15 41.5v-2q12 37 23.5 74.5t21.5 74.5v-2q10 31 20.5 64.5t20.5 64.5q0 2 1 4t1 6q4 -31 8.5 -62.5 t6.5 -67t3 -80t1 -101.5q0 -16 5 -35.5t17.5 -36t31 -27.5t44.5 -11q37 0 58.5 28.5t27.5 69.5q4 16 5 35.5t3 31.5q0 4 1 10.5t1 10.5q-4 96 -12 204.5t-24 205.5q0 8 -4 24v-2q-4 18 -7.5 45t-8.5 51.5t-11 45t-12 30.5v-2q-10 18 -21.5 29.5t-40.5 19.5h2q-37 12 -67.5 5 t-55 -27.5t-41 -50t-24.5 -66.5q-4 -12 -6 -24.5t-6 -26.5q-16 -66 -35 -131.5t-41 -130.5q0 8 -4 16v-2q-16 43 -28.5 87t-27.5 87q-12 43 -25.5 88t-27.5 88q-6 18 -18.5 37.5t-29.5 34t-40 20.5t-51 0q-23 -4 -51.5 -15t-49.5 -36q-4 33 -32.5 46t-69.5 13 q-16 0 -30.5 -1t-24.5 -3q-8 -2 -15 -2h-8q-23 -2 -51 -2q-27 0 -49 -2q-51 -2 -99.5 -4t-99.5 -2q-12 0 -33 4q-14 0 -27 1t-30 -1q-18 -4 -36.5 -15t-34 -27.5t-24.5 -36t-9 -36.5zM508 1237v14q0 -4 1 -7t-1 -7z" />
<glyph unicode="&#x25fc;" horiz-adv-x="1044" d="M0 0v1044h1044v-1044h-1044z" />
</font>
</defs>
</svg>
